<?xml version="1.0" standalone="no"?>
<!DOCTYPE svg PUBLIC "-//W3C//DTD SVG 1.1//EN" "http://www.w3.org/Graphics/SVG/1.1/DTD/svg11.dtd" >
<svg xmlns="http://www.w3.org/2000/svg">
<metadata></metadata>
<defs>
<font id="hacen_beirut_lt_x3regular" horiz-adv-x="891" >
<font-face units-per-em="2048" ascent="1638" descent="-410" />
<missing-glyph horiz-adv-x="435" />
<glyph unicode="&#x651;&#x64b;" horiz-adv-x="425" d="M50 1838l17 91l340 193l-17 -91zM61 1710l17 91l340 193l-17 -91zM66 1588q0 22 4.5 41.5t9.5 30.5q0 -1 1 -1t4.5 4t8 9t8.5 9t6 4q1 0 1 -1q-3 -14 -5.5 -27.5t-2.5 -24.5q0 -19 8 -31t29 -12q25 0 40.5 8t24.5 21t13 29.5t5.5 33.5t3 32.5t4.5 27.5l1 -1q2 0 5 3.5 t6 8t6.5 8t5.5 3.5q1 0 2 -1q-1 -5 -1 -13q0 -38 19.5 -64t47.5 -26q5 0 13.5 2t16.5 6.5t14 11.5t6 17q0 20 -14 42t-29 37q5 10 14.5 15.5t20 10t20 9.5t15.5 13q6 -11 6 -16q0 -4 -1 -6.5t-1 -7.5q0 -2 0.5 -5t2.5 -8q15 -41 15 -83q0 -24 -5.5 -46.5t-17 -40t-29 -27.5 t-41.5 -10q-17 0 -29 6t-26 16q-5 -14 -14 -31t-24 -33t-38 -26.5t-54 -10.5q-22 0 -36.5 8t-23.5 21.5t-12.5 30.5t-3.5 34z" />
<glyph unicode="&#x651;&#x64c;" horiz-adv-x="484" arabic-form="isolated" d="M43 1917q25 29 58.5 43.5t64.5 14.5q30 0 51 -14.5t21 -43.5q0 -14 -5.5 -31t-18.5 -37q48 17 89.5 38t75.5 53q-48 10 -67.5 30.5t-19.5 45.5q0 22 12 43t31.5 37.5t44.5 27t50 10.5q21 -2 28.5 -19t7.5 -40q0 -26 -5.5 -50t-9.5 -33l40 -10l-18 -65l-48 11 q-9 -15 -30 -38t-49 -44.5t-60.5 -37t-64.5 -15.5q-33 0 -49 13.5t-16 30.5q0 19 9 39.5t9 35.5q0 10 -7 16t-27 6q-15 0 -38.5 -4t-58.5 -13zM87 1635q0 26 4 47t9 32q0 -1 1 -1t5 4l8.5 8.5l8.5 8.5t6 4q1 0 1 -1q-3 -12 -5 -26.5t-2 -29.5q0 -17 2.5 -33t9 -28.5 t16.5 -20t25 -7.5q33 0 48 17.5t21 42t7.5 49.5t6.5 40l1 -1q2 0 5 3.5t6.5 8t6.5 8t5 3.5t2 -1q-1 -5 -1 -14q0 -38 19.5 -64t47.5 -26q5 0 13.5 2t16.5 6t14 10.5t6 16.5q0 20 -14 43t-28 38q11 20 19.5 37.5t17.5 34.5q26 -31 39.5 -69.5t13.5 -78.5q0 -25 -5.5 -48 t-17.5 -40t-30 -27.5t-42 -10.5q-17 0 -28.5 6.5t-25.5 16.5q-5 -12 -13.5 -29t-23 -32.5t-36 -26.5t-50.5 -11q-26 0 -43.5 12.5t-28 33t-14.5 45t-4 48.5zM346 2044q0 -17 20 -25l45 -18q0 5 1 9q0 4 0.5 9t0.5 11q0 12 -2 22.5t-8 14.5v-2q-6 6 -13.5 7t-12.5 1 q-17 0 -24 -9t-7 -20z" />
<glyph unicode="&#x651;&#x64d;" horiz-adv-x="425" arabic-form="isolated" d="M31 1438l33 75l350 141l-33 -75zM41 1543l33 75l350 141l-33 -75zM56 1840q0 28 4.5 51.5t10.5 34.5q0 -1 1 -1t5 4l8.5 8.5l8.5 8.5t6 4q1 0 1 -1q-8 -29 -8 -62t11.5 -59t40.5 -26q32 0 47.5 17t22 41t8 49t7.5 40l1 -1q2 0 5 3.5t7 7.5t7 7.5t5 3.5t2 -1q-1 -5 -1 -9 v-9q0 -37 18.5 -62t46.5 -25q5 0 13 2t16 6t14 11t6 17q0 19 -12.5 41t-26.5 38q11 20 20 37t19 34q24 -30 36.5 -67.5t12.5 -75.5q0 -26 -6 -49.5t-18 -41.5t-30 -28.5t-42 -10.5q-18 0 -29.5 7t-26.5 18q-5 -12 -13.5 -28.5t-23.5 -31.5t-36 -25.5t-49 -10.5q-26 0 -43 12 t-27.5 31.5t-14.5 43t-4 47.5z" />
<glyph unicode="&#x651;&#x64e;" horiz-adv-x="425" arabic-form="isolated" d="M61 1710l17 91l340 193l-17 -91zM66 1588q0 22 4.5 41.5t9.5 30.5q0 -1 1 -1t4.5 4t8 9t8.5 9t6 4q1 0 1 -1q-3 -14 -5.5 -27.5t-2.5 -24.5q0 -19 8 -31t29 -12q25 0 40.5 8t24.5 21t13 29.5t5.5 33.5t3 32.5t4.5 27.5l1 -1q2 0 5 3.5t6 8t6.5 8t5.5 3.5q1 0 2 -1 q-1 -5 -1 -13q0 -38 19.5 -64t47.5 -26q5 0 13.5 2t16.5 6.5t14 11.5t6 17q0 20 -14 42t-29 37q5 10 14.5 15.5t20 10t20 9.5t15.5 13q6 -11 6 -16q0 -4 -1 -6.5t-1 -7.5q0 -2 0.5 -5t2.5 -8q15 -41 15 -83q0 -24 -5.5 -46.5t-17 -40t-29 -27.5t-41.5 -10q-17 0 -29 6 t-26 16q-5 -14 -14 -31t-24 -33t-38 -26.5t-54 -10.5q-22 0 -36.5 8t-23.5 21.5t-12.5 30.5t-3.5 34z" />
<glyph unicode="&#x651;&#x64f;" horiz-adv-x="437" arabic-form="isolated" d="M1 1790q0 1 1 1q60 20 103 34t77 28t61.5 31t54.5 43q-51 9 -72 30t-21 46q0 22 13 43.5t34 38t47 27t52 10.5q23 -2 31 -19.5t8 -40.5q0 -25 -6 -49.5t-11 -34.5l43 -10l-19 -63l-50 10q-11 -18 -36 -40.5t-59 -42.5t-74.5 -33.5t-81.5 -13.5q-53 0 -73.5 3.5t-21.5 1.5 zM63 1635q0 26 4 47t9 32q0 -1 1 -1t5 4l8.5 8.5l8.5 8.5t6 4q1 0 1 -1q-3 -12 -5 -26.5t-2 -29.5q0 -17 2.5 -33t9 -28.5t16.5 -20t25 -7.5q33 0 48 17.5t21 42t7.5 49.5t6.5 40l1 -1q2 0 5 3.5t6.5 8t6.5 8t5 3.5t2 -1q-1 -5 -1 -14q0 -38 19.5 -64t47.5 -26q5 0 13.5 2 t16.5 6t14 10.5t6 16.5q0 20 -14 43t-28 38q11 20 19.5 37.5t17.5 34.5q26 -31 39.5 -69.5t13.5 -78.5q0 -25 -5.5 -48t-17.5 -40t-30 -27.5t-42 -10.5q-17 0 -28.5 6.5t-25.5 16.5q-5 -12 -13.5 -29t-23 -32.5t-36 -26.5t-50.5 -11q-26 0 -43.5 12.5t-28 33t-14.5 45 t-4 48.5zM262 2033q0 -18 20.5 -27t48.5 -17q0 4 1 9q0 4 0.5 9.5t0.5 11.5q0 11 -2 22t-9 14v-1q-6 5 -13 6.5t-12 1.5q-17 0 -26 -9t-9 -20z" />
<glyph unicode="&#x651;&#x650;" horiz-adv-x="425" arabic-form="isolated" d="M71 1762q0 28 4.5 51.5t10.5 34.5q0 -1 1 -1t5 4l8.5 8.5l8.5 8.5t6 4q1 0 1 -1q-8 -29 -8 -62t11.5 -59t40.5 -26q32 0 47.5 17t22 41t8 49t7.5 40l1 -1q2 0 5 3.5t7 7.5t7 7.5t5 3.5t2 -1q-1 -5 -1 -9v-9q0 -37 18.5 -62t46.5 -25q5 0 13 2t16 6t14 11t6 17 q0 19 -12.5 41t-26.5 38q11 20 20 37t19 34q24 -30 36.5 -67.5t12.5 -75.5q0 -26 -6 -49.5t-18 -41.5t-30 -28.5t-42 -10.5q-18 0 -29.5 7t-26.5 18q-5 -12 -13.5 -28.5t-23.5 -31.5t-36 -25.5t-49 -10.5q-26 0 -43 12t-27.5 31.5t-14.5 43t-4 47.5zM82 1397l17 91l340 193 l-17 -91z" />
<glyph unicode="&#x640;&#x651;&#x64e;" horiz-adv-x="375" arabic-form="medial" d="M-39 1077l17 91l340 193l-17 -91zM-34 955q0 22 4.5 41.5t9.5 30.5q0 -1 1 -1t4.5 4t8 9t8.5 9t6 4q1 0 1 -1q-3 -14 -5.5 -27.5t-2.5 -24.5q0 -19 8 -31t29 -12q25 0 40.5 8t24.5 21t13 29.5t5.5 33.5t3 33t4.5 27l1 -1q2 0 5 3.5t6 8t6.5 8t5.5 3.5q1 0 2 -1 q-1 -5 -1 -13q0 -38 19.5 -64t47.5 -26q5 0 13.5 2t16.5 6.5t14 11.5t6 17q0 20 -14 42t-29 37q5 10 14.5 15.5t20 10t20 9.5t15.5 13q6 -11 6 -16q0 -4 -1 -6.5t-1 -7.5q0 -2 0.5 -5t2.5 -8q15 -41 15 -83q0 -24 -5.5 -46.5t-17 -40t-29 -27.5t-41.5 -10q-17 0 -29 6 t-26 16q-5 -14 -14 -31t-24 -33t-38 -26.5t-54 -10.5q-22 0 -36.5 8t-23.5 21.5t-12.5 30.5t-3.5 34z" />
<glyph unicode="&#x640;&#x651;&#x64f;" horiz-adv-x="480" arabic-form="medial" d="M-6 1182q0 1 1 1q60 20 103 34t77 28t61.5 31t54.5 43q-51 9 -72 30t-21 46q0 22 13 43.5t34 38t47 27t52 10.5q23 -2 31 -19.5t8 -40.5q0 -25 -6 -49.5t-11 -34.5l43 -10l-19 -63l-50 10q-11 -18 -36 -40.5t-59 -42.5t-74.5 -33.5t-81.5 -13.5q-53 0 -73.5 3.5 t-21.5 1.5zM56 1027q0 26 4 47t9 32q0 -1 1 -1t5 4l8.5 8.5l8.5 8.5t6 4q1 0 1 -1q-3 -12 -5 -26.5t-2 -29.5q0 -17 2.5 -33t9 -28.5t16.5 -20t25 -7.5q33 0 48 17.5t21 42t7.5 49.5t6.5 40l1 -1q2 0 5 3.5t6.5 8t6.5 8t5 3.5t2 -1q-1 -5 -1 -14q0 -38 19.5 -64t47.5 -26 q5 0 13.5 2t16.5 6t14 10.5t6 16.5q0 20 -14 43t-28 38q11 20 19.5 37.5t17.5 34.5q26 -31 39.5 -69.5t13.5 -78.5q0 -25 -5.5 -48t-17.5 -40t-30 -27.5t-42 -10.5q-17 0 -28.5 6.5t-25.5 16.5q-5 -12 -13.5 -29t-23 -32.5t-36 -26.5t-50.5 -11q-26 0 -43.5 12.5t-28 33 t-14.5 45t-4 48.5zM255 1425q0 -18 20.5 -27t48.5 -17q0 4 1 9q0 4 0.5 9.5t0.5 11.5q0 11 -2 22t-9 14v-1q-6 5 -13 6.5t-12 1.5q-17 0 -26 -9t-9 -20z" />
<glyph unicode="&#xfedf;&#xfee0;&#xfeea;" horiz-adv-x="1809" arabic-form="isolated" d="M70 394v369q0 127 54.5 183t157.5 56h254q102 0 157.5 -56t55.5 -183v-433h322v752q0 16 17 16h143q6 0 11 -4.5t5 -11.5v-752h326v991q0 7 5 11.5t12 4.5h143q15 0 15 -16v-927q0 -127 -55 -183t-156 -56h-1255q-103 0 -157.5 56t-54.5 183zM245 330h327v497h-327v-497z M967 1246v152q0 11 8.5 19.5t20.5 8.5h38q12 0 20 -8.5t8 -19.5v-135h68v135q0 11 9 19.5t20 8.5h38q12 0 20 -8.5t8 -19.5v-135h67v135q0 11 8.5 19.5t21.5 8.5h37q11 0 20 -8.5t9 -19.5v-152q0 -24 -7 -39t-18.5 -23.5t-25.5 -12t-29 -3.5h-262q-39 0 -59 18t-20 60z" />
<glyph unicode="&#x640;&#x64e;" horiz-adv-x="448" arabic-form="medial" d="M13 952q5 24 8 39.5t7 37.5q99 52 191.5 101.5t191.5 102.5l-15 -76q-97 -52 -191.5 -102.5t-191.5 -102.5z" />
<glyph unicode="&#x640;&#x64f;" horiz-adv-x="490" arabic-form="medial" d="M6 1063q0 1 1 1q61 25 105.5 43t79 36t62.5 39.5t56 54.5q-52 12 -73.5 38t-21.5 58q0 27 12.5 54t33 48.5t46.5 35.5t52 14t35.5 -22t9.5 -54t-6 -63t-11 -44l44 -13l-19 -80l-52 12q-11 -23 -36.5 -51.5t-60.5 -53.5t-76 -42.5t-83 -17.5q-56 0 -77 4t-21 3zM273 1371 q0 -23 21 -34t50 -22q0 5 1 11q0 5 0.5 12t0.5 15q0 15 -2 28.5t-9 18.5v-2q-6 7 -14.5 8.5t-13.5 1.5q-17 0 -25.5 -11.5t-8.5 -25.5z" />
<glyph unicode="&#x640;&#x650;" horiz-adv-x="669" arabic-form="medial" d="M9 301q5 23 8 39t7 38q99 52 191.5 101.5t191.5 102.5l-15 -76q-97 -52 -191.5 -102.5t-191.5 -102.5z" />
<glyph unicode="&#x640;&#x651;" horiz-adv-x="448" arabic-form="medial" d="M47 1089q0 37 9 70t18 47q0 -1 1 -1t5.5 3.5t9.5 7t9.5 7t6.5 3.5q1 0 1 -1q-8 -17 -12.5 -39.5t-4.5 -43.5q0 -29 11.5 -48.5t40.5 -19.5t44.5 16t23.5 37.5t12.5 44.5t12.5 38q0 -2 2 -2q4 0 12.5 9.5t12.5 9.5q2 0 2 -1q-4 -15 -4 -32q0 -34 17 -57t44 -23q6 0 14 1.5 t15.5 5t13 10.5t5.5 19q0 19 -9.5 40.5t-20.5 36.5q13 18 24.5 34t22.5 32q17 -26 25 -57.5t8 -61.5q0 -28 -6.5 -54.5t-19 -47t-31 -33t-43.5 -12.5t-37.5 9t-27.5 23q-6 -11 -16 -25t-24.5 -26.5t-34.5 -21t-45 -8.5t-42 9.5t-27 25t-14 35.5t-4 41z" />
<glyph unicode="&#xfedf;&#xfe82;" horiz-adv-x="1007" arabic-form="isolated" d="M69 171v143q0 7 5 11.5t11 4.5h153v991q0 16 14 16h144q17 0 17 -16v-991h327v991q0 16 17 16h143q7 0 12 -4.5t5 -11.5v-927q-1 -127 -55.5 -183t-157.5 -56h-619q-6 0 -11 4.5t-5 11.5zM157 1485h6v-6q-2 3 -6 6zM160 1548q1 0 3 5v-5h-3zM163 1485v63h308v-63h6 q-6 -4 -6 -5v5h-308zM471 1548v3q0 -3 2 -3h-2z" />
<glyph unicode="&#xfee0;&#xfe82;" horiz-adv-x="1058" arabic-form="final" d="M106 198v143q0 7 5.5 11.5t11.5 4.5h152v935q0 16 16 16h142q8 0 13 -4.5t5 -11.5v-935h327v935q0 16 17 16h143q7 0 12 -4.5t5 -11.5v-943h107v-167h-939q-6 0 -11.5 4.5t-5.5 11.5zM180 1449h6v-7q-1 2 -2.5 3.5zM181 1512q2 0 5 4v-4h-5zM186 1449v63h309v-63h6 q-6 -4 -6 -5v5h-309zM495 1512v3q0 -3 2 -3h-2z" />
<glyph unicode="&#xfedf;&#xfe84;" horiz-adv-x="1007" arabic-form="isolated" d="M69 171v143q0 7 5 11.5t11 4.5h153v991q0 16 14 16h144q17 0 17 -16v-991h327v991q0 16 17 16h143q7 0 12 -4.5t5 -11.5v-927q-1 -127 -55.5 -183t-157.5 -56h-619q-6 0 -11 4.5t-5 11.5zM170 1541v52q0 7 5.5 13t13.5 6h44v103q0 54 23.5 78t66.5 24h99q7 0 11.5 -5.5 t4.5 -12.5v-55q0 -7 -4.5 -12.5t-11.5 -5.5h-100v-114h100q7 0 11.5 -6t4.5 -13v-52q0 -19 -16 -19h-233q-8 0 -13.5 5.5t-5.5 13.5z" />
<glyph unicode="&#xfee0;&#xfe84;" horiz-adv-x="1058" arabic-form="final" d="M106 198v143q0 7 5.5 11.5t11.5 4.5h152v935q0 16 16 16h142q8 0 13 -4.5t5 -11.5v-935h327v935q0 16 17 16h143q7 0 12 -4.5t5 -11.5v-943h107v-167h-939q-6 0 -11.5 4.5t-5.5 11.5zM206 1457v52q0 7 5.5 13t13.5 6h44v103q0 54 23.5 78t66.5 24h99q7 0 11.5 -5.5 t4.5 -12.5v-55q0 -7 -4.5 -12.5t-11.5 -5.5h-100v-114h100q7 0 11.5 -6t4.5 -13v-52q0 -19 -16 -19h-233q-8 0 -13.5 5.5t-5.5 13.5z" />
<glyph unicode="&#xfedf;&#xfe88;" horiz-adv-x="1016" arabic-form="isolated" d="M73 171v143q0 7 5.5 11.5t11.5 4.5h152v991q0 16 16 16h142q8 0 13 -4.5t5 -11.5v-991h327v991q0 16 17 16h143q7 0 12 -4.5t5 -11.5v-927q-1 -127 -55.5 -183t-157.5 -56h-619q-6 0 -11.5 4.5t-5.5 11.5zM170 -224q0 7 5.5 13t13.5 6h44v103q0 54 23.5 78t66.5 24h99 q7 0 11.5 -5.5t4.5 -12.5v-55q0 -7 -4.5 -12.5t-11.5 -5.5h-100v-114h100q7 0 11.5 -6t4.5 -13v-52q0 -19 -16 -19h-233q-8 0 -13.5 5.5t-5.5 13.5v52z" />
<glyph unicode="&#xfee0;&#xfe88;" horiz-adv-x="1058" arabic-form="final" d="M90 -249q0 7 5.5 13t13.5 6h44v103q0 54 23.5 78t66.5 24h99q7 0 11.5 -5.5t4.5 -12.5v-55q0 -7 -4.5 -12.5t-11.5 -5.5h-100v-114h100q7 0 11.5 -6t4.5 -13v-52q0 -19 -16 -19h-233q-8 0 -13.5 5.5t-5.5 13.5v52zM106 198v143q0 7 5.5 11.5t11.5 4.5h152v935q0 16 16 16 h142q8 0 13 -4.5t5 -11.5v-935h327v935q0 16 17 16h143q7 0 12 -4.5t5 -11.5v-943h107v-167h-939q-6 0 -11.5 4.5t-5.5 11.5z" />
<glyph unicode="&#xfedf;&#xfe8e;" horiz-adv-x="1012" arabic-form="isolated" d="M73 171v143q0 7 5.5 11.5t11.5 4.5h152v991q0 16 16 16h142q8 0 13 -4.5t5 -11.5v-991h327v991q0 16 17 16h143q7 0 12 -4.5t5 -11.5v-927q-1 -127 -55.5 -183t-157.5 -56h-619q-6 0 -11.5 4.5t-5.5 11.5z" />
<glyph unicode="&#xfee0;&#xfe8e;" horiz-adv-x="1053" arabic-form="final" d="M106 198v143q0 7 5.5 11.5t11.5 4.5h152v935q0 16 16 16h142q8 0 13 -4.5t5 -11.5v-935h327v935q0 16 17 16h143q7 0 12 -4.5t5 -11.5v-943h107v-167h-939q-6 0 -11.5 4.5t-5.5 11.5z" />
<glyph unicode="&#xfcf4;" horiz-adv-x="532" arabic-form="medial" d="M70 1020q0 1 1 1q61 25 105.5 43t79 36t62.5 39.5t56 54.5q-52 12 -73.5 38t-21.5 58q0 27 12.5 54t33 48.5t46.5 35.5t52 14t35.5 -22t9.5 -54t-6 -63t-11 -44l44 -13l-19 -80l-52 12q-11 -23 -36.5 -51.5t-60.5 -53.5t-76 -42.5t-83 -17.5q-56 0 -77 4t-21 3zM337 1328 q0 -23 21 -34t50 -22q0 5 1 11q0 5 0.5 12t0.5 15q0 15 -2 28.5t-9 18.5v-2q-6 7 -14.5 8.5t-13.5 1.5q-17 0 -25.5 -11.5t-8.5 -25.5z" />
<glyph unicode="&#xfe70;" horiz-adv-x="408" arabic-form="isolated" d="M49 1482l17 91l340 193l-17 -91zM63 1649l17 91l340 193l-17 -91z" />
<glyph unicode="&#xfe71;" horiz-adv-x="669" arabic-form="medial" d="M1 949q5 23 8 39t7 38q99 52 191.5 101.5t191.5 102.5l-16 -76q-97 -52 -191 -102.5t-191 -102.5zM33 1140q5 23 8.5 38.5t7.5 38.5q99 52 191 101.5t191 102.5l-15 -76q-97 -52 -191.5 -102.5t-191.5 -102.5z" />
<glyph unicode="&#xfe72;" horiz-adv-x="469" arabic-form="isolated" d="M45 1619q23 34 55.5 51t61.5 17t49 -16.5t20 -51.5q0 -34 -23 -80q46 20 85.5 44t71.5 62q-45 11 -64 35.5t-19 53.5q0 26 12 51t30.5 45t42 32.5t47.5 12.5q20 -2 27 -23t7 -47q0 -29 -5 -58t-9 -40l38 -12l-17 -76l-46 13q-8 -18 -28 -45.5t-47 -53t-58 -43.5t-62 -18 t-46 16t-15 36q0 23 8 47t8 41q0 12 -6.5 19.5t-26.5 7.5q-14 0 -36.5 -4.5t-54.5 -15.5zM334 1768q0 -20 19 -30t43 -21q0 5 1 10q0 5 0.5 10.5t0.5 12.5q0 14 -2 27.5t-8 17.5v-2q-6 6 -12.5 8t-12.5 2q-15 0 -22 -11t-7 -24z" />
<glyph unicode="&#xfe74;" horiz-adv-x="408" arabic-form="isolated" d="M1 -288q5 23 8 38.5t7 38.5q99 52 191.5 101.5t191.5 102.5l-15 -76q-97 -52 -191.5 -102.5t-191.5 -102.5zM33 -98q5 24 8.5 39.5t7.5 38.5q99 52 191 101t191 102l-15 -76q-97 -52 -191.5 -102.5t-191.5 -102.5z" />
<glyph unicode="&#xfe76;" horiz-adv-x="408" arabic-form="isolated" d="M13 1378q5 24 8 39.5t7 37.5q99 52 191.5 101.5t191.5 102.5l-15 -76q-97 -52 -191.5 -102.5t-191.5 -102.5z" />
<glyph unicode="&#xfe78;" horiz-adv-x="414" arabic-form="isolated" d="M12 1506q0 1 1 1q61 25 105.5 43t79 36t62.5 39.5t56 54.5q-52 12 -73.5 38t-21.5 58q0 27 12.5 54t33 48.5t46.5 35.5t52 14t35.5 -22t9.5 -54t-6 -63t-11 -44l44 -13l-19 -80l-52 12q-11 -23 -36.5 -51.5t-60.5 -53.5t-76 -42.5t-83 -17.5q-56 0 -77 4t-21 3zM279 1814 q0 -23 21 -34t50 -22q0 5 1 11q0 5 0.5 12t0.5 15q0 15 -2 28.5t-9 18.5v-2q-6 7 -14.5 8.5t-13.5 1.5q-17 0 -25.5 -11.5t-8.5 -25.5z" />
<glyph unicode="&#xfe7a;" horiz-adv-x="408" arabic-form="isolated" d="M9 -568q5 23 8 39t7 38q99 52 191.5 101.5t191.5 102.5l-15 -76q-97 -52 -191.5 -102.5t-191.5 -102.5z" />
<glyph unicode="&#xfe7c;" horiz-adv-x="425" arabic-form="isolated" d="M59 1619q0 37 9 70t18 47q0 -1 1 -1t5.5 3.5t9.5 7t9.5 7t6.5 3.5q1 0 1 -1q-8 -17 -12.5 -39.5t-4.5 -43.5q0 -29 11.5 -48.5t40.5 -19.5t44.5 16t23.5 37.5t12.5 44.5t12.5 38q0 -2 2 -2q4 0 12.5 9.5t12.5 9.5q2 0 2 -1q-4 -15 -4 -32q0 -34 17 -57t44 -23q6 0 14 1.5 t15.5 5t13 10.5t5.5 19q0 19 -9.5 40.5t-20.5 36.5q13 18 24.5 34t22.5 32q17 -26 25 -57.5t8 -61.5q0 -28 -6.5 -54.5t-19 -47t-31 -33t-43.5 -12.5t-37.5 9t-27.5 23q-6 -11 -16 -25t-24.5 -26.5t-34.5 -21t-45 -8.5t-42 9.5t-27 25t-14 35.5t-4 41z" />
<glyph unicode="&#xfe7e;" horiz-adv-x="328" arabic-form="isolated" d="M57 1582q0 37 12 78t32.5 75t48.5 56.5t60 22.5q25 0 48.5 -12t42.5 -29.5t31 -38t15 -38.5q1 -4 1 -8v-8q0 -31 -14.5 -65t-37.5 -78v1q0 1 1 2l-3 -5q-13 -8 -30 -15.5t-36.5 -13.5t-40.5 -9.5t-40 -3.5q-40 0 -65 19.5t-25 69.5zM122 1651q0 -28 20.5 -40t48.5 -12 q23 0 47.5 7.5t43.5 20.5l1 1q-3 13 -12.5 28.5t-23 28.5t-29.5 21.5t-32 8.5q-32 0 -48 -21t-16 -43z" />
<glyph unicode="&#xfe7f;" horiz-adv-x="2797" arabic-form="medial" d="M90 223v504h2611v-504h-2611zM161 1054q0 34 16.5 56.5t54.5 22.5q51 0 104.5 -8.5t107.5 -8.5l80 179q8 37 25.5 64t46.5 27q10 0 19.5 -3.5t9.5 -17.5q0 -9 -8 -24.5t-17 -28.5l-97 -192q105 5 209 36t189 97q35 31 61.5 43.5t43.5 12.5q25 0 25 -21q0 -19 -23 -47.5 t-73 -54.5q-33 -34 -63 -72t-54 -82t-40 -96t-20 -115q0 -19 -15 -19q-12 0 -18 13.5t-6 45.5q0 73 22.5 140.5t56.5 124.5q-76 -25 -155 -36.5t-161 -11.5l-80 -160q-16 -31 -39.5 -54t-55.5 -23q-24 0 -50 18.5t-47 49t-35 68.5t-14 77zM200 1066q0 -23 9.5 -52.5 t25.5 -56t36 -45t40 -18.5q15 0 29 12t26 40l61 134q-108 3 -214 21q-13 -10 -13 -35zM879 873q0 7 2.5 15t6.5 17q18 40 49 76.5t68.5 64t77.5 44t76 16.5q27 0 48 -16t21 -52q0 -15 -13.5 -34t-30 -39t-30 -42t-13.5 -43q0 -15 9 -21.5t23 -6.5q21 0 49.5 10t56.5 23 t51.5 25.5t33.5 18.5q8 37 32.5 68.5t55.5 54.5t63.5 36.5t57.5 13.5q14 0 20 -5t6 -13q0 -10 -11 -20.5t-30 -12.5q-19 -7 -44 -19t-47.5 -30t-38 -41t-15.5 -52q0 -32 16.5 -45t42.5 -13t59 10t64.5 23.5t58 27.5t41.5 21q0 36 19 71t48.5 62.5t66.5 44t73 16.5 q22 0 36.5 -4.5t22 -11t10.5 -15t3 -15.5q0 -26 -29 -52t-67 -49t-74.5 -40.5t-52.5 -25.5q16 -23 41 -33.5t57 -10.5q30 0 64.5 8.5t70 23.5t70 35.5t64.5 43.5q19 14 38 32t40 33q4 3 13 8t19.5 10.5t21.5 9t20 3.5q15 0 15 -13q0 -5 -4 -16.5t-10 -22.5 q-16 -45 -25.5 -75t-11.5 -47q0 -5 6 -5q7 0 20 6.5t29.5 16t34 22t32.5 24.5q4 2 23 15t43 27.5t48 26.5t38 12q12 0 12 -12q-3 -29 -3 -57q0 -12 1 -24.5t4.5 -22t10 -15.5t17.5 -6q17 0 31 5.5t27 13.5t25.5 18t27.5 19l8 -21q-12 -9 -30 -25t-38.5 -31.5t-42.5 -27 t-42 -11.5q-15 0 -25 6t-15 15t-7 19t-2 19t1 18.5t1 17.5q0 11 -3.5 21t-14.5 10q-10 0 -27.5 -9.5t-38.5 -24t-45 -31t-48 -31t-46 -24.5t-40 -10q-11 2 -22 8t-11 19q0 23 4.5 44.5t18.5 62.5q0 1 -15.5 -10t-43 -28t-64 -37t-77 -37.5t-83 -29t-82.5 -11.5 q-41 0 -76.5 16.5t-49.5 46.5q-19 -8 -47.5 -22t-62 -27.5t-68.5 -23t-66 -9.5q-35 0 -61.5 16.5t-35.5 60.5q-21 -12 -45 -26t-49.5 -25.5t-50.5 -19.5t-49 -8q-31 0 -55.5 20.5t-43.5 65.5q-17 -12 -30 -20.5t-25.5 -15.5t-25.5 -12t-30 -11q-18 -6 -32 -6q-17 0 -33 11.5 t-16 33.5zM880 265h126v125h-126v-125zM928 880q41 0 77.5 16.5t68.5 42t59 57.5t50 63q-5 1 -10 1h-10q-36 0 -70.5 -17t-65 -43.5t-56 -58.5t-43.5 -61zM1103 265h91v320l318 -320h109v421h-91v-320l-313 320h-114v-421zM1709 265h430v76h-331v108h299v75h-299v87h322v75 h-421v-421zM1737 954q40 17 73.5 34t58.5 33t39 30t14 25q0 10 -8 15q-50 -5 -99 -38t-78 -99zM2202 609h183v-344h89v344h183v77h-455v-77z" />
<glyph unicode="&#x621;" horiz-adv-x="820" arabic-form="isolated" d="M76 171v143q0 16 16 16h153v433q0 127 55 183t156 56h267q7 0 12 -4.5t5 -12.5v-143q0 -6 -5 -10.5t-12 -4.5h-300v-497h300q7 0 12 -4.5t5 -11.5v-143q0 -7 -5 -11.5t-12 -4.5h-631q-16 0 -16 16z" />
<glyph unicode="&#x622;" horiz-adv-x="387" arabic-form="isolated" d="M43 1485h6v-6q-2 3 -6 6zM46 1556q1 0 3 5v-5h-3zM49 1485v71h308v-71h8q-2 -2 -4.5 -3t-3.5 -3v6h-308zM107 164v1157q0 7 5 11.5t12 4.5h143q6 0 11 -4.5t5 -11.5v-1157q0 -6 -5 -11t-11 -5h-143q-7 0 -12 5t-5 11zM357 1556v3q0 -3 4 -3h-4z" />
<glyph unicode="&#x622;" horiz-adv-x="362" arabic-form="final" d="M43 1485h6v-6q-2 3 -6 6zM46 1556q1 0 3 5v-5h-3zM49 1485v71h308v-71h8q-2 -2 -4.5 -3t-3.5 -3v6h-308zM87 394v927q0 7 5 11.5t12 4.5h142q7 0 12 -4.5t5 -11.5v-991h108v-175h-71q-103 0 -158 56t-55 183zM357 1556v3q0 -3 4 -3h-4z" />
<glyph unicode="&#x623;" horiz-adv-x="387" arabic-form="isolated" d="M50 1533v52q0 7 5.5 13t13.5 6h44v103q0 54 23.5 78t66.5 24h99q7 0 11.5 -5.5t4.5 -12.5v-55q0 -7 -4.5 -12.5t-11.5 -5.5h-100v-114h100q7 0 11.5 -6t4.5 -13v-52q0 -19 -16 -19h-233q-8 0 -13.5 5.5t-5.5 13.5zM108 164v1157q0 16 17 16h143q6 0 10.5 -4.5t4.5 -11.5 v-1157q0 -6 -4.5 -11t-10.5 -5h-143q-8 0 -12.5 5t-4.5 11z" />
<glyph unicode="&#x623;" horiz-adv-x="365" arabic-form="final" d="M50 1533v52q0 7 5.5 13t13.5 6h44v103q0 54 23.5 78t66.5 24h99q7 0 11.5 -5.5t4.5 -12.5v-55q0 -7 -4.5 -12.5t-11.5 -5.5h-100v-114h100q7 0 11.5 -6t4.5 -13v-52q0 -19 -16 -19h-233q-8 0 -13.5 5.5t-5.5 13.5zM87 394v927q0 16 16 16h142q17 0 17 -16v-991h108v-175 h-71q-103 0 -157.5 56t-54.5 183z" />
<glyph unicode="&#x624;" horiz-adv-x="846" arabic-form="isolated" d="M82 394v369q0 127 54.5 183t157.5 56h255q103 0 157.5 -56t54.5 -183q0 -76 -1 -152t-1 -152v-303q0 -123 -37 -218.5t-105 -160.5t-164.5 -98.5t-216.5 -33.5l-104 5q-9 2 -15.5 6t-6.5 11v142q0 7 4.5 12.5t12.5 5.5q22 0 55 -2t65 -2q57 0 113 11t104 46t84.5 100.5 t55.5 174.5h-310q-103 0 -157.5 56t-54.5 183zM257 330h328v497h-328v-497zM290 1238v52q0 7 5.5 13t13.5 6h44v103q0 54 23.5 78t66.5 24h99q7 0 11.5 -5.5t4.5 -12.5v-55q0 -7 -4.5 -12.5t-11.5 -5.5h-100v-114h100q7 0 11.5 -6t4.5 -13v-52q0 -19 -16 -19h-233 q-8 0 -13.5 5.5t-5.5 13.5z" />
<glyph unicode="&#x624;" horiz-adv-x="876" arabic-form="final" d="M87 394v369q0 127 54.5 183t157.5 56h255q103 0 157 -56t54 -183v-433h116v-175h-112q-14 -125 -57.5 -220t-112 -159.5t-160 -97.5t-200.5 -33l-102 5q-8 2 -15.5 6.5t-7.5 10.5v142q0 7 5 12.5t13 5.5q24 0 57.5 -2t64.5 -2q57 0 112.5 11t103.5 46t84.5 100.5 t54.5 174.5h-310q-103 0 -157.5 56t-54.5 183zM262 330h327v497h-327v-497zM290 1238v52q0 7 5.5 13t13.5 6h44v103q0 54 23.5 78t66.5 24h99q7 0 11.5 -5.5t4.5 -12.5v-55q0 -7 -4.5 -12.5t-11.5 -5.5h-100v-114h100q7 0 11.5 -6t4.5 -13v-52q0 -19 -16 -19h-233 q-8 0 -13.5 5.5t-5.5 13.5z" />
<glyph unicode="&#x625;" horiz-adv-x="387" arabic-form="isolated" d="M71 -266q0 7 5.5 13t13.5 6h44v103q0 54 23.5 78t66.5 24h99q7 0 11.5 -5.5t4.5 -12.5v-55q0 -7 -4.5 -12.5t-11.5 -5.5h-100v-114h100q7 0 11.5 -6t4.5 -13v-52q0 -19 -16 -19h-233q-8 0 -13.5 5.5t-5.5 13.5v52zM109 164v1157q0 16 17 16h143q6 0 11 -4.5t5 -11.5 v-1157q0 -6 -5 -11t-11 -5h-143q-8 0 -12.5 5t-4.5 11z" />
<glyph unicode="&#x625;" horiz-adv-x="365" arabic-form="final" d="M71 -266q0 7 5.5 13t13.5 6h44v103q0 54 23.5 78t66.5 24h99q7 0 11.5 -5.5t4.5 -12.5v-55q0 -7 -4.5 -12.5t-11.5 -5.5h-100v-114h100q7 0 11.5 -6t4.5 -13v-52q0 -19 -16 -19h-233q-8 0 -13.5 5.5t-5.5 13.5v52zM86 394v927q0 16 17 16h142q7 0 12 -4.5t5 -11.5v-991 h108v-175h-72q-102 0 -157 56t-55 183z" />
<glyph unicode="&#x626;" horiz-adv-x="1163" arabic-form="isolated" d="M19 669v52q0 7 5.5 13t13.5 6h44v103q0 54 23.5 78t66.5 24h99q7 0 11.5 -5.5t4.5 -12.5v-55q0 -7 -4.5 -12.5t-11.5 -5.5h-100v-114h100q7 0 11.5 -6t4.5 -13v-52q0 -19 -16 -19h-233q-8 0 -13.5 5.5t-5.5 13.5zM81 266q0 11 0.5 24.5t0.5 36.5v59v92q0 17 17 17h144 q6 0 11.5 -4.5t5.5 -12.5v-233q0 -72 11.5 -144.5t48 -133t104.5 -101t180 -47.5h11q54 0 107.5 23t99 66t79.5 105.5t48 141.5q-85 0 -145.5 16.5t-99.5 47.5t-57.5 75t-18.5 100v369q0 127 54 183t157 56h239q6 0 10 -5t4 -13v-142q0 -6 -4 -11t-10 -5l-276 1v-497h234 q68 -1 68 -152q0 -22 -3 -47t-3 -56q-15 -96 -62 -175t-116 -136t-156 -89.5t-182 -33.5q-87 5 -158 31t-126.5 68.5t-96 100t-67 125.5t-39.5 144t-14 156z" />
<glyph unicode="&#x626;" horiz-adv-x="1194" arabic-form="final" d="M19 669v52q0 7 5.5 13t13.5 6h44v103q0 54 23.5 78t66.5 24h99q7 0 11.5 -5.5t4.5 -12.5v-55q0 -7 -4.5 -12.5t-11.5 -5.5h-100v-114h100q7 0 11.5 -6t4.5 -13v-52q0 -19 -16 -19h-233q-8 0 -13.5 5.5t-5.5 13.5zM67 269v32q0 13 0.5 28.5t1 36.5t1 48.5t0.5 63.5 q0 8 4.5 12.5t10.5 4.5h143q17 0 17 -17v-104q0 -51 -0.5 -110.5t7 -119t26.5 -115.5t57.5 -101t100.5 -74t155 -35h11q54 0 107.5 23t99 66t78.5 105.5t47 141.5h-291q-16 0 -16 16v143q0 16 16 16h556v-175h-105q-15 -114 -62.5 -208t-118 -161t-158.5 -105t-185 -40 q-133 7 -228.5 60.5t-156.5 139t-89.5 196t-28.5 232.5z" />
<glyph unicode="&#x626;" horiz-adv-x="406" arabic-form="initial" d="M-5 155v175h158v296q0 6 4.5 10.5t11.5 4.5h143q7 0 12 -4.5t5 -10.5v-232q0 -127 -55 -183t-158 -56h-121zM55 842v52q0 7 5.5 13t13.5 6h44v103q0 54 23.5 78t66.5 24h99q7 0 11.5 -5.5t4.5 -12.5v-55q0 -7 -4.5 -12.5t-11.5 -5.5h-100v-114h100q7 0 11.5 -6t4.5 -13 v-52q0 -19 -16 -19h-233q-8 0 -13.5 5.5t-5.5 13.5z" />
<glyph unicode="&#x626;" horiz-adv-x="401" arabic-form="medial" d="M-4 155v175h124v296q0 6 4.5 10.5t12.5 4.5h143q7 0 12 -4.5t5 -10.5v-296h116v-175h-417zM60 842v52q0 7 5.5 13t13.5 6h44v103q0 54 23.5 78t66.5 24h99q7 0 11.5 -5.5t4.5 -12.5v-55q0 -7 -4.5 -12.5t-11.5 -5.5h-100v-114h100q7 0 11.5 -6t4.5 -13v-52q0 -19 -16 -19 h-233q-8 0 -13.5 5.5t-5.5 13.5z" />
<glyph unicode="&#x627;" horiz-adv-x="387" arabic-form="isolated" d="M108 164v1157q0 16 17 16h143q6 0 10.5 -4.5t4.5 -11.5v-1157q0 -6 -4.5 -11t-10.5 -5h-143q-8 0 -12.5 5t-4.5 11z" />
<glyph unicode="&#x627;" horiz-adv-x="365" arabic-form="final" d="M86 394v927q0 16 17 16h142q7 0 12 -4.5t5 -11.5v-991h108v-175h-72q-102 0 -157 56t-55 183z" />
<glyph unicode="&#x628;" horiz-adv-x="1294" arabic-form="isolated" d="M55 394v84q0 7 5 11.5t11 4.5h143q6 0 11 -4.5t5 -11.5v-148h825v653q0 6 5 11.5t13 5.5h143q7 0 12 -5.5t5 -11.5l-1 -589q0 -127 -55 -183t-157 -56h-753q-102 0 -157 56t-55 183zM564 -175q0 21 8 39.5t21.5 32.5t32 22t38.5 8q21 0 39.5 -8t32.5 -22t22 -32.5 t8 -39.5t-8 -39.5t-22 -32.5t-32.5 -22t-39.5 -8q-20 0 -38.5 8t-32 22t-21.5 32.5t-8 39.5z" />
<glyph unicode="&#x628;" horiz-adv-x="1344" arabic-form="final" d="M45 394v84q0 7 5 11.5t11 4.5h143q7 0 12.5 -4.5t5.5 -11.5v-148h834v653q0 6 4.5 11.5t11.5 5.5h143q7 0 11.5 -5.5t4.5 -11.5v-653h118v-175h-1091q-103 0 -158 56t-55 183zM564 -175q0 21 8 39.5t21.5 32.5t32 22t38.5 8q21 0 39.5 -8t32.5 -22t22 -32.5t8 -39.5 t-8 -39.5t-22 -32.5t-32.5 -22t-39.5 -8q-20 0 -38.5 8t-32 22t-21.5 32.5t-8 39.5z" />
<glyph unicode="&#x628;" horiz-adv-x="371" arabic-form="initial" d="M-11 155v175h119v653q0 6 4.5 11.5t11.5 5.5h144q7 0 11.5 -5.5t4.5 -11.5v-589q0 -127 -55 -183t-158 -56h-82zM23 -175q0 21 8 39.5t21.5 32.5t32 22t38.5 8q21 0 39.5 -8t32.5 -22t22 -32.5t8 -39.5t-8 -39.5t-22 -32.5t-32.5 -22t-39.5 -8q-20 0 -38.5 8t-32 22 t-21.5 32.5t-8 39.5z" />
<glyph unicode="&#x628;" horiz-adv-x="401" arabic-form="medial" d="M-11 155v175h124v653q0 6 4.5 11.5t12.5 5.5h142q7 0 12.5 -5.5t5.5 -11.5v-653h116v-175h-417zM98 -175q0 21 8 39.5t21.5 32.5t32 22t38.5 8q21 0 39.5 -8t32.5 -22t22 -32.5t8 -39.5t-8 -39.5t-22 -32.5t-32.5 -22t-39.5 -8q-20 0 -38.5 8t-32 22t-21.5 32.5t-8 39.5z " />
<glyph unicode="&#x629;" horiz-adv-x="840" arabic-form="isolated" d="M75 394v369q0 127 55 183t157 56h255q103 0 158 -56t55 -183v-369q0 -127 -55 -183t-157 -56h-256q-102 0 -157 56t-55 183zM171 1342q0 21 8 39.5t21.5 32.5t32 22t38.5 8q21 0 39.5 -8t32.5 -22t22 -32.5t8 -39.5t-8 -39.5t-22 -32.5t-32.5 -22t-39.5 -8q-20 0 -38.5 8 t-32 22t-21.5 32.5t-8 39.5zM251 330h328v497h-328v-497zM447 1342q0 21 8 39.5t21.5 32.5t32 22t38.5 8q21 0 39.5 -8t32.5 -22t22 -32.5t8 -39.5t-8 -39.5t-22 -32.5t-32.5 -22t-39.5 -8q-20 0 -38.5 8t-32 22t-21.5 32.5t-8 39.5z" />
<glyph unicode="&#x629;" horiz-adv-x="865" arabic-form="final" d="M74 394v369q0 127 54.5 183t157.5 56h255q102 0 156.5 -56t55.5 -183v-433h116v-175h-583q-103 0 -157.5 56t-54.5 183zM171 1342q0 21 8 39.5t21.5 32.5t32 22t38.5 8q21 0 39.5 -8t32.5 -22t22 -32.5t8 -39.5t-8 -39.5t-22 -32.5t-32.5 -22t-39.5 -8q-20 0 -38.5 8 t-32 22t-21.5 32.5t-8 39.5zM249 330h328v497h-328v-497zM447 1342q0 21 8 39.5t21.5 32.5t32 22t38.5 8q21 0 39.5 -8t32.5 -22t22 -32.5t8 -39.5t-8 -39.5t-22 -32.5t-32.5 -22t-39.5 -8q-20 0 -38.5 8t-32 22t-21.5 32.5t-8 39.5z" />
<glyph unicode="&#x62a;" horiz-adv-x="1294" arabic-form="isolated" d="M55 394v84q0 7 5 11.5t11 4.5h143q6 0 11 -4.5t5 -11.5v-148h825v653q0 6 5 11.5t13 5.5h143q7 0 12 -5.5t5 -11.5l-1 -589q0 -127 -55 -183t-157 -56h-753q-102 0 -157 56t-55 183zM346 1043q0 21 8 39.5t21.5 32.5t32 22t38.5 8q21 0 39.5 -8t32.5 -22t22 -32.5 t8 -39.5t-8 -39.5t-22 -32.5t-32.5 -22t-39.5 -8q-20 0 -38.5 8t-32 22t-21.5 32.5t-8 39.5zM622 1043q0 21 8 39.5t21.5 32.5t32 22t38.5 8q21 0 39.5 -8t32.5 -22t22 -32.5t8 -39.5t-8 -39.5t-22 -32.5t-32.5 -22t-39.5 -8q-20 0 -38.5 8t-32 22t-21.5 32.5t-8 39.5z" />
<glyph unicode="&#x62a;" horiz-adv-x="1344" arabic-form="final" d="M45 394v84q0 7 5 11.5t11 4.5h143q7 0 12.5 -4.5t5.5 -11.5v-148h834v653q0 6 4.5 11.5t11.5 5.5h143q7 0 11.5 -5.5t4.5 -11.5v-653h118v-175h-1091q-103 0 -158 56t-55 183zM346 1043q0 21 8 39.5t21.5 32.5t32 22t38.5 8q21 0 39.5 -8t32.5 -22t22 -32.5t8 -39.5 t-8 -39.5t-22 -32.5t-32.5 -22t-39.5 -8q-20 0 -38.5 8t-32 22t-21.5 32.5t-8 39.5zM622 1043q0 21 8 39.5t21.5 32.5t32 22t38.5 8q21 0 39.5 -8t32.5 -22t22 -32.5t8 -39.5t-8 -39.5t-22 -32.5t-32.5 -22t-39.5 -8q-20 0 -38.5 8t-32 22t-21.5 32.5t-8 39.5z" />
<glyph unicode="&#x62a;" horiz-adv-x="573" arabic-form="initial" d="M-10 155v175h340v653q0 6 4.5 11.5t11.5 5.5h144q6 0 11 -5.5t5 -11.5v-589q0 -127 -55 -183t-158 -56h-303zM41 1334q0 21 8 39.5t21.5 32.5t32 22t38.5 8q21 0 39.5 -8t32.5 -22t22 -32.5t8 -39.5t-8 -39.5t-22 -32.5t-32.5 -22t-39.5 -8q-20 0 -38.5 8t-32 22 t-21.5 32.5t-8 39.5zM317 1334q0 21 8 39.5t21.5 32.5t32 22t38.5 8q21 0 39.5 -8t32.5 -22t22 -32.5t8 -39.5t-8 -39.5t-22 -32.5t-32.5 -22t-39.5 -8q-20 0 -38.5 8t-32 22t-21.5 32.5t-8 39.5z" />
<glyph unicode="&#x62a;" horiz-adv-x="563" arabic-form="medial" d="M-3 155v175h192v653q0 6 5 11.5t11 5.5h142q8 0 13 -5.5t5 -11.5v-653h202v-175h-570zM51 1334q0 21 8 39.5t21.5 32.5t32 22t38.5 8q21 0 39.5 -8t32.5 -22t22 -32.5t8 -39.5t-8 -39.5t-22 -32.5t-32.5 -22t-39.5 -8q-20 0 -38.5 8t-32 22t-21.5 32.5t-8 39.5zM327 1334 q0 21 8 39.5t21.5 32.5t32 22t38.5 8q21 0 39.5 -8t32.5 -22t22 -32.5t8 -39.5t-8 -39.5t-22 -32.5t-32.5 -22t-39.5 -8q-20 0 -38.5 8t-32 22t-21.5 32.5t-8 39.5z" />
<glyph unicode="&#x62b;" horiz-adv-x="1294" arabic-form="isolated" d="M55 394v84q0 7 5 11.5t11 4.5h143q6 0 11 -4.5t5 -11.5v-148h825v653q0 6 5 11.5t13 5.5h143q7 0 12 -5.5t5 -11.5l-1 -589q0 -127 -55 -183t-157 -56h-753q-102 0 -157 56t-55 183zM354 1081q0 21 8 39.5t21.5 32.5t32 22t38.5 8q21 0 39.5 -8t32.5 -22t22 -32.5 t8 -39.5t-8 -39.5t-22 -32.5t-32.5 -22t-39.5 -8q-20 0 -38.5 8t-32 22t-21.5 32.5t-8 39.5zM495 1318q0 21 8 39.5t21.5 32.5t32 22t38.5 8q21 0 39.5 -8t32.5 -22t22 -32.5t8 -39.5t-8 -39.5t-22 -32.5t-32.5 -22t-39.5 -8q-20 0 -38.5 8t-32 22t-21.5 32.5t-8 39.5z M630 1081q0 21 8 39.5t21.5 32.5t32 22t38.5 8q21 0 39.5 -8t32.5 -22t22 -32.5t8 -39.5t-8 -39.5t-22 -32.5t-32.5 -22t-39.5 -8q-20 0 -38.5 8t-32 22t-21.5 32.5t-8 39.5z" />
<glyph unicode="&#x62b;" horiz-adv-x="1344" arabic-form="final" d="M45 394v84q0 7 5 11.5t11 4.5h143q7 0 12.5 -4.5t5.5 -11.5v-148h834v653q0 6 4.5 11.5t11.5 5.5h143q7 0 11.5 -5.5t4.5 -11.5v-653h118v-175h-1091q-103 0 -158 56t-55 183zM354 1081q0 21 8 39.5t21.5 32.5t32 22t38.5 8q21 0 39.5 -8t32.5 -22t22 -32.5t8 -39.5 t-8 -39.5t-22 -32.5t-32.5 -22t-39.5 -8q-20 0 -38.5 8t-32 22t-21.5 32.5t-8 39.5zM495 1318q0 21 8 39.5t21.5 32.5t32 22t38.5 8q21 0 39.5 -8t32.5 -22t22 -32.5t8 -39.5t-8 -39.5t-22 -32.5t-32.5 -22t-39.5 -8q-20 0 -38.5 8t-32 22t-21.5 32.5t-8 39.5zM630 1081 q0 21 8 39.5t21.5 32.5t32 22t38.5 8q21 0 39.5 -8t32.5 -22t22 -32.5t8 -39.5t-8 -39.5t-22 -32.5t-32.5 -22t-39.5 -8q-20 0 -38.5 8t-32 22t-21.5 32.5t-8 39.5z" />
<glyph unicode="&#x62b;" horiz-adv-x="598" arabic-form="initial" d="M-12 155v175h352v653q0 6 5.5 11.5t12.5 5.5h142q8 0 13 -5.5t5 -11.5v-589q0 -127 -55.5 -183t-159.5 -56h-315zM30 1334q0 21 8 39.5t21.5 32.5t32 22t38.5 8q21 0 39.5 -8t32.5 -22t22 -32.5t8 -39.5t-8 -39.5t-22 -32.5t-32.5 -22t-39.5 -8q-20 0 -38.5 8t-32 22 t-21.5 32.5t-8 39.5zM171 1571q0 21 8 39.5t21.5 32.5t32 22t38.5 8q21 0 39.5 -8t32.5 -22t22 -32.5t8 -39.5t-8 -39.5t-22 -32.5t-32.5 -22t-39.5 -8q-20 0 -38.5 8t-32 22t-21.5 32.5t-8 39.5zM306 1334q0 21 8 39.5t21.5 32.5t32 22t38.5 8q21 0 39.5 -8t32.5 -22 t22 -32.5t8 -39.5t-8 -39.5t-22 -32.5t-32.5 -22t-39.5 -8q-20 0 -38.5 8t-32 22t-21.5 32.5t-8 39.5z" />
<glyph unicode="&#x62b;" horiz-adv-x="568" arabic-form="medial" d="M-3 155v175h203v653q0 6 4.5 11.5t12.5 5.5h142q7 0 12 -5.5t5 -11.5v-653h197v-175h-576zM45 1334q0 21 8 39.5t21.5 32.5t32 22t38.5 8q21 0 39.5 -8t32.5 -22t22 -32.5t8 -39.5t-8 -39.5t-22 -32.5t-32.5 -22t-39.5 -8q-20 0 -38.5 8t-32 22t-21.5 32.5t-8 39.5z M186 1571q0 21 8 39.5t21.5 32.5t32 22t38.5 8q21 0 39.5 -8t32.5 -22t22 -32.5t8 -39.5t-8 -39.5t-22 -32.5t-32.5 -22t-39.5 -8q-20 0 -38.5 8t-32 22t-21.5 32.5t-8 39.5zM321 1334q0 21 8 39.5t21.5 32.5t32 22t38.5 8q21 0 39.5 -8t32.5 -22t22 -32.5t8 -39.5t-8 -39.5 t-22 -32.5t-32.5 -22t-39.5 -8q-20 0 -38.5 8t-32 22t-21.5 32.5t-8 39.5z" />
<glyph unicode="&#x62c;" horiz-adv-x="931" arabic-form="isolated" d="M55 -13q0 85 30 166t90 145t149.5 103t209.5 40h160v146q-14 78 -47.5 124.5t-79.5 71.5t-101.5 32.5t-112.5 7.5q-30 0 -61 -1t-61 -1q-14 0 -14 16v144q0 9 15 13t35 6t41 2h33q109 0 199 -28.5t156.5 -83.5t107.5 -136t53 -186l3 -293q0 -10 -16 -10h-170 q-68 0 -109.5 -0.5t-67 -1t-39.5 -2t-26 -4.5h1q-40 -8 -75.5 -23t-64 -41t-49 -64.5t-29.5 -92.5v-70q13 -77 46.5 -124t80 -72t101.5 -33t112 -8q32 0 64 1t58 1q6 0 11 -5t5 -11v-144q0 -8 -15.5 -12.5t-36 -6.5t-41 -2.5t-31.5 -0.5q-102 0 -186.5 24t-150.5 67h1 q-44 31 -77.5 70.5t-56 84.5t-33.5 93.5t-11 98.5zM397 0q0 21 8 39.5t21.5 32.5t32 22t38.5 8q21 0 39.5 -8t32.5 -22t22 -32.5t8 -39.5t-8 -39.5t-22 -32.5t-32.5 -22t-39.5 -8q-20 0 -38.5 8t-32 22t-21.5 32.5t-8 39.5z" />
<glyph unicode="&#x62c;" horiz-adv-x="975" arabic-form="final" d="M61 -122q2 93 25 163t60 120t85.5 82.5t101 52t105.5 27.5t101 9h157q2 18 3.5 49t3 62.5t2.5 56.5t1 33q0 97 -27 155t-72 88.5t-102.5 39.5t-118.5 9q-38 0 -75 -2t-68 -2q-7 0 -12 4.5t-5 11.5v144q0 8 15.5 12.5t36 6.5t41.5 2h32q110 0 205 -26t165 -79t110 -133 t40 -188v-246h111v-175l-443 1q-26 0 -50.5 -1t-51.5 -7h1q-39 -8 -74.5 -23t-64.5 -41t-49.5 -64t-29.5 -92v-72q14 -77 48 -123.5t80 -71.5t101 -33t112 -8q30 0 61 1t60 1q7 0 12.5 -5t5.5 -11v-144q0 -8 -15 -12t-35.5 -6.5t-41.5 -3t-33 -0.5q-103 0 -187 24t-150 67h1 q-45 31 -78.5 70.5t-55.5 84.5t-33 93.5t-11 98.5zM397 -118q0 21 8 39.5t21.5 32.5t32 22t38.5 8q21 0 39.5 -8t32.5 -22t22 -32.5t8 -39.5t-8 -39.5t-22 -32.5t-32.5 -22t-39.5 -8q-20 0 -38.5 8t-32 22t-21.5 32.5t-8 39.5z" />
<glyph unicode="&#x62c;" horiz-adv-x="1017" arabic-form="initial" d="M-7 155v175h573v261q-9 76 -40.5 122.5t-76 71.5t-97.5 33t-105 8q-42 0 -79.5 -2.5t-62.5 -2.5q-16 0 -16 16v144l28 16q26 4 50.5 4.5t46.5 0.5q107 0 198 -24.5t158.5 -76t109.5 -132.5t51 -195l3 -244h208q7 0 12 -4.5t5 -11.5v-143q0 -7 -5 -11.5t-12 -4.5h-949z M283 -188q0 21 8 39.5t21.5 32.5t32 22t38.5 8q21 0 39.5 -8t32.5 -22t22 -32.5t8 -39.5t-8 -39.5t-22 -32.5t-32.5 -22t-39.5 -8q-20 0 -38.5 8t-32 22t-21.5 32.5t-8 39.5z" />
<glyph unicode="&#x62c;" horiz-adv-x="839" arabic-form="medial" d="M-10 155v175h573v263q-13 77 -45.5 122.5t-78 69.5t-100.5 31t-112 7q-34 0 -65.5 -1t-60.5 -1q-16 0 -16 16v144q0 6 7.5 10.5t18.5 5.5h2q29 4 51.5 4.5t45.5 0.5q103 0 189.5 -21.5t153 -71.5t111.5 -132.5t65 -205.5l1 -241h121v-175h-861zM272 -188q0 21 8 39.5 t21.5 32.5t32 22t38.5 8q21 0 39.5 -8t32.5 -22t22 -32.5t8 -39.5t-8 -39.5t-22 -32.5t-32.5 -22t-39.5 -8q-20 0 -38.5 8t-32 22t-21.5 32.5t-8 39.5z" />
<glyph unicode="&#x62d;" horiz-adv-x="931" arabic-form="isolated" d="M55 -13q0 102 28.5 182.5t87.5 138t149 91.5t214 42h160v146q-14 78 -47.5 124.5t-79.5 71.5t-101.5 32.5t-112.5 7.5q-30 0 -61 -1t-61 -1q-14 0 -14 16v144q0 9 15 13t35 6t41 2h33q109 0 199 -28.5t156.5 -83.5t107.5 -136t53 -186l3 -293q0 -10 -16 -10h-170 q-68 0 -109.5 -0.5t-67 -1t-39.5 -2t-26 -4.5h1q-40 -8 -75.5 -23t-64 -41t-49 -64.5t-29.5 -92.5v-70q13 -77 46.5 -124t80 -72t101.5 -33t112 -8q32 0 64 1t58 1q6 0 11 -5t5 -11v-144q0 -8 -15.5 -12.5t-36 -6.5t-41 -2.5t-31.5 -0.5q-102 0 -186.5 24t-150.5 67h1 q-44 31 -77.5 70.5t-56 84.5t-33.5 93.5t-11 98.5z" />
<glyph unicode="&#x62d;" horiz-adv-x="975" arabic-form="final" d="M61 -122q2 93 25 163t60 120t85.5 82.5t101 52t105.5 27.5t101 9h157q2 18 3.5 49t3 62.5t2.5 56.5t1 33q0 97 -27 155t-72 88.5t-102.5 39.5t-118.5 9q-38 0 -75 -2t-68 -2q-7 0 -12 4.5t-5 11.5v144q0 8 15.5 12.5t36 6.5t41.5 2h32q110 0 205 -26t165 -79t110 -133 t40 -188v-246h111v-175l-443 1q-26 0 -50.5 -1t-51.5 -7h1q-39 -8 -74.5 -23t-64.5 -41t-49.5 -64t-29.5 -92v-72q14 -77 48 -123.5t80 -71.5t101 -33t112 -8q30 0 61 1t60 1q7 0 12.5 -5t5.5 -11v-144q0 -8 -15 -12t-35.5 -6.5t-41.5 -3t-33 -0.5q-103 0 -187 24t-150 67h1 q-45 31 -78.5 70.5t-55.5 84.5t-33 93.5t-11 98.5z" />
<glyph unicode="&#x62d;" horiz-adv-x="1011" arabic-form="initial" d="M-13 155v175h573v261q-9 76 -40.5 122.5t-76 71.5t-97.5 33t-105 8q-42 0 -79.5 -2.5t-62.5 -2.5q-16 0 -16 16v144l28 16q26 4 50.5 4.5t46.5 0.5q107 0 198 -24.5t158.5 -76t109.5 -132.5t51 -195l3 -244h208q7 0 12 -4.5t5 -11.5v-143q0 -7 -5 -11.5t-12 -4.5h-949z " />
<glyph unicode="&#x62d;" horiz-adv-x="850" arabic-form="medial" d="M-5 155v175h573v263q-13 77 -45.5 122.5t-78 69.5t-100.5 31t-112 7q-34 0 -65.5 -1t-60.5 -1q-16 0 -16 16v144q0 6 7.5 10.5t18.5 5.5h2q29 4 51.5 4.5t45.5 0.5q103 0 189.5 -21.5t153 -71.5t111.5 -132.5t65 -205.5l1 -241h121v-175h-861z" />
<glyph unicode="&#x62e;" horiz-adv-x="931" arabic-form="isolated" d="M55 -13q0 85 30 166t90 145t149.5 103t209.5 40h160v146q-14 78 -47.5 124.5t-79.5 71.5t-101.5 32.5t-112.5 7.5q-30 0 -61 -1t-61 -1q-14 0 -14 16v144q0 9 15 13t35 6t41 2h33q109 0 199 -28.5t156.5 -83.5t107.5 -136t53 -186l3 -293q0 -10 -16 -10h-170 q-68 0 -109.5 -0.5t-67 -1t-39.5 -2t-26 -4.5h1q-40 -8 -75.5 -23t-64 -41t-49 -64.5t-29.5 -92.5v-70q13 -77 46.5 -124t80 -72t101.5 -33t112 -8q32 0 64 1t58 1q6 0 11 -5t5 -11v-144q0 -8 -15.5 -12.5t-36 -6.5t-41 -2.5t-31.5 -0.5q-102 0 -186.5 24t-150.5 67h1 q-44 31 -77.5 70.5t-56 84.5t-33.5 93.5t-11 98.5zM368 1323q0 21 8 39.5t21.5 32.5t32 22t38.5 8q21 0 39.5 -8t32.5 -22t22 -32.5t8 -39.5t-8 -39.5t-22 -32.5t-32.5 -22t-39.5 -8q-20 0 -38.5 8t-32 22t-21.5 32.5t-8 39.5z" />
<glyph unicode="&#x62e;" horiz-adv-x="982" arabic-form="final" d="M61 -122q2 93 25 163t60 120t85.5 82.5t101 52t105.5 27.5t101 9h157q2 18 3.5 49t3 62.5t2.5 56.5t1 33q0 97 -27 155t-72 88.5t-102.5 39.5t-118.5 9q-38 0 -75 -2t-68 -2q-7 0 -12 4.5t-5 11.5v144q0 8 15.5 12.5t36 6.5t41.5 2h32q110 0 205 -26t165 -79t110 -133 t40 -188v-246h111v-175l-443 1q-26 0 -50.5 -1t-51.5 -7h1q-39 -8 -74.5 -23t-64.5 -41t-49.5 -64t-29.5 -92v-72q14 -77 48 -123.5t80 -71.5t101 -33t112 -8q30 0 61 1t60 1q7 0 12.5 -5t5.5 -11v-144q0 -8 -15 -12t-35.5 -6.5t-41.5 -3t-33 -0.5q-103 0 -187 24t-150 67h1 q-45 31 -78.5 70.5t-55.5 84.5t-33 93.5t-11 98.5zM382 1293q0 21 8 39.5t21.5 32.5t32 22t38.5 8q21 0 39.5 -8t32.5 -22t22 -32.5t8 -39.5t-8 -39.5t-22 -32.5t-32.5 -22t-39.5 -8q-20 0 -38.5 8t-32 22t-21.5 32.5t-8 39.5z" />
<glyph unicode="&#x62e;" horiz-adv-x="1024" arabic-form="initial" d="M0 155v175h573v261q-9 76 -40.5 122.5t-76 71.5t-97.5 33t-105 8q-42 0 -79.5 -2.5t-62.5 -2.5q-16 0 -16 16v144l28 16q26 4 50.5 4.5t46.5 0.5q107 0 198 -24.5t158.5 -76t109.5 -132.5t51 -195l3 -244h208q7 0 12 -4.5t5 -11.5v-143q0 -7 -5 -11.5t-12 -4.5h-949z M278 1337q0 21 8 39.5t21.5 32.5t32 22t38.5 8q21 0 39.5 -8t32.5 -22t22 -32.5t8 -39.5t-8 -39.5t-22 -32.5t-32.5 -22t-39.5 -8q-20 0 -38.5 8t-32 22t-21.5 32.5t-8 39.5z" />
<glyph unicode="&#x62e;" horiz-adv-x="865" arabic-form="medial" d="M11 155v175h573v263q-13 77 -45.5 122.5t-78 69.5t-100.5 31t-112 7q-34 0 -65.5 -1t-60.5 -1q-16 0 -16 16v144q0 6 7.5 10.5t18.5 5.5h2q29 4 51.5 4.5t45.5 0.5q103 0 189.5 -21.5t153 -71.5t111.5 -132.5t65 -205.5l1 -241h121v-175h-861zM281 1337q0 21 8 39.5 t21.5 32.5t32 22t38.5 8q21 0 39.5 -8t32.5 -22t22 -32.5t8 -39.5t-8 -39.5t-22 -32.5t-32.5 -22t-39.5 -8q-20 0 -38.5 8t-32 22t-21.5 32.5t-8 39.5z" />
<glyph unicode="&#x62f;" horiz-adv-x="831" arabic-form="isolated" d="M68 171v143q0 7 5 11.5t12 4.5h497v497h-411q-7 0 -12 4.5t-5 10.5v143q0 8 5 12.5t12 4.5h374q103 0 158 -56t55 -183v-369q0 -127 -55 -183t-158 -56h-460q-7 0 -12 4.5t-5 11.5z" />
<glyph unicode="&#x62f;" horiz-adv-x="865" arabic-form="final" d="M62 171v143q0 7 5 11.5t11 4.5h498v497h-389q-6 0 -10.5 4.5t-4.5 10.5v143q0 8 4.5 12.5t10.5 4.5h353q102 0 157 -56t55 -183v-433h116v-175h-790q-6 0 -11 4.5t-5 11.5z" />
<glyph unicode="&#x630;" horiz-adv-x="831" arabic-form="isolated" d="M68 171v143q0 7 5 11.5t12 4.5h497v497h-411q-7 0 -12 4.5t-5 10.5v143q0 8 5 12.5t12 4.5h374q103 0 158 -56t55 -183v-369q0 -127 -55 -183t-158 -56h-460q-7 0 -12 4.5t-5 11.5zM270 1326q0 21 8 39.5t21.5 32.5t32 22t38.5 8q21 0 39.5 -8t32.5 -22t22 -32.5t8 -39.5 t-8 -39.5t-22 -32.5t-32.5 -22t-39.5 -8q-20 0 -38.5 8t-32 22t-21.5 32.5t-8 39.5z" />
<glyph unicode="&#x630;" horiz-adv-x="865" arabic-form="final" d="M62 171v143q0 7 5 11.5t11 4.5h498v497h-389q-6 0 -10.5 4.5t-4.5 10.5v143q0 8 4.5 12.5t10.5 4.5h353q102 0 157 -56t55 -183v-433h116v-175h-790q-6 0 -11 4.5t-5 11.5zM275 1334q0 21 8 39.5t21.5 32.5t32 22t38.5 8q21 0 39.5 -8t32.5 -22t22 -32.5t8 -39.5 t-8 -39.5t-22 -32.5t-32.5 -22t-39.5 -8q-20 0 -38.5 8t-32 22t-21.5 32.5t-8 39.5z" />
<glyph unicode="&#x631;" horiz-adv-x="624" arabic-form="isolated" d="M36 -191q0 7 4.5 12.5t11.5 5.5h40q49 3 94 15.5t82 38.5t63.5 70t38.5 110v931q0 10 12 10h163q3 0 3 -10l-4 -836q0 -107 -28.5 -193t-80.5 -149.5t-126 -104t-165 -56.5h-2q-16 -2 -30.5 -3.5t-26.5 -1.5q-5 0 -13.5 0.5t-16.5 2t-13.5 5.5t-5.5 11v142z" />
<glyph unicode="&#x631;" horiz-adv-x="636" arabic-form="final" d="M38 -191q0 7 5 12.5t12 5.5h40q49 3 94 15.5t82 38.5t64 70t39 110v924q0 17 15 17h144q16 0 16 -17l-3 -655h101v-175h-98q-13 -110 -46.5 -197t-85.5 -150t-121 -102t-152 -53q-15 -2 -29 -3.5t-28 -1.5h-12q-8 0 -16 2t-14.5 5.5t-6.5 11.5v142z" />
<glyph unicode="&#x632;" horiz-adv-x="624" arabic-form="isolated" d="M35 -191q0 7 5 12.5t12 5.5h40q49 3 94 15.5t82 38.5t63.5 70t38.5 110v931q0 10 12 10h163q2 0 2 -10l-3 -836q0 -107 -28.5 -193t-80.5 -149.5t-126 -104t-165 -56.5h-2q-16 -2 -30.5 -3.5t-26.5 -1.5q-5 0 -13.5 0.5t-16.5 2t-14 5.5t-6 11v142zM366 1334q0 21 8 39.5 t21.5 32.5t32 22t38.5 8q21 0 39.5 -8t32.5 -22t22 -32.5t8 -39.5t-8 -39.5t-22 -32.5t-32.5 -22t-39.5 -8q-20 0 -38.5 8t-32 22t-21.5 32.5t-8 39.5z" />
<glyph unicode="&#x632;" horiz-adv-x="641" arabic-form="final" d="M38 -191q0 7 5 12.5t12 5.5h40q49 3 94 15.5t82 38.5t64 70t39 110v924q0 17 15 17h144q16 0 16 -17l-3 -655h101v-175h-98q-13 -110 -46.5 -197t-85.5 -150t-121 -102t-152 -53q-15 -2 -29 -3.5t-28 -1.5h-12q-8 0 -16 2t-14.5 5.5t-6.5 11.5v142zM366 1334q0 21 8 39.5 t21.5 32.5t32 22t38.5 8q21 0 39.5 -8t32.5 -22t22 -32.5t8 -39.5t-8 -39.5t-22 -32.5t-32.5 -22t-39.5 -8q-20 0 -38.5 8t-32 22t-21.5 32.5t-8 39.5z" />
<glyph unicode="&#x633;" horiz-adv-x="2120" arabic-form="isolated" d="M29 269v70q0 22 0.5 55.5t0.5 83.5q0 17 16 17h143q7 0 12 -4.5t5 -12.5v-207q0 -49 3.5 -102t16 -103t35.5 -95t62 -78.5t96.5 -53.5t138.5 -20q108 1 174 36t101.5 89.5t47.5 120t12 128.5l-1 790q0 6 4.5 11.5t11.5 5.5h145q7 0 11 -5.5t4 -11.5v-653h330v653 q0 6 4.5 11.5t12.5 5.5h143q7 0 11.5 -5.5t4.5 -11.5v-653h328v653q0 6 5.5 11.5t11.5 5.5h143q8 0 13 -5.5t5 -11.5v-589q0 -127 -55.5 -183t-158.5 -56h-798q-5 -107 -51 -200t-119.5 -162t-168.5 -109t-199 -43q-134 7 -229 60.5t-155.5 139t-88.5 196t-28 232.5z" />
<glyph unicode="&#x633;" horiz-adv-x="2170" arabic-form="final" d="M28 269v70q0 22 0.5 55.5t0.5 83.5q0 8 5 12.5t11 4.5h143q17 0 17 -17v-207q0 -49 3.5 -102t16 -103t35.5 -95t62 -78.5t96.5 -53.5t138.5 -20q108 1 173.5 36t101.5 89.5t47.5 120t11.5 128.5v790q0 6 5 11.5t12 5.5h143q8 0 13 -5.5t5 -11.5l-1 -653h329l-1 653 q0 6 5 11.5t13 5.5h143q7 0 12 -5.5t5 -11.5v-653h329v653q0 6 4.5 11.5t11.5 5.5h143q7 0 11.5 -5.5t4.5 -11.5v-653h112v-175h-1121q-9 -111 -52.5 -205t-112.5 -163t-160 -108t-194 -39q-143 0 -242.5 51.5t-161.5 138t-90 200.5t-28 239z" />
<glyph unicode="&#x633;" horiz-adv-x="1364" arabic-form="initial" d="M-2 155v175h121v653q0 6 4 11.5t10 5.5h144q7 0 12 -5.5t5 -11.5v-653h328v653q0 6 4.5 11.5t11.5 5.5h142q8 0 13 -5.5t5 -11.5v-653h328v653q0 6 5 11.5t12 5.5h143q6 0 11.5 -5.5t5.5 -11.5v-589q0 -127 -55.5 -183t-158.5 -56h-1091z" />
<glyph unicode="&#x633;" horiz-adv-x="1414" arabic-form="medial" d="M-7 155v175h118v653q0 6 5 11.5t13 5.5h143q7 0 12.5 -5.5t5.5 -11.5v-653h327v653q0 6 4.5 11.5t11.5 5.5h143q7 0 11.5 -5.5t4.5 -11.5v-653h329v653q0 6 5 11.5t12 5.5h143q6 0 11 -5.5t5 -11.5v-653h124v-175h-1428z" />
<glyph unicode="&#x634;" horiz-adv-x="2120" arabic-form="isolated" d="M29 269v70q0 22 0.5 55.5t0.5 83.5q0 17 16 17h143q7 0 12 -4.5t5 -12.5v-207q0 -49 3.5 -102t16 -103t35.5 -95t62 -78.5t96.5 -53.5t138.5 -20q108 1 174 36t101.5 89.5t47.5 120t12 128.5l-1 790q0 6 4.5 11.5t11.5 5.5h145q7 0 11 -5.5t4 -11.5v-653h330v653 q0 6 4.5 11.5t12.5 5.5h143q7 0 11.5 -5.5t4.5 -11.5v-653h328v653q0 6 5.5 11.5t11.5 5.5h143q8 0 13 -5.5t5 -11.5v-589q0 -127 -55.5 -183t-158.5 -56h-798q-3 -126 -48.5 -221.5t-119.5 -159.5t-170 -97t-200 -36q-134 7 -229 60.5t-155.5 139t-88.5 196t-28 232.5z M1238 1334q0 21 8 39.5t21.5 32.5t32 22t38.5 8q21 0 39.5 -8t32.5 -22t22 -32.5t8 -39.5t-8 -39.5t-22 -32.5t-32.5 -22t-39.5 -8q-20 0 -38.5 8t-32 22t-21.5 32.5t-8 39.5zM1379 1571q0 21 8 39.5t21.5 32.5t32 22t38.5 8q21 0 39.5 -8t32.5 -22t22 -32.5t8 -39.5 t-8 -39.5t-22 -32.5t-32.5 -22t-39.5 -8q-20 0 -38.5 8t-32 22t-21.5 32.5t-8 39.5zM1514 1334q0 21 8 39.5t21.5 32.5t32 22t38.5 8q21 0 39.5 -8t32.5 -22t22 -32.5t8 -39.5t-8 -39.5t-22 -32.5t-32.5 -22t-39.5 -8q-20 0 -38.5 8t-32 22t-21.5 32.5t-8 39.5z" />
<glyph unicode="&#x634;" horiz-adv-x="2184" arabic-form="final" d="M28 269v70q0 22 0.5 55.5t0.5 83.5q0 8 5 12.5t11 4.5h143q17 0 17 -17v-207q0 -49 3.5 -102t16 -103t35.5 -95t62 -78.5t96.5 -53.5t138.5 -20q108 1 173.5 36t101.5 89.5t47.5 120t11.5 128.5v790q0 6 5 11.5t12 5.5h143q8 0 13 -5.5t5 -11.5l-1 -653h329l-1 653 q0 6 5 11.5t13 5.5h143q7 0 12 -5.5t5 -11.5v-653h329v653q0 6 4.5 11.5t11.5 5.5h143q7 0 11.5 -5.5t4.5 -11.5v-653h112v-175h-1121q-7 -125 -49.5 -221t-112 -161.5t-160 -99t-193.5 -33.5q-144 0 -244 51t-163 137.5t-91 200.5t-28 240zM1238 1334q0 21 8 39.5 t21.5 32.5t32 22t38.5 8q21 0 39.5 -8t32.5 -22t22 -32.5t8 -39.5t-8 -39.5t-22 -32.5t-32.5 -22t-39.5 -8q-20 0 -38.5 8t-32 22t-21.5 32.5t-8 39.5zM1379 1571q0 21 8 39.5t21.5 32.5t32 22t38.5 8q21 0 39.5 -8t32.5 -22t22 -32.5t8 -39.5t-8 -39.5t-22 -32.5t-32.5 -22 t-39.5 -8q-20 0 -38.5 8t-32 22t-21.5 32.5t-8 39.5zM1514 1334q0 21 8 39.5t21.5 32.5t32 22t38.5 8q21 0 39.5 -8t32.5 -22t22 -32.5t8 -39.5t-8 -39.5t-22 -32.5t-32.5 -22t-39.5 -8q-20 0 -38.5 8t-32 22t-21.5 32.5t-8 39.5z" />
<glyph unicode="&#x634;" horiz-adv-x="1364" arabic-form="initial" d="M-2 155v175h121v653q0 6 4 11.5t10 5.5h144q7 0 12 -5.5t5 -11.5v-653h328v653q0 6 4.5 11.5t11.5 5.5h142q8 0 13 -5.5t5 -11.5v-653h328v653q0 6 5 11.5t12 5.5h143q6 0 11.5 -5.5t5.5 -11.5v-589q0 -127 -55.5 -183t-158.5 -56h-1091zM473 1334q0 21 8 39.5t21.5 32.5 t32 22t38.5 8q21 0 39.5 -8t32.5 -22t22 -32.5t8 -39.5t-8 -39.5t-22 -32.5t-32.5 -22t-39.5 -8q-20 0 -38.5 8t-32 22t-21.5 32.5t-8 39.5zM614 1571q0 21 8 39.5t21.5 32.5t32 22t38.5 8q21 0 39.5 -8t32.5 -22t22 -32.5t8 -39.5t-8 -39.5t-22 -32.5t-32.5 -22t-39.5 -8 q-20 0 -38.5 8t-32 22t-21.5 32.5t-8 39.5zM749 1334q0 21 8 39.5t21.5 32.5t32 22t38.5 8q21 0 39.5 -8t32.5 -22t22 -32.5t8 -39.5t-8 -39.5t-22 -32.5t-32.5 -22t-39.5 -8q-20 0 -38.5 8t-32 22t-21.5 32.5t-8 39.5z" />
<glyph unicode="&#x634;" horiz-adv-x="1414" arabic-form="medial" d="M-7 155v175h118v653q0 6 5 11.5t13 5.5h143q7 0 12.5 -5.5t5.5 -11.5v-653h327v653q0 6 4.5 11.5t11.5 5.5h143q7 0 11.5 -5.5t4.5 -11.5v-653h329v653q0 6 5 11.5t12 5.5h143q6 0 11 -5.5t5 -11.5v-653h124v-175h-1428zM473 1334q0 21 8 39.5t21.5 32.5t32 22t38.5 8 q21 0 39.5 -8t32.5 -22t22 -32.5t8 -39.5t-8 -39.5t-22 -32.5t-32.5 -22t-39.5 -8q-20 0 -38.5 8t-32 22t-21.5 32.5t-8 39.5zM614 1571q0 21 8 39.5t21.5 32.5t32 22t38.5 8q21 0 39.5 -8t32.5 -22t22 -32.5t8 -39.5t-8 -39.5t-22 -32.5t-32.5 -22t-39.5 -8q-20 0 -38.5 8 t-32 22t-21.5 32.5t-8 39.5zM749 1334q0 21 8 39.5t21.5 32.5t32 22t38.5 8q21 0 39.5 -8t32.5 -22t22 -32.5t8 -39.5t-8 -39.5t-22 -32.5t-32.5 -22t-39.5 -8q-20 0 -38.5 8t-32 22t-21.5 32.5t-8 39.5z" />
<glyph unicode="&#x635;" horiz-adv-x="2099" arabic-form="isolated" d="M27 266q0 11 0.5 24.5t0.5 36.5v59v92q0 17 16 17h144q7 0 12 -4.5t5 -12.5v-206q0 -49 3.5 -102t16 -103t35.5 -95t62 -79t96.5 -54t137.5 -20q72 1 125.5 17.5t91 44t61 64t36.5 78t18 85t5 85.5v42t-0.5 72t-1 87t-1 87t-0.5 72v42q1 125 56.5 182t157.5 57h758 q101 0 156 -56t55 -183v-201q0 -127 -55 -183t-156 -56h-793q-10 -113 -57 -207.5t-120 -162.5t-166.5 -106t-195.5 -38q-130 7 -225 61t-156.5 139t-91.5 195t-30 230zM1067 330h831v329h-831v-329z" />
<glyph unicode="&#x635;" horiz-adv-x="2179" arabic-form="final" d="M28 269v70q0 22 0.5 55.5t0.5 83.5q0 8 5 12.5t11 4.5h143q17 0 17 -17v-207q0 -49 3.5 -102t16 -103t35.5 -95t62 -78.5t96.5 -53.5t138.5 -20q108 1 174 36t102 89.5t48 120t12 128.5v25q0 15 -2 25v352q0 127 55 183t157 56h758q103 0 158 -56t55 -183v-265h113v-175 h-1120q-8 -113 -54 -207t-118.5 -162.5t-167 -106.5t-197.5 -38q-133 7 -228 60.5t-156 139t-89.5 196t-28.5 232.5zM1068 330h830v329h-830v-329z" />
<glyph unicode="&#x635;" horiz-adv-x="1354" arabic-form="initial" d="M0 155v175h109v655q0 17 17 17h142q7 0 12 -4.5t5 -12.5v-151h794q103 0 158 -56t55 -183v-201q0 -127 -55 -183t-158 -56h-1079zM285 330h831v329h-831v-329z" />
<glyph unicode="&#x635;" horiz-adv-x="1389" arabic-form="medial" d="M-6 155v175h108v655q0 8 5 12.5t13 4.5h143q6 0 11.5 -4.5t5.5 -12.5v-151h792q103 0 157.5 -56t54.5 -183v-265h110v-175h-1400zM280 330h829v329h-829v-329z" />
<glyph unicode="&#x636;" horiz-adv-x="2099" arabic-form="isolated" d="M27 266q0 11 0.5 24.5t0.5 36.5v59v92q0 17 16 17h144q7 0 12 -4.5t5 -12.5v-206q0 -49 3.5 -102t16 -103t35.5 -95t62 -79t96.5 -54t137.5 -20q72 1 125.5 17.5t91 44t61 64t36.5 78t18 85t5 85.5v42t-0.5 72t-1 87t-1 87t-0.5 72v42q1 125 56.5 182t157.5 57h758 q101 0 156 -56t55 -183v-201q0 -127 -55 -183t-156 -56h-793q-10 -113 -57 -207.5t-120 -162.5t-166.5 -106t-195.5 -38q-130 7 -225 61t-156.5 139t-91.5 195t-30 230zM1067 330h831v329h-831v-329zM1357 1152q0 21 8 39.5t21.5 32.5t32 22t38.5 8q21 0 39.5 -8t32.5 -22 t22 -32.5t8 -39.5t-8 -39.5t-22 -32.5t-32.5 -22t-39.5 -8q-20 0 -38.5 8t-32 22t-21.5 32.5t-8 39.5z" />
<glyph unicode="&#x636;" horiz-adv-x="2184" arabic-form="final" d="M28 269v70q0 22 0.5 55.5t0.5 83.5q0 8 5 12.5t11 4.5h143q17 0 17 -17v-207q0 -49 3.5 -102t16 -103t35.5 -95t62 -78.5t96.5 -53.5t138.5 -20q108 1 174 36t102 89.5t48 120t12 128.5v25q0 15 -2 25v352q0 127 55 183t157 56h758q103 0 158 -56t55 -183v-265h113v-175 h-1120q-8 -113 -54 -207t-118.5 -162.5t-167 -106.5t-197.5 -38q-133 7 -228 60.5t-156 139t-89.5 196t-28.5 232.5zM1068 330h830v329h-830v-329zM1357 1152q0 21 8 39.5t21.5 32.5t32 22t38.5 8q21 0 39.5 -8t32.5 -22t22 -32.5t8 -39.5t-8 -39.5t-22 -32.5t-32.5 -22 t-39.5 -8q-20 0 -38.5 8t-32 22t-21.5 32.5t-8 39.5z" />
<glyph unicode="&#x636;" horiz-adv-x="1354" arabic-form="initial" d="M0 155v175h109v655q0 17 17 17h142q7 0 12 -4.5t5 -12.5v-151h794q103 0 158 -56t55 -183v-201q0 -127 -55 -183t-158 -56h-1079zM285 330h831v329h-831v-329zM575 1152q0 21 8 39.5t21.5 32.5t32 22t38.5 8q21 0 39.5 -8t32.5 -22t22 -32.5t8 -39.5t-8 -39.5t-22 -32.5 t-32.5 -22t-39.5 -8q-20 0 -38.5 8t-32 22t-21.5 32.5t-8 39.5z" />
<glyph unicode="&#x636;" horiz-adv-x="1389" arabic-form="medial" d="M-6 155v175h108v655q0 8 5 12.5t13 4.5h143q6 0 11.5 -4.5t5.5 -12.5v-151h792q103 0 157.5 -56t54.5 -183v-265h110v-175h-1400zM280 330h829v329h-829v-329zM575 1152q0 21 8 39.5t21.5 32.5t32 22t38.5 8q21 0 39.5 -8t32.5 -22t22 -32.5t8 -39.5t-8 -39.5t-22 -32.5 t-32.5 -22t-39.5 -8q-20 0 -38.5 8t-32 22t-21.5 32.5t-8 39.5z" />
<glyph unicode="&#x637;" horiz-adv-x="1490" arabic-form="isolated" d="M48 171v143q0 7 5 11.5t11 4.5h189v991q0 16 15 16h143q7 0 12 -4.5t5 -11.5v-487h793q103 0 158 -56t55 -183v-201q0 -127 -54.5 -183t-158.5 -56h-1157q-6 0 -11 4.5t-5 11.5zM428 330h830v329h-830v-329z" />
<glyph unicode="&#x637;" horiz-adv-x="1530" arabic-form="final" d="M44 171v143q0 7 4.5 11.5t10.5 4.5h187v991q0 7 5.5 11.5t12.5 4.5h142q7 0 12 -4.5t5 -11.5v-487h794q102 0 157 -56t55 -183v-265h107v-175h-1477q-6 0 -10.5 4.5t-4.5 11.5zM423 330h831v329h-831v-329z" />
<glyph unicode="&#x637;" horiz-adv-x="1355" arabic-form="initial" d="M0 155v175h108v991q0 7 5 11.5t13 4.5h140q19 0 19 -16v-487h792q103 0 158 -56t55 -183v-201q0 -127 -54 -183t-157 -56h-1079zM283 330h831v329h-831v-329z" />
<glyph unicode="&#x637;" horiz-adv-x="1394" arabic-form="medial" d="M-4 155v175h113v991q0 16 16 16h144q16 0 16 -16v-487h794q103 0 157.5 -56t54.5 -183v-265h108v-175h-1403zM285 330h830v329h-830v-329z" />
<glyph unicode="&#x638;" horiz-adv-x="1490" arabic-form="isolated" d="M48 171v143q0 7 5 11.5t11 4.5h189v991q0 16 15 16h143q7 0 12 -4.5t5 -11.5v-487h793q103 0 158 -56t55 -183v-201q0 -127 -54.5 -183t-158.5 -56h-1157q-6 0 -11 4.5t-5 11.5zM428 330h830v329h-830v-329zM743 1152q0 21 8 39.5t21.5 32.5t32 22t38.5 8q21 0 39.5 -8 t32.5 -22t22 -32.5t8 -39.5t-8 -39.5t-22 -32.5t-32.5 -22t-39.5 -8q-20 0 -38.5 8t-32 22t-21.5 32.5t-8 39.5z" />
<glyph unicode="&#x638;" horiz-adv-x="1530" arabic-form="final" d="M44 171v143q0 7 4.5 11.5t10.5 4.5h187v991q0 7 5.5 11.5t12.5 4.5h142q7 0 12 -4.5t5 -11.5v-487h794q103 0 157 -55.5t55 -183.5v-265h107v-175h-1477q-6 0 -10.5 4.5t-4.5 11.5zM423 330h831v329h-831v-329zM743 1152q0 21 8 39.5t21.5 32.5t32 22t38.5 8 q21 0 39.5 -8t32.5 -22t22 -32.5t8 -39.5t-8 -39.5t-22 -32.5t-32.5 -22t-39.5 -8q-20 0 -38.5 8t-32 22t-21.5 32.5t-8 39.5z" />
<glyph unicode="&#x638;" horiz-adv-x="1355" arabic-form="initial" d="M0 155v175h108v991q0 7 5 11.5t13 4.5h140q19 0 19 -16v-487h792q103 0 158 -56t55 -183v-201q0 -127 -54 -183t-157 -56h-1079zM283 330h831v329h-831v-329zM611 1152q0 21 8 39.5t21.5 32.5t32 22t38.5 8q21 0 39.5 -8t32.5 -22t22 -32.5t8 -39.5t-8 -39.5t-22 -32.5 t-32.5 -22t-39.5 -8q-20 0 -38.5 8t-32 22t-21.5 32.5t-8 39.5z" />
<glyph unicode="&#x638;" horiz-adv-x="1394" arabic-form="medial" d="M-4 155v175h113v991q0 16 16 16h144q16 0 16 -16v-487h794q103 0 157.5 -56t54.5 -183v-265h108v-175h-1403zM285 330h830v329h-830v-329zM611 1152q0 21 8 39.5t21.5 32.5t32 22t38.5 8q21 0 39.5 -8t32.5 -22t22 -32.5t8 -39.5t-8 -39.5t-22 -32.5t-32.5 -22t-39.5 -8 q-20 0 -38.5 8t-32 22t-21.5 32.5t-8 39.5z" />
<glyph unicode="&#x639;" horiz-adv-x="977" arabic-form="isolated" d="M62 -33q-1 28 3 66.5t16 81t33.5 86.5t56 84.5t83.5 73.5t116 54l-156 301q-29 56 -30.5 108t24.5 92t79 64t131 24h462q6 0 11 -4.5t5 -12.5v-143q0 -6 -5 -10.5t-11 -4.5h-515l190 -387q2 0 4.5 0.5t5.5 0.5h314q7 0 11.5 -5t4.5 -11v-143q0 -16 -16 -16l-312 -1 q-24 0 -50 -1t-53 -7h1q-39 -9 -73.5 -24.5t-63 -42t-49 -66t-30.5 -95.5v-63q13 -77 46 -124t79 -72t101 -33t112 -8q32 0 65 1t58 1q7 0 12 -5t5 -11v-144q0 -8 -20 -13.5t-48 -9.5t-57.5 -6t-47.5 -2q-107 0 -197 34t-155 92t-102 136t-38 165z" />
<glyph unicode="&#x639;" horiz-adv-x="996" arabic-form="final" d="M55 15q9 56 30.5 111t56 106t80.5 96t103 81q-34 77 -60.5 134.5t-46.5 99.5t-34 72.5t-22.5 55t-12.5 45.5t-4 45q6 46 31.5 74t60 43t75 19.5t76.5 4.5h295q36 0 70.5 -5t64 -17.5t51 -35t32.5 -58.5q8 -26 14 -50t1 -50q-10 -66 -35.5 -121.5t-60 -101.5t-74.5 -82.5 t-80 -65t-76.5 -49.5t-63.5 -36h474v-175h-486q-2 0 -3 -0.5t-3 -0.5q-15 0 -30.5 10t-30 25t-27.5 33.5t-23 36.5q-89 -66 -132.5 -138t-43.5 -155q14 -77 47.5 -124t79.5 -72t101 -33t112 -8q32 0 63.5 1t57.5 1q7 0 11.5 -5t4.5 -11v-144q0 -8 -15.5 -12t-36 -6.5 t-41.5 -3t-31 -0.5q-105 0 -196 23t-160 74.5t-111.5 134t-51.5 200.5v34zM325 827l139 -353q63 40 117.5 79t93 81.5t59 89.5t16.5 103h-425z" />
<glyph unicode="&#x639;" horiz-adv-x="870" arabic-form="initial" d="M-7 155v175h116v433q0 127 55.5 183t156.5 56h399q6 0 11 -4.5t5 -12.5v-143q0 -6 -5 -10.5t-11 -4.5h-435v-497h498q6 0 11 -4.5t5 -11.5v-143q0 -7 -5 -11.5t-11 -4.5h-790z" />
<glyph unicode="&#x639;" horiz-adv-x="1047" arabic-form="medial" d="M0 155v175h303q-47 115 -83 200t-60.5 148t-37 107.5t-12.5 78.5q0 8 0.5 17.5t1.5 18.5v-3q6 33 27 53.5t51.5 32t67 15.5t72.5 4h389q43 0 82.5 -5.5t70 -20.5t48.5 -42.5t18 -72.5q0 -51 -17.5 -100t-37.5 -100l-135 -331h299v-175h-1047zM282 827l242 -565l266 565 h-508z" />
<glyph unicode="&#x63a;" horiz-adv-x="977" arabic-form="isolated" d="M62 -33q-1 28 3 66.5t16 81t33.5 86.5t56 84.5t83.5 73.5t116 54l-156 301q-29 56 -30.5 108t24.5 92t79 64t131 24h462q6 0 11 -4.5t5 -12.5v-143q0 -6 -5 -10.5t-11 -4.5h-515l190 -387q2 0 4.5 0.5t5.5 0.5h314q7 0 11.5 -5t4.5 -11v-143q0 -16 -16 -16l-312 -1 q-24 0 -50 -1t-53 -7h1q-39 -9 -73.5 -24.5t-63 -42t-49 -66t-30.5 -95.5v-63q13 -77 46 -124t79 -72t101 -33t112 -8q32 0 65 1t58 1q7 0 12 -5t5 -11v-144q0 -8 -20 -13.5t-48 -9.5t-57.5 -6t-47.5 -2q-107 0 -197 34t-155 92t-102 136t-38 165zM470 1334q0 21 8 39.5 t21.5 32.5t32 22t38.5 8q21 0 39.5 -8t32.5 -22t22 -32.5t8 -39.5t-8 -39.5t-22 -32.5t-32.5 -22t-39.5 -8q-20 0 -38.5 8t-32 22t-21.5 32.5t-8 39.5z" />
<glyph unicode="&#x63a;" horiz-adv-x="996" arabic-form="final" d="M55 15q9 56 30.5 111t56 106t80.5 96t103 81q-34 77 -60.5 134.5t-46.5 99.5t-34 72.5t-22.5 55t-12.5 45.5t-4 45q6 46 31.5 74t60 43t75 19.5t76.5 4.5h295q36 0 70.5 -5t64 -17.5t51 -35t32.5 -58.5q8 -26 14 -50t1 -50q-10 -66 -35.5 -121.5t-60 -101.5t-74.5 -82.5 t-80 -65t-76.5 -49.5t-63.5 -36h474v-175h-486q-2 0 -3 -0.5t-3 -0.5q-15 0 -30.5 10t-30 25t-27.5 33.5t-23 36.5q-89 -66 -132.5 -138t-43.5 -155q14 -77 47.5 -124t79.5 -72t101 -33t112 -8q32 0 63.5 1t57.5 1q7 0 11.5 -5t4.5 -11v-144q0 -8 -15.5 -12t-36 -6.5 t-41.5 -3t-31 -0.5q-105 0 -196 23t-160 74.5t-111.5 134t-51.5 200.5v34zM325 827l139 -353q63 40 117.5 79t93 81.5t59 89.5t16.5 103h-425zM413 1334q0 21 8 39.5t21.5 32.5t32 22t38.5 8q21 0 39.5 -8t32.5 -22t22 -32.5t8 -39.5t-8 -39.5t-22 -32.5t-32.5 -22t-39.5 -8 q-20 0 -38.5 8t-32 22t-21.5 32.5t-8 39.5z" />
<glyph unicode="&#x63a;" horiz-adv-x="870" arabic-form="initial" d="M-7 155v175h116v433q0 127 55.5 183t156.5 56h399q6 0 11 -4.5t5 -12.5v-143q0 -6 -5 -10.5t-11 -4.5h-435v-497h498q6 0 11 -4.5t5 -11.5v-143q0 -7 -5 -11.5t-11 -4.5h-790zM345 1334q0 21 8 39.5t21.5 32.5t32 22t38.5 8q21 0 39.5 -8t32.5 -22t22 -32.5t8 -39.5 t-8 -39.5t-22 -32.5t-32.5 -22t-39.5 -8q-20 0 -38.5 8t-32 22t-21.5 32.5t-8 39.5z" />
<glyph unicode="&#x63a;" horiz-adv-x="1047" arabic-form="medial" d="M0 155v175h303q-47 115 -83 200t-60.5 148t-37 107.5t-12.5 78.5q0 8 0.5 17.5t1.5 18.5v-3q6 33 27 53.5t51.5 32t67 15.5t72.5 4h389q43 0 82.5 -5.5t70 -20.5t48.5 -42.5t18 -72.5q0 -51 -17.5 -100t-37.5 -100l-135 -331h299v-175h-1047zM282 827l242 -565l266 565 h-508zM408 1334q0 21 8 39.5t21.5 32.5t32 22t38.5 8q21 0 39.5 -8t32.5 -22t22 -32.5t8 -39.5t-8 -39.5t-22 -32.5t-32.5 -22t-39.5 -8q-20 0 -38.5 8t-32 22t-21.5 32.5t-8 39.5z" />
<glyph unicode="&#x641;" horiz-adv-x="1284" arabic-form="isolated" d="M50 394v84q0 7 5 11.5t11 4.5h143q8 0 13 -4.5t5 -11.5v-148h321v433q0 127 54 183t157 56h254q103 0 158 -56t55 -183v-369q0 -127 -54.5 -183t-157.5 -56h-751q-103 0 -158 56t-55 183zM722 330h328v497h-328v-497zM768 1334q0 21 8 39.5t21.5 32.5t32 22t38.5 8 q21 0 39.5 -8t32.5 -22t22 -32.5t8 -39.5t-8 -39.5t-22 -32.5t-32.5 -22t-39.5 -8q-20 0 -38.5 8t-32 22t-21.5 32.5t-8 39.5z" />
<glyph unicode="&#x641;" horiz-adv-x="1404" arabic-form="final" d="M66 394v84q0 7 5 11.5t11 4.5h143q7 0 12.5 -4.5t5.5 -11.5v-148h376v433q0 127 55 183t157 56h255q102 0 156.5 -56t54.5 -183v-433h111v-175h-1129q-103 0 -158 56t-55 183zM795 330h328v497h-328v-497zM836 1334q0 21 8 39.5t21.5 32.5t32 22t38.5 8q21 0 39.5 -8 t32.5 -22t22 -32.5t8 -39.5t-8 -39.5t-22 -32.5t-32.5 -22t-39.5 -8q-20 0 -38.5 8t-32 22t-21.5 32.5t-8 39.5z" />
<glyph unicode="&#x641;" horiz-adv-x="860" arabic-form="initial" d="M-3 155v175h109v433q0 127 55 183t157 56h255q103 0 157.5 -56t54.5 -183v-369q0 -127 -54.5 -183t-156.5 -56h-577zM282 330h328v497h-328v-497zM350 1334q0 21 8 39.5t21.5 32.5t32 22t38.5 8q21 0 39.5 -8t32.5 -22t22 -32.5t8 -39.5t-8 -39.5t-22 -32.5t-32.5 -22 t-39.5 -8q-20 0 -38.5 8t-32 22t-21.5 32.5t-8 39.5z" />
<glyph unicode="&#x641;" arabic-form="medial" d="M-6 155v175h110v433q0 127 55 183t157 56h255q103 0 158 -56t55 -183v-433h111v-175h-901zM279 330h329v497h-329v-497zM350 1334q0 21 8 39.5t21.5 32.5t32 22t38.5 8q21 0 39.5 -8t32.5 -22t22 -32.5t8 -39.5t-8 -39.5t-22 -32.5t-32.5 -22t-39.5 -8q-20 0 -38.5 8 t-32 22t-21.5 32.5t-8 39.5z" />
<glyph unicode="&#x642;" horiz-adv-x="1311" arabic-form="isolated" d="M83 269v209q0 17 16 17h144q5 0 9 -5t6 -13v-206q0 -49 8.5 -102t28 -103t51 -95t77 -78.5t106.5 -53.5t140 -20q89 1 159.5 27.5t121 71.5t80 106t36.5 131h-293q-101 0 -156 56t-55 183v369q0 127 55 183t156 56h256q103 0 157.5 -56t54.5 -183v-599q-4 -88 -30 -160.5 t-69 -130t-99.5 -100.5t-122 -71.5t-136.5 -43.5t-143 -17q-135 7 -239 60.5t-175 139t-107.5 196t-36.5 232.5zM650 1334q0 21 8 39.5t21.5 32.5t32 22t38.5 8q21 0 39.5 -8t32.5 -22t22 -32.5t8 -39.5t-8 -39.5t-22 -32.5t-32.5 -22t-39.5 -8q-20 0 -38.5 8t-32 22 t-21.5 32.5t-8 39.5zM738 330h326v497h-326v-497zM926 1334q0 21 8 39.5t21.5 32.5t32 22t38.5 8q21 0 39.5 -8t32.5 -22t22 -32.5t8 -39.5t-8 -39.5t-22 -32.5t-32.5 -22t-39.5 -8q-20 0 -38.5 8t-32 22t-21.5 32.5t-8 39.5z" />
<glyph unicode="&#x642;" horiz-adv-x="1387" arabic-form="final" d="M79 269v209q0 17 16 17h144q5 0 9.5 -5t6.5 -13v-206q0 -49 8.5 -102t28 -103t50.5 -95t77 -78.5t107 -53.5t140 -20q88 1 156 24.5t116.5 67t79 105t44.5 139.5h-292q-102 0 -157 56t-55 183v369q0 127 55 183t157 56h255q103 0 158 -56t55 -183v-433h151v-175h-150 q-6 -91 -34 -164t-71.5 -129.5t-101 -97.5t-122 -68t-134.5 -40.5t-139 -14.5q-135 7 -239 60.5t-175 139t-107.5 196t-36.5 232.5zM650 1334q0 21 8 39.5t21.5 32.5t32 22t38.5 8q21 0 39.5 -8t32.5 -22t22 -32.5t8 -39.5t-8 -39.5t-22 -32.5t-32.5 -22t-39.5 -8 q-20 0 -38.5 8t-32 22t-21.5 32.5t-8 39.5zM734 330h326v497h-326v-497zM926 1334q0 21 8 39.5t21.5 32.5t32 22t38.5 8q21 0 39.5 -8t32.5 -22t22 -32.5t8 -39.5t-8 -39.5t-22 -32.5t-32.5 -22t-39.5 -8q-20 0 -38.5 8t-32 22t-21.5 32.5t-8 39.5z" />
<glyph unicode="&#x642;" horiz-adv-x="865" arabic-form="initial" d="M-3 155v175h109v433q0 127 55 183t157 56h255q103 0 157.5 -56t54.5 -183v-369q0 -127 -54.5 -183t-156.5 -56h-577zM205 1334q0 21 8 39.5t21.5 32.5t32 22t38.5 8q21 0 39.5 -8t32.5 -22t22 -32.5t8 -39.5t-8 -39.5t-22 -32.5t-32.5 -22t-39.5 -8q-20 0 -38.5 8t-32 22 t-21.5 32.5t-8 39.5zM282 330h328v497h-328v-497zM481 1334q0 21 8 39.5t21.5 32.5t32 22t38.5 8q21 0 39.5 -8t32.5 -22t22 -32.5t8 -39.5t-8 -39.5t-22 -32.5t-32.5 -22t-39.5 -8q-20 0 -38.5 8t-32 22t-21.5 32.5t-8 39.5z" />
<glyph unicode="&#x642;" horiz-adv-x="892" arabic-form="medial" d="M-5 155v175h110v433q0 127 55 183t157 56h255q103 0 158 -56t55 -183v-433h112v-175h-902zM211 1334q0 21 8 39.5t21.5 32.5t32 22t38.5 8q21 0 39.5 -8t32.5 -22t22 -32.5t8 -39.5t-8 -39.5t-22 -32.5t-32.5 -22t-39.5 -8q-20 0 -38.5 8t-32 22t-21.5 32.5t-8 39.5z M280 330h329v497h-329v-497zM487 1334q0 21 8 39.5t21.5 32.5t32 22t38.5 8q21 0 39.5 -8t32.5 -22t22 -32.5t8 -39.5t-8 -39.5t-22 -32.5t-32.5 -22t-39.5 -8q-20 0 -38.5 8t-32 22t-21.5 32.5t-8 39.5z" />
<glyph unicode="&#x643;" horiz-adv-x="1294" arabic-form="isolated" d="M55 394v84q0 7 5 11.5t11 4.5h143q6 0 11 -4.5t5 -11.5v-148h825v1005q0 6 5 11.5t13 5.5h143q7 0 12 -5.5t5 -11.5l-1 -941q0 -127 -55 -183t-157 -56h-753q-102 0 -157 56t-55 183zM382 708v67q0 9 7.5 17t17.5 8h57v156q0 71 31 102t87 31h181q9 0 15 -7.5t6 -16.5 v-71q0 -9 -6 -16t-15 -7h-182v-171h182q9 0 15 -8t6 -17v-67q0 -11 -6 -18t-15 -7h-356q-10 0 -17.5 7t-7.5 18z" />
<glyph unicode="&#x643;" horiz-adv-x="1435" arabic-form="final" d="M56 171v143q0 7 4.5 11.5t10.5 4.5h1080v329h-985q-8 0 -12.5 5t-4.5 11v231q16 95 60 174.5t111 136.5t154 89t191 32q11 0 32.5 -0.5t42.5 -2.5t37 -6.5t16 -13.5v-143q0 -6 -5 -11t-13 -5q-31 0 -62 1.5t-61 1.5q-55 0 -111 -11t-103 -45.5t-79.5 -98.5t-40.5 -170 h796q103 0 158 -56t55 -183v-265h113v-175h-1369q-6 0 -10.5 4.5t-4.5 11.5z" />
<glyph unicode="&#x643;" horiz-adv-x="1339" arabic-form="initial" d="M1 155v175h1098v329h-986q-7 0 -11.5 5t-4.5 11v231q16 95 60.5 174.5t111 136.5t154 89t190.5 32q12 0 33.5 -0.5t42.5 -2.5t36.5 -6.5t15.5 -13.5v-143q0 -6 -4.5 -11t-12.5 -5q-29 0 -61 1.5t-62 1.5q-37 0 -76 -3.5t-76 -15t-70.5 -33t-58.5 -57.5t-39.5 -89 t-14.5 -127h796q103 0 157.5 -56t54.5 -183l-1 -424q0 -16 -17 -16h-1255z" />
<glyph unicode="&#x643;" horiz-adv-x="1380" arabic-form="medial" d="M-7 155v175h1103v329h-985q-8 0 -13.5 5t-5.5 11v119q0 28 0.5 56t0.5 57q15 97 59 177t111 136t155 87t192 31q12 0 33.5 -0.5t42 -2.5t36 -6.5t15.5 -13.5v-143q0 -6 -5 -11t-11 -5q-29 0 -61 1.5t-62 1.5q-36 0 -75.5 -4.5t-77.5 -16.5t-72.5 -33.5t-61 -54.5 t-42 -79.5t-15.5 -109.5v-14q0 -6 1 -13h804q103 0 157.5 -56t54.5 -183v-265h114v-175h-1392z" />
<glyph unicode="&#x644;" horiz-adv-x="1182" arabic-form="isolated" d="M64 250v228q0 8 4.5 12.5t10.5 4.5h142q8 0 13 -5t5 -13v-205q0 -49 4 -102t16.5 -103t36 -95t62.5 -79t96 -54t137 -20q108 1 174 36t102 89.5t48 120t12 128.5v25q0 15 -1 25v1078q0 16 17 16h143q16 0 16 -16v-1172q0 -124 -42.5 -218.5t-114.5 -159t-166.5 -97.5 t-198.5 -33q-143 0 -241.5 48.5t-159.5 132t-88 194t-27 234.5z" />
<glyph unicode="&#x644;" horiz-adv-x="1219" arabic-form="final" d="M57 269v32q0 13 0.5 28.5t1 36.5t1 48.5t0.5 63.5q0 17 15 17h143q7 0 12 -4.5t5 -12.5v-207q0 -49 3.5 -102t16 -103t35.5 -95t62 -78.5t96.5 -53.5t138.5 -20q108 1 174 36t101.5 89.5t47.5 120t12 128.5v1128q0 16 16 16h144q6 0 11 -4.5t5 -11.5l-3 -991h119v-175 h-112q-6 -94 -30.5 -168t-63 -130.5t-89.5 -96.5t-109 -66t-122 -39t-128 -14q-134 7 -229 60.5t-156 139t-89.5 196t-28.5 232.5z" />
<glyph unicode="&#x644;" horiz-adv-x="377" arabic-form="initial" d="M-5 155v175h108v991q0 7 5 11.5t12 4.5h143q15 0 15 -16v-927q0 -127 -55 -183t-156 -56h-72z" />
<glyph unicode="&#x644;" horiz-adv-x="381" arabic-form="medial" d="M-7 155v175h109v991q0 16 17 16h143q6 0 11 -4.5t5 -11.5v-991h107v-175h-392z" />
<glyph unicode="&#x645;" horiz-adv-x="1158" arabic-form="isolated" d="M58 -97q0 60 18.5 122.5t60.5 119.5t109.5 105t165.5 78v435q0 127 55 183t157 56h255q101 0 156.5 -56t55.5 -183v-369q0 -127 -54.5 -183t-157.5 -56h-268q-8 1 -22 1h-22q-335 0 -335 -334v-21t1 -22v-139q0 -6 -4.5 -10t-10.5 -4h-143q-16 0 -16 14v217q-1 5 -1 9v9 v28zM588 330h328v497h-328v-497z" />
<glyph unicode="&#x645;" horiz-adv-x="1213" arabic-form="final" d="M57 -99q0 60 18.5 124t60.5 122.5t109.5 107.5t165.5 79v429q0 127 55 183t156 56h256q103 0 157 -56t54 -183v-433h122v-175h-600q-8 1 -22 1h-22q-168 0 -252 -83.5t-84 -251.5v-19q0 -11 2 -22v-140q0 -6 -5 -10t-11 -4h-143q-17 0 -17 14v261zM587 330h328v497h-328 v-497z" />
<glyph unicode="&#x645;" horiz-adv-x="860" arabic-form="initial" d="M-3 155v175h109v433q0 127 55 183t157 56h255q103 0 157.5 -56t54.5 -183v-369q0 -127 -54.5 -183t-156.5 -56h-577zM282 330h328v497h-328v-497z" />
<glyph unicode="&#x645;" arabic-form="medial" d="M-6 155v175h110v433q0 127 55 183t157 56h255q103 0 158 -56t55 -183v-433h111v-175h-901zM279 330h329v497h-329v-497z" />
<glyph unicode="&#x646;" horiz-adv-x="1178" arabic-form="isolated" d="M66 269v209q0 17 15 17h144q6 0 10 -5t6 -13v-206q0 -49 4 -102t16.5 -103t35.5 -95t62.5 -78.5t96.5 -53.5t137 -20q108 1 174 36t102 89.5t48 120t12 128.5v25q0 15 -1 25v740q0 6 5 11.5t12 5.5h143q8 0 12 -5.5t4 -11.5l-2 -820q-7 -145 -52.5 -244t-118 -159.5 t-167 -88t-199.5 -30.5q-134 7 -228.5 60.5t-154.5 139t-88 196t-28 232.5zM434 1074q0 21 8 39.5t21.5 32.5t32 22t38.5 8q21 0 39.5 -8t32.5 -22t22 -32.5t8 -39.5t-8 -39.5t-22 -32.5t-32.5 -22t-39.5 -8q-20 0 -38.5 8t-32 22t-21.5 32.5t-8 39.5z" />
<glyph unicode="&#x646;" horiz-adv-x="1208" arabic-form="final" d="M57 269v209q0 8 5 12.5t13 4.5h142q6 0 11.5 -4.5t5.5 -12.5v-207q0 -49 3.5 -102t16 -103t35.5 -95t62 -78.5t96.5 -53.5t138.5 -20q108 1 174 36t102 89.5t48 120t12 128.5v25q0 15 -1 25v740q0 6 4.5 11.5t10.5 5.5h144q6 0 11 -5.5t5 -11.5v-653h109v-175h-104 q-16 -148 -66.5 -246t-124 -157t-164.5 -84t-187 -27q-134 7 -229 60.5t-155.5 139t-89 196t-28.5 232.5zM434 1074q0 21 8 39.5t21.5 32.5t32 22t38.5 8q21 0 39.5 -8t32.5 -22t22 -32.5t8 -39.5t-8 -39.5t-22 -32.5t-32.5 -22t-39.5 -8q-20 0 -38.5 8t-32 22t-21.5 32.5 t-8 39.5z" />
<glyph unicode="&#x646;" horiz-adv-x="392" arabic-form="initial" d="M-3 155v175h119v653q0 6 4.5 11.5t11.5 5.5h143q8 0 12.5 -5.5t4.5 -11.5v-589q0 -127 -55 -183t-158 -56h-82zM104 1321q0 21 8 39.5t21.5 32.5t32 22t38.5 8q21 0 39.5 -8t32.5 -22t22 -32.5t8 -39.5t-8 -39.5t-22 -32.5t-32.5 -22t-39.5 -8q-20 0 -38.5 8t-32 22 t-21.5 32.5t-8 39.5z" />
<glyph unicode="&#x646;" horiz-adv-x="407" arabic-form="medial" d="M-6 155v175h124v653q0 6 4.5 11.5t12.5 5.5h142q7 0 12.5 -5.5t5.5 -11.5v-653h116v-175h-417zM109 1321q0 21 8 39.5t21.5 32.5t32 22t38.5 8q21 0 39.5 -8t32.5 -22t22 -32.5t8 -39.5t-8 -39.5t-22 -32.5t-32.5 -22t-39.5 -8q-20 0 -38.5 8t-32 22t-21.5 32.5t-8 39.5z " />
<glyph unicode="&#x647;" horiz-adv-x="840" arabic-form="isolated" d="M75 394v369q0 127 55 183t157 56h255q103 0 158 -56t55 -183v-369q0 -127 -55 -183t-157 -56h-256q-102 0 -157 56t-55 183zM251 330h328v497h-328v-497z" />
<glyph unicode="&#x647;" horiz-adv-x="860" arabic-form="final" d="M70 394v369q0 127 54.5 183t157.5 56h254q102 0 157.5 -56t55.5 -183v-433h115v-175h-582q-103 0 -157.5 56t-54.5 183zM245 330h327v497h-327v-497z" />
<glyph unicode="&#x647;" horiz-adv-x="1354" arabic-form="initial" d="M0 155v175h110v433q0 127 54 183t157 56h759q102 0 157 -56t55 -183v-369q0 -127 -55 -183t-157 -56h-1080zM285 330h327v497h-327v-497zM788 330h329v497h-329v-497z" />
<glyph unicode="&#x647;" horiz-adv-x="1394" arabic-form="medial" d="M-2 155v175h110v433q0 127 54.5 183t157.5 56h758q101 0 155.5 -56t55.5 -183l1 -433h108v-175h-1400zM283 330h327v497h-327v-497zM786 330h328v497h-328v-497z" />
<glyph unicode="&#x648;" horiz-adv-x="846" arabic-form="isolated" d="M82 394v369q0 127 54.5 183t157.5 56h255q103 0 157.5 -56t54.5 -183q0 -76 -1 -152t-1 -152v-303q0 -123 -37 -218.5t-105 -160.5t-164.5 -98.5t-216.5 -33.5l-104 5q-9 2 -15.5 6t-6.5 11v142q0 7 4.5 12.5t12.5 5.5q22 0 55 -2t65 -2q57 0 113 11t104 46t84.5 100.5 t55.5 174.5h-310q-103 0 -157.5 56t-54.5 183zM257 330h328v497h-328v-497z" />
<glyph unicode="&#x648;" horiz-adv-x="876" arabic-form="final" d="M87 394v369q0 127 54.5 183t157.5 56h255q103 0 157 -56t54 -183v-433h116v-175h-112q-14 -125 -57.5 -220t-112 -159.5t-160 -97.5t-200.5 -33l-102 5q-8 2 -15.5 6.5t-7.5 10.5v142q0 7 5 12.5t13 5.5q24 0 57.5 -2t64.5 -2q57 0 112.5 11t103.5 46t84.5 100.5 t54.5 174.5h-310q-103 0 -157.5 56t-54.5 183zM262 330h327v497h-327v-497z" />
<glyph unicode="&#x649;" horiz-adv-x="1158" arabic-form="isolated" d="M60 267v211q0 8 5 12.5t13 4.5h143q7 0 12.5 -4.5t5.5 -12.5v-206q0 -8 -0.5 -16t-0.5 -16q0 -71 12 -143t49 -131.5t105 -99.5t180 -47h11q53 0 106.5 23t99.5 66t80 105.5t49 141.5h-103t-82 5t-62 18t-43 39.5t-25 69.5t-8 107v369q0 127 53.5 183t157.5 56h239 q6 0 10 -5t4 -13v-142q0 -6 -4 -11t-10 -5l-276 1v-497l163 -2q78 0 108.5 -37.5t30.5 -112.5q0 -22 -3 -47t-3 -56q-15 -96 -62 -175t-116 -136t-155.5 -89.5t-181.5 -33.5q-133 7 -228 60t-156 138t-89.5 195.5t-28.5 232.5z" />
<glyph unicode="&#x649;" horiz-adv-x="1193" arabic-form="final" d="M62 269v70q0 22 0.5 55.5t0.5 83.5q0 8 5 12.5t11 4.5h144q9 0 13 -13.5t4.5 -32.5t0 -40t-0.5 -35v-102q0 -49 3.5 -100t15.5 -100t35 -92.5t61 -77.5t95 -56t136 -27h11q54 0 107.5 23t99 66t78.5 105.5t47 141.5h-291q-17 0 -17 16v143q0 16 17 16h556v-175h-105 q-15 -114 -62.5 -208t-118 -161t-159 -105t-185.5 -40q-133 7 -228 60.5t-156 139t-89.5 196t-28.5 232.5z" />
<glyph unicode="&#x64a;" horiz-adv-x="1148" arabic-form="isolated" d="M60 267v211q0 8 5 12.5t13 4.5h143q7 0 12.5 -4.5t5.5 -12.5v-206q0 -8 -0.5 -16t-0.5 -16q0 -71 12 -143t49 -131.5t105 -99.5t180 -47h11q53 0 106.5 23t99.5 66t80 105.5t49 141.5h-103t-82 5t-62 18t-43 39.5t-25 69.5t-8 107v369q0 127 53.5 183t157.5 56h239 q6 0 10 -5t4 -13v-142q0 -6 -4 -11t-10 -5l-276 1v-497l163 -2q78 0 108.5 -37.5t30.5 -112.5q0 -22 -3 -47t-3 -56q-15 -96 -62 -175t-116 -136t-155.5 -89.5t-181.5 -33.5q-133 7 -228 60t-156 138t-89.5 195.5t-28.5 232.5zM328 -634q0 21 8 39.5t21.5 32.5t32 22t38.5 8 q21 0 39.5 -8t32.5 -22t22 -32.5t8 -39.5t-8 -39.5t-22 -32.5t-32.5 -22t-39.5 -8q-20 0 -38.5 8t-32 22t-21.5 32.5t-8 39.5zM604 -634q0 21 8 39.5t21.5 32.5t32 22t38.5 8q21 0 39.5 -8t32.5 -22t22 -32.5t8 -39.5t-8 -39.5t-22 -32.5t-32.5 -22t-39.5 -8q-20 0 -38.5 8 t-32 22t-21.5 32.5t-8 39.5z" />
<glyph unicode="&#x64a;" horiz-adv-x="1188" arabic-form="final" d="M57 269v209q0 8 5.5 12.5t12.5 4.5h143q7 0 12 -4.5t5 -12.5v-104q0 -51 -0.5 -110.5t7 -119t26.5 -115.5t57.5 -101t100 -74t155.5 -35h11q53 0 106.5 23t99.5 66t79.5 105.5t46.5 141.5h-291q-17 0 -17 16v143q0 16 17 16h555v-175h-104q-15 -114 -62.5 -208t-118 -161 t-159 -105t-184.5 -40q-133 7 -228.5 60.5t-156.5 139t-89.5 196t-28.5 232.5zM328 -634q0 21 8 39.5t21.5 32.5t32 22t38.5 8q21 0 39.5 -8t32.5 -22t22 -32.5t8 -39.5t-8 -39.5t-22 -32.5t-32.5 -22t-39.5 -8q-20 0 -38.5 8t-32 22t-21.5 32.5t-8 39.5zM604 -634 q0 21 8 39.5t21.5 32.5t32 22t38.5 8q21 0 39.5 -8t32.5 -22t22 -32.5t8 -39.5t-8 -39.5t-22 -32.5t-32.5 -22t-39.5 -8q-20 0 -38.5 8t-32 22t-21.5 32.5t-8 39.5z" />
<glyph unicode="&#x64a;" horiz-adv-x="694" arabic-form="initial" d="M-6 155v175h440v653q0 6 5 11.5t11 5.5h143q8 0 12.5 -5.5t4.5 -11.5v-589q0 -127 -55 -183t-157 -56h-404zM69 -167q0 21 8 39.5t21.5 32.5t32 22t38.5 8q21 0 39.5 -8t32.5 -22t22 -32.5t8 -39.5t-8 -39.5t-22 -32.5t-32.5 -22t-39.5 -8q-20 0 -38.5 8t-32 22 t-21.5 32.5t-8 39.5zM345 -167q0 21 8 39.5t21.5 32.5t32 22t38.5 8q21 0 39.5 -8t32.5 -22t22 -32.5t8 -39.5t-8 -39.5t-22 -32.5t-32.5 -22t-39.5 -8q-20 0 -38.5 8t-32 22t-21.5 32.5t-8 39.5z" />
<glyph unicode="&#x64a;" horiz-adv-x="636" arabic-form="medial" d="M-4 155v175h228v653q0 6 5.5 11.5t12.5 5.5h142q8 0 12.5 -5.5t4.5 -11.5v-653h241v-175h-646zM74 -167q0 21 8 39.5t21.5 32.5t32 22t38.5 8q21 0 39.5 -8t32.5 -22t22 -32.5t8 -39.5t-8 -39.5t-22 -32.5t-32.5 -22t-39.5 -8q-20 0 -38.5 8t-32 22t-21.5 32.5t-8 39.5z M350 -167q0 21 8 39.5t21.5 32.5t32 22t38.5 8q21 0 39.5 -8t32.5 -22t22 -32.5t8 -39.5t-8 -39.5t-22 -32.5t-32.5 -22t-39.5 -8q-20 0 -38.5 8t-32 22t-21.5 32.5t-8 39.5z" />
<glyph unicode=" "  horiz-adv-x="435" />
<glyph unicode="&#x09;" horiz-adv-x="435" />
<glyph unicode="&#xa0;" horiz-adv-x="435" />
<glyph unicode="!" horiz-adv-x="585" d="M174 1291q2 18 15.5 30.5t33.5 12.5h135q18 0 32 -13t17 -30l-49 -675q0 -20 -14 -35t-35 -15h-38q-20 0 -34 15t-14 35zM176 259q0 24 9 45.5t25 37t36.5 25t44.5 9.5t45.5 -9.5t37 -25t25 -37t9.5 -45.5t-9.5 -45t-25 -37t-37 -25.5t-45.5 -9.5t-44.5 9.5t-36.5 25.5 t-25 37t-9 45z" />
<glyph unicode="&#x22;" horiz-adv-x="622" d="M107 1465q1 31 24 53t55 22h59q2 -60 3.5 -114t3 -106.5t3 -106t3.5 -113.5q0 -20 -21.5 -32t-48.5 -17q-11 56 -21 106.5t-19.5 100t-19.5 100.5t-21 107zM358 1465q0 31 23 53t56 22h59q1 -60 3 -114t3.5 -106.5t3 -106t3.5 -113.5q-2 -20 -23 -32t-48 -17 q-11 56 -20.5 106.5t-19.5 100t-19.5 100.5t-20.5 107z" />
<glyph unicode="#" horiz-adv-x="1370" d="M77 541l46 128h269l80 227h-287l45 127h289l140 395h145l-141 -395h223l142 395h143l-139 -395h262l-45 -127h-263l-81 -227h280l-44 -128h-281l-141 -394h-143l140 394h-224l-141 -394h-144l138 394h-268zM536 667h227l80 229h-226z" />
<glyph unicode="$" horiz-adv-x="1020" d="M55 537v21h162v-15q0 -124 64.5 -195t182.5 -78v479q-382 64 -382 358q0 79 27 144t76.5 112t120 74.5t158.5 32.5v129h95v-129q184 -15 280.5 -104.5t98.5 -245.5h-164q-22 192 -215 204v-426q228 -49 321 -136q92 -86 92 -246q0 -167 -106 -267.5t-307 -121.5v-171h-95 v169q-409 30 -409 412zM245 1120q0 -88 52.5 -138.5t166.5 -68.5v412q-50 0 -90.5 -14.5t-69 -41t-44 -64.5t-15.5 -85zM559 263q117 11 179 71t62 162q0 90 -56.5 144.5t-184.5 84.5v-462z" />
<glyph unicode="%" horiz-adv-x="829" d="M23 1149q0 23 9 43t24 34.5t35 23t42 8.5t42 -8.5t35 -23t23.5 -34.5t8.5 -43t-8.5 -43t-23.5 -35t-35 -23.5t-42 -8.5t-42 8.5t-35 23.5t-24 35t-9 43zM100 -49q54 181 105 350.5t101.5 337t101.5 336.5t105 350l166 88q-54 -182 -105 -351t-101 -336t-101 -336 t-106 -350q-43 -23 -83.5 -45t-82.5 -44zM545 193q0 22 8.5 42t23.5 35t34.5 23.5t42.5 8.5q22 0 42 -8.5t35 -23.5t24 -35t9 -42q0 -23 -9 -42.5t-24 -34.5t-35 -23.5t-42 -8.5q-23 0 -42.5 8.5t-34.5 23.5t-23.5 34.5t-8.5 42.5z" />
<glyph unicode="&#x26;" horiz-adv-x="1294" d="M95 518q0 130 75 231q74 99 248 196q-79 85 -116 160.5t-37 153.5q0 67 24.5 124t68.5 97.5t104 63.5t132 23q75 0 136 -20.5t104 -59t66 -92.5t23 -120q0 -110 -62 -198t-195 -167l257 -314q24 45 37.5 100.5t19.5 128.5h161q0 -103 -26.5 -192t-78.5 -170l258 -310 h-230l-135 166q-167 -199 -423 -199q-90 0 -165.5 29.5t-130 82.5t-85 126t-30.5 160zM272 529q0 -54 19.5 -100t53.5 -79t81 -51.5t103 -18.5q84 0 160.5 40.5t145.5 119.5l-325 392q-64 -37 -109.5 -72.5t-74 -71.5t-41.5 -75t-13 -84zM428 1265q0 -57 34.5 -119 t112.5 -140q99 61 145 124.5t46 136.5q0 36 -11.5 66t-33 51.5t-52 33.5t-67.5 12q-82 0 -128 -43.5t-46 -121.5z" />
<glyph unicode="'" horiz-adv-x="385" d="M107 1465q1 31 24 53t55 22h59q2 -60 3.5 -114t3 -106.5t3 -106t3.5 -113.5q0 -20 -21.5 -32t-48.5 -17q-11 56 -21 106.5t-19.5 100t-19.5 100.5t-21 107z" />
<glyph unicode="(" horiz-adv-x="533" d="M90 784q0 198 70 396t208 409h99q-87 -183 -130 -386.5t-43 -413.5q0 -209 42.5 -411t130.5 -384h-100q-140 206 -208.5 401.5t-68.5 388.5z" />
<glyph unicode=")" horiz-adv-x="533" d="M80 -6q87 182 130 384t43 411q0 210 -43 413.5t-130 386.5h99q138 -211 208 -409t70 -396q0 -193 -69 -388.5t-208 -401.5h-100z" />
<glyph unicode="*" d="M95 1119l44 138l239 -82v257h134v-257l236 82l48 -138l-251 -68l173 -211l-119 -88l-155 224l-152 -219l-121 81l171 213z" />
<glyph unicode="+" horiz-adv-x="1484" d="M221 621v121h459v470h124v-470h459v-121h-459v-471h-124v471h-459z" />
<glyph unicode="," horiz-adv-x="488" d="M155 -25q42 9 65 47t23 101v27h-88v192h178v-208q0 -99 -46.5 -163t-131.5 -85v89z" />
<glyph unicode="-" horiz-adv-x="884" d="M119 477l57 197h590l-57 -197h-590z" />
<glyph unicode="." horiz-adv-x="497" d="M145 233q0 23 8.5 43t23.5 34.5t34.5 23t42.5 8.5q22 0 42 -8.5t35 -23t24 -34.5t9 -43t-9 -42.5t-24 -34.5t-35 -23.5t-42 -8.5q-23 0 -42.5 8.5t-34.5 23.5t-23.5 34.5t-8.5 42.5z" />
<glyph unicode="/" horiz-adv-x="658" d="M38 -49q55 181 106 350.5t101.5 337t102 336.5t105.5 350l166 88q-54 -182 -105.5 -351t-102 -336t-101.5 -336t-106 -350q-43 -23 -83.5 -45t-82.5 -44z" />
<glyph unicode="0" horiz-adv-x="1019" d="M66 717q0 150 31 271t88.5 206.5t139.5 131.5t184 46t183.5 -45.5t139.5 -130.5t89 -206.5t31 -272.5q0 -148 -30.5 -269t-88 -207t-139.5 -133t-185 -47t-185 46.5t-139.5 132t-88 207t-30.5 270.5zM314 717q0 -242 48.5 -356t146.5 -114t147 115.5t49 354.5 q0 238 -49 355t-147 117t-146.5 -115t-48.5 -357z" />
<glyph unicode="1" horiz-adv-x="1019" d="M170 1112l286 239h257v-1266h-235v1031l-240 -166z" />
<glyph unicode="2" horiz-adv-x="1019" d="M93 1257q94 61 188 89t197 28q92 0 167.5 -31.5t129 -84.5t83 -123t29.5 -147q0 -70 -25 -138q-30 -81 -87.5 -159t-127.5 -149.5t-143 -134.5t-134 -114h557v-208h-827l10 189q43 47 98.5 100t113.5 109.5t114 116.5t99.5 120.5t70 121t26.5 118.5q0 54 -17.5 94t-48 66 t-71 38.5t-85.5 12.5q-60 0 -123.5 -21t-118.5 -62z" />
<glyph unicode="3" horiz-adv-x="1019" d="M103 135l48 150q59 -29 113 -40t111 -11q67 0 118 15t85.5 40.5t51.5 59t17 69.5q0 41 -23 81.5t-68.5 73.5t-115 54t-162.5 23l-8 154q48 6 107.5 22.5t111.5 45t87.5 69.5t35.5 97q0 45 -18.5 77t-49 52.5t-71 30t-83.5 9.5q-48 0 -95 -10.5t-87 -30.5l-60 151 q51 26 127.5 41t160.5 15q45 0 88.5 -5t83 -15.5t73.5 -27t58 -39.5q52 -51 77 -106.5t25 -112.5q0 -90 -61 -170.5t-182 -134.5q279 -110 279 -344q0 -81 -30.5 -146.5t-87.5 -112.5t-139 -72.5t-185 -25.5q-107 0 -187.5 18t-144.5 56z" />
<glyph unicode="4" horiz-adv-x="1019" d="M40 381v214q157 195 310 386t310 386h148v-771h126v-215h-126v-296h-221v296h-547zM231 596h357v439z" />
<glyph unicode="5" horiz-adv-x="1019" d="M151 102l46 158q41 -14 81.5 -20t82.5 -6q90 0 151.5 20t99.5 53.5t55 76.5t17 88q0 84 -40 129.5t-108 66.5t-157 24t-187 3l-2 656h652v-198h-453v-249q127 0 225.5 -28.5t166 -83.5t102.5 -135.5t35 -184.5q-2 -101 -43 -178t-109.5 -128.5t-157 -78t-184.5 -26.5 q-81 0 -148.5 10t-124.5 31z" />
<glyph unicode="6" horiz-adv-x="1019" d="M95 520q0 114 37 232t105 229t163.5 209.5t213.5 173.5q7 -8 11 -13.5t8 -10.5t8 -10.5t10 -12.5v1q18 -23 35 -45.5t36 -45.5q-240 -157 -328 -364q66 27 140 27q73 0 144 -26.5t127.5 -78t91.5 -127.5t35 -175q0 -92 -31 -169.5t-86.5 -133t-132 -86.5t-168.5 -31 q-101 0 -179.5 33.5t-131.5 94.5t-80.5 144.5t-27.5 184.5zM313 540q0 -54 15 -104t43.5 -88t71 -60.5t96.5 -22.5q46 0 82 19t60.5 47.5t37.5 62.5t13 65q0 51 -23.5 93t-61 72t-84.5 46.5t-93 16.5q-38 0 -75 -11t-69 -34q-13 -49 -13 -102z" />
<glyph unicode="7" horiz-adv-x="1019" d="M91 1158v193h795v-193l-429 -1104l-202 77l388 1027h-552z" />
<glyph unicode="8" horiz-adv-x="1019" d="M75 428q0 53 16 100.5t45.5 88t69.5 72.5t88 53q-89 53 -131 131t-42 160q0 65 25.5 126t74.5 108.5t121.5 76t166.5 28.5q84 0 152 -30.5t116.5 -79.5t75 -111.5t26.5 -126.5q0 -39 -11 -77.5t-33.5 -73.5t-57.5 -65t-84 -52q125 -55 187.5 -138.5t62.5 -189.5 q0 -83 -30.5 -150t-86.5 -118v1q-59 -48 -138 -74t-179 -26q-101 0 -180.5 26t-138.5 74v-1q-55 51 -85 119t-30 149zM305 428q0 -37 12 -71t36 -60t60.5 -41.5t84.5 -15.5q47 0 85.5 10t65.5 33.5t41.5 62.5t14.5 96q0 8 -2.5 25t-10 38t-21.5 42.5t-36.5 39.5t-55 29.5 t-77.5 11.5q-49 0 -86 -17.5t-61.5 -45.5t-37 -64t-12.5 -73zM328 1020q0 -34 19 -67t47 -59t59 -42t54 -16q10 0 14 2q24 9 50.5 24.5t48.5 38t36.5 51t14.5 63.5q0 39 -16 69.5t-41.5 51.5t-57.5 32t-65 11q-32 0 -61 -10t-52 -29.5t-36.5 -49.5t-13.5 -70z" />
<glyph unicode="9" horiz-adv-x="1019" d="M95 944q0 93 31 170t86 133t131.5 87t168.5 31q102 0 180 -33.5t131.5 -94.5t81 -145t27.5 -184q0 -114 -37 -232t-105 -229.5t-164 -210t-214 -172.5q-13 16 -18.5 24t-17.5 23v-1q-19 23 -35.5 45t-36.5 45q121 79 202.5 170t125.5 194q-66 -27 -139 -27t-144 26.5 t-127.5 78t-91.5 127.5t-35 175zM294 969q0 -51 23.5 -93t61 -72t84 -46.5t93.5 -16.5q38 0 75 11t69 34q13 49 13 102q0 54 -15 104t-43.5 88t-71 60.5t-96.5 22.5q-46 0 -82 -19t-60.5 -47.5t-37.5 -62.5t-13 -65z" />
<glyph unicode=":" horiz-adv-x="505" d="M141 329q0 23 8.5 43t23.5 34.5t34.5 23t42.5 8.5q22 0 42 -8.5t35 -23t24 -34.5t9 -43t-9 -42.5t-24 -34.5t-35 -23.5t-42 -8.5q-23 0 -42.5 8.5t-34.5 23.5t-23.5 34.5t-8.5 42.5zM141 808q0 23 8.5 43t23.5 34.5t34.5 23t42.5 8.5q22 0 42 -8.5t35 -23t24 -34.5t9 -43 t-9 -42.5t-24 -34.5t-35 -23.5t-42 -8.5q-23 0 -42.5 8.5t-34.5 23.5t-23.5 34.5t-8.5 42.5z" />
<glyph unicode=";" horiz-adv-x="529" d="M175 -25q42 9 65.5 48t23.5 100v27h-89v192h180v-208q0 -97 -46.5 -161.5t-133.5 -86.5v89zM175 889v193h180v-193h-180z" />
<glyph unicode="&#x3c;" horiz-adv-x="1484" d="M230 626v112l1025 420v-133l-843 -344l843 -342v-134z" />
<glyph unicode="=" horiz-adv-x="1484" d="M221 448v120h1042v-120h-1042zM221 793v122h1042v-122h-1042z" />
<glyph unicode="&#x3e;" horiz-adv-x="1484" d="M230 205v134l844 342l-844 344v133l1025 -420v-112z" />
<glyph unicode="?" horiz-adv-x="959" d="M64 1108v25q0 102 29 181.5t83.5 134.5t134 83.5t181.5 28.5q89 0 162 -26t124.5 -73t80 -113t28.5 -147q0 -90 -34 -165.5t-106 -141.5l-78 -75q-38 -36 -61.5 -65.5t-36.5 -58t-18 -59.5t-5 -70q0 -19 0.5 -29t1.5 -18l-168 -1q0 7 -1 20.5t-1 19.5q0 51 8 96.5 t26 86.5t46.5 80t68.5 78l72 73q56 57 81.5 109.5t24.5 119.5q0 47 -16.5 85.5t-45.5 66t-70 42.5t-90 15q-125 0 -187 -75t-68 -228h-166zM377 150v204h186v-204h-186z" />
<glyph unicode="@" horiz-adv-x="1782" d="M92 604q0 145 45 272.5t132 233.5q128 156 305 235.5t397 79.5q163 0 296 -48t227.5 -130t145.5 -190t51 -228q0 -115 -36 -219.5t-100.5 -184t-154.5 -126.5t-199 -47q-174 0 -174 136v17q-48 -78 -112.5 -114.5t-149.5 -36.5q-134 0 -203.5 73t-69.5 215 q0 102 32 189.5t88 152.5t132 102t163 37q73 0 126 -32t84 -98l50 100h115l-128 -501q-4 -14 -5 -27t-1 -24q0 -82 87 -82q42 0 89 23t92 66q70 66 109 161.5t39 203.5q0 112 -43.5 205t-123 159.5t-190 103.5t-243.5 37q-117 0 -214 -24t-184 -75q-167 -99 -258 -261 q-91 -160 -91 -356q0 -154 54 -268t167 -200q88 -67 206 -103t250 -36q148 0 286 42t255 123l47 -71q-129 -97 -273 -145.5t-304 -48.5q-189 0 -339.5 54t-256 149.5t-161.5 225t-56 280.5zM631 538q0 -91 42 -141t120 -50q42 0 81 16.5t71 45.5t55.5 68.5t34.5 85.5l52 206 q-15 76 -59.5 118t-113.5 42q-60 0 -111.5 -30.5t-89.5 -83.5t-60 -124.5t-22 -152.5z" />
<glyph unicode="A" horiz-adv-x="1188" d="M17 152l500 1297h190l467 -1297h-196l-130 386h-499l-140 -386h-192zM406 686h388l-188 569z" />
<glyph unicode="B" horiz-adv-x="1188" d="M132 150v1298h563q82 0 149 -23.5t114 -66t72.5 -103t25.5 -134.5q0 -95 -44 -163t-126 -109q65 -26 109.5 -57t71.5 -69.5t38.5 -85t11.5 -103.5q0 -87 -31.5 -157.5t-88.5 -121t-137.5 -78t-177.5 -27.5h-550zM304 301h369q135 0 203 62t68 174q0 110 -75 164.5 t-224 54.5h-341v-455zM304 899h313q139 0 203 50t64 160q0 94 -62.5 141.5t-202.5 47.5h-315v-399z" />
<glyph unicode="C" horiz-adv-x="1286" d="M66 786q0 364 205 544q45 39 90.5 66.5t91.5 45.5q90 34 215 34q115 0 211.5 -30t167 -86t113.5 -136t52 -180h-184q-9 36 -16.5 61t-17.5 44t-23.5 35.5t-33.5 36.5q-96 90 -264 90q-98 0 -175.5 -34.5t-131.5 -100.5t-82.5 -162t-28.5 -218q0 -116 27 -209.5t79 -159 t127 -101t170 -35.5q152 0 248.5 88.5t121.5 253.5h184q-26 -173 -111 -291q-158 -215 -438 -215q-139 0 -249.5 46t-188 131.5t-118.5 207.5t-41 274z" />
<glyph unicode="D" horiz-adv-x="1286" d="M157 152v1297h438q164 0 247 -18t156 -73q226 -171 226 -543q0 -221 -84 -387t-229 -232q-27 -12 -57 -20t-66 -13.5t-79.5 -8t-97.5 -2.5h-454zM337 315h262q182 0 265 58q173 119 173 445q0 163 -54.5 275t-157.5 160q-69 34 -232 34h-256v-972z" />
<glyph unicode="E" horiz-adv-x="1188" d="M157 152v1297h935v-162h-755v-382h698v-163h-698v-427h764v-163h-944z" />
<glyph unicode="F" horiz-adv-x="1188" d="M157 152v1297h935v-162h-755v-382h698v-163h-698v-590h-180z" />
<glyph unicode="G" horiz-adv-x="1386" d="M66 791q0 157 43.5 283.5t124.5 215.5t195 137.5t255 48.5q270 0 410 -158q26 -30 45.5 -58.5t32.5 -57.5t25 -67.5t22 -86.5h-184q-10 35 -19 59.5t-19.5 44t-23.5 36.5t-31 35q-89 88 -262 88q-102 0 -181 -35t-134 -101t-83.5 -161.5t-28.5 -217.5q0 -117 29 -210.5 t83.5 -159t133.5 -100.5t180 -35q66 0 125.5 17.5t108 50.5t84.5 81t56 110q18 55 18 152h-405v148h567v-690h-114l-43 158q-88 -102 -185 -147q-96 -44 -226 -44q-137 0 -247.5 47.5t-188.5 134.5t-120.5 209.5t-42.5 272.5z" />
<glyph unicode="H" horiz-adv-x="1286" d="M157 152v1297h180v-531h615v531h182v-1297h-182v602h-615v-602h-180z" />
<glyph unicode="I" horiz-adv-x="483" d="M157 152v1297h180v-1297h-180z" />
<glyph unicode="J" d="M27 585h178q0 -53 1 -88.5t5 -59.5t11.5 -41.5t21.5 -34.5q48 -70 148 -70q31 0 59.5 9t51.5 27t39 44t22 60q9 43 9 131v889h182v-889q0 -202 -63 -293q-48 -69 -127.5 -105.5t-176.5 -36.5q-68 0 -127 18t-105 51t-76.5 79.5t-40.5 103.5q-12 64 -12 206z" />
<glyph unicode="K" horiz-adv-x="1188" d="M157 152v1299h180v-631l613 631h240l-524 -529l522 -770h-215l-429 650l-207 -198v-452h-180z" />
<glyph unicode="L" horiz-adv-x="990" d="M157 152v1297h180v-1134h656v-163h-836z" />
<glyph unicode="M" horiz-adv-x="1466" d="M116 152v1296h219l406 -1077l394 1077h219v-1296h-159v1039l-379 -1039h-146l-396 1039v-1039h-158z" />
<glyph unicode="N" horiz-adv-x="1286" d="M157 152v1297h201l594 -1019v1019h182v-1297h-204l-593 1028v-1028h-180z" />
<glyph unicode="O" horiz-adv-x="1386" d="M66 788q0 158 44 285t126 216.5t199 138t264 48.5q142 0 257.5 -46.5t197.5 -132.5t126 -208.5t44 -273.5q0 -145 -42 -270.5t-123 -218.5t-199 -146t-270 -53q-143 0 -258 46.5t-196.5 133t-125.5 208.5t-44 273zM255 793q0 -116 30.5 -209t87.5 -158t139.5 -100 t186.5 -35q103 0 184 35t137.5 102t86.5 164t30 221q0 118 -30 210.5t-86.5 156.5t-138 97.5t-183.5 33.5q-107 0 -189.5 -34.5t-139 -101t-86 -163t-29.5 -219.5z" />
<glyph unicode="P" horiz-adv-x="1122" d="M137 150v1298h472q58 0 100.5 -2.5t74.5 -8.5t57.5 -15.5t49.5 -23.5q78 -42 120 -126.5t42 -198.5q0 -69 -17.5 -130t-52 -108.5t-85.5 -80t-117 -45.5q-62 -12 -205 -12h-265v-547h-174zM311 854h293q77 0 129 11.5t84 38t46 68t14 101.5q0 57 -14.5 98t-45.5 67.5 t-80.5 38.5t-119.5 12h-306v-435z" />
<glyph unicode="Q" horiz-adv-x="1356" d="M61 796q0 157 43.5 281t125 210.5t198.5 132t265 45.5q147 0 263.5 -46t197.5 -132.5t124.5 -210.5t43.5 -280q0 -155 -42.5 -277t-130.5 -222l160 -128l-88 -108l-188 147q-78 -42 -162 -61.5t-178 -19.5q-148 0 -265 45.5t-198.5 132t-125 210.5t-43.5 281zM248 800 q0 -121 30.5 -217t87.5 -162.5t139.5 -101.5t187.5 -35q55 0 103 9.5t91 30.5l-146 116l89 107l177 -138q63 64 95.5 164t32.5 227q0 121 -30 216.5t-87 162t-139 101.5t-186 35t-186.5 -35t-140 -101.5t-88 -162t-30.5 -216.5z" />
<glyph unicode="R" horiz-adv-x="1286" d="M157 152v1297h540q62 0 106.5 -1.5t78 -6.5t60 -13.5t52.5 -22.5q169 -91 169 -313q0 -57 -10.5 -101.5t-33 -80t-57 -63.5t-82.5 -51q48 -17 79.5 -38t50 -54t25.5 -82t7 -121v-150q0 -105 50 -187l9 -12h-214q-16 51 -23 97t-7 88v162q0 170 -124 196q-44 9 -147 9 h-349v-552h-180zM337 868h340q50 0 82 1t54 4.5t38.5 9.5t34.5 17q90 49 90 177q0 66 -27 114.5t-78 71.5q-51 24 -179 24h-355v-419z" />
<glyph unicode="S" horiz-adv-x="1188" d="M80 546v39h187v-37q0 -36 3 -61.5t10.5 -45.5t21 -36t33.5 -32q92 -82 274 -82q71 0 129.5 14.5t100.5 41.5t65 65t23 85q0 26 -7 53.5t-24 52.5t-46 47t-73 38l-400 100q-133 48 -190.5 126t-57.5 191q0 83 33 151.5t93.5 117t146 75.5t191.5 27q83 0 156 -16 t131.5 -46.5t100 -74.5t62.5 -99q10 -26 15.5 -60.5t5.5 -79.5l3 -43h-188q0 31 -2 52.5t-6 38t-10 30t-14 28.5q-17 24 -43 43.5t-59.5 33t-73 21t-81.5 7.5q-58 0 -107.5 -13.5t-86 -39t-57 -62t-20.5 -83.5q0 -31 5.5 -54t21 -41t42.5 -33t70 -30l415 -106 q239 -86 239 -317q0 -80 -28.5 -153t-90 -129t-158.5 -89.5t-233 -33.5q-259 0 -390.5 105.5t-131.5 313.5z" />
<glyph unicode="T" horiz-adv-x="1088" d="M29 1287v162h1038v-162h-431v-1135h-180v1135h-427z" />
<glyph unicode="U" horiz-adv-x="1286" d="M139 622v829h182v-809q0 -43 2.5 -77t9.5 -61.5t17.5 -50t27.5 -43.5q40 -55 112.5 -87t157.5 -32q70 0 129 20.5t102 63.5t66.5 107.5t23.5 153.5v815h182v-816q0 -105 -20 -179q-22 -79 -67.5 -140.5t-109 -103.5t-143 -63.5t-168.5 -21.5q-116 0 -209.5 30.5 t-159 92.5t-100.5 154.5t-35 217.5z" />
<glyph unicode="V" horiz-adv-x="1088" d="M0 1448h180l369 -1087l358 1087h181l-450 -1298h-182z" />
<glyph unicode="W" horiz-adv-x="1682" d="M14 1449h193l196 -775l48 -260q16 74 24.5 115.5t14 65.5t10 40t12.5 39l231 775h185l230 -775q9 -23 16.5 -55.5t17.5 -74.5l30 -130q11 67 22.5 133t27.5 127l204 775h194l-355 -1297h-181l-301 1052l-295 -1052h-189z" />
<glyph unicode="X" horiz-adv-x="1078" d="M0 150l440 665l-417 633h214l305 -480l310 480h202l-416 -630l440 -668h-214l-330 525l-322 -525h-212z" />
<glyph unicode="Y" horiz-adv-x="1188" d="M2 1449h226l376 -615l370 615h216l-498 -786v-511h-184v511z" />
<glyph unicode="Z" horiz-adv-x="1088" d="M43 152v158l783 977h-726v162h951v-157l-787 -977h787v-163h-1008z" />
<glyph unicode="[" horiz-adv-x="631" d="M216 -207v1639h347v-122h-191v-1395h191v-122h-347z" />
<glyph unicode="\" horiz-adv-x="536" d="M-2 1465h107l433 -1480h-110z" />
<glyph unicode="]" horiz-adv-x="631" d="M68 -85h190v1395h-190v122h347v-1639h-347v122z" />
<glyph unicode="^" horiz-adv-x="1782" d="M365 934l444 484h162l444 -484h-157l-367 365l-369 -365h-157z" />
<glyph unicode="_" d="M0 -146h891v-124h-891v124z" />
<glyph unicode="`" d="M217 1512h175l178 -303h-105z" />
<glyph unicode="a" horiz-adv-x="990" d="M80 410q0 179 158 253q108 50 371 80l95 13v46q0 52 -13.5 86t-39.5 54.5t-64 29t-88 8.5q-101 0 -155.5 -43t-54.5 -131h-170q0 79 26.5 139t76 100.5t119.5 60.5t158 20q90 0 158 -15.5t113.5 -51t68.5 -92.5t23 -140v-453q0 -98 58 -98l47 4v-125q-18 -6 -32 -9.5 t-25.5 -6t-21.5 -3t-22 -0.5q-133 0 -152 144q-138 -153 -326 -153q-69 0 -126 19.5t-97.5 56.5t-62.5 89t-22 118zM255 419q0 -69 44.5 -107t125.5 -38q57 0 107.5 18t88 48t59.5 70t22 85v133q-33 -5 -60.5 -9t-55.5 -8.5t-59.5 -10.5t-72.5 -15q-54 -13 -92 -27.5 t-62 -33.5t-34.5 -44.5t-10.5 -60.5z" />
<glyph unicode="b" horiz-adv-x="1059" d="M123 150v1298h155v-485q108 161 306 161q93 0 169.5 -36t131 -102.5t84.5 -159.5t30 -207q0 -112 -29 -204t-83 -157t-130.5 -101t-170.5 -36q-102 0 -175 36t-133 112v-119h-155zM272 628q0 -176 72 -271t207 -95q65 0 117 24t89 69t56.5 109t19.5 144q0 181 -73 277.5 t-208 96.5q-280 0 -280 -354z" />
<glyph unicode="c" d="M66 611q0 123 29.5 219t85.5 161.5t137 100t185 34.5q83 0 151 -24t118.5 -69.5t82 -111.5t41.5 -149h-167q-45 206 -226 206q-126 0 -194.5 -89.5t-68.5 -252.5q0 -176 67.5 -269.5t197.5 -93.5q169 0 224 217h167q-12 -95 -46 -164t-85.5 -113.5t-117.5 -66t-141 -21.5 q-105 0 -187 33t-138.5 95t-85.5 152.5t-29 205.5z" />
<glyph unicode="d" horiz-adv-x="990" d="M66 613q0 114 28 208.5t79 162.5t122.5 106t158.5 38q39 0 72 -6t63 -20.5t60 -38t64 -58.5v446h164v-1298h-156v121q-36 -43 -67 -71.5t-63 -45t-67.5 -23.5t-79.5 -7q-87 0 -156.5 34.5t-119 98t-76 153t-26.5 200.5zM240 628q0 -173 62.5 -263.5t180.5 -90.5 q117 0 178.5 90.5t61.5 263.5q0 169 -61.5 259.5t-178.5 90.5q-118 0 -180.5 -89.5t-62.5 -260.5z" />
<glyph unicode="e" horiz-adv-x="990" d="M66 628q0 116 33 208t92 156t141 98t180 34q92 0 168.5 -29t131.5 -87.5t85.5 -148t30.5 -210.5l-1 -75h-689q0 -147 69.5 -223.5t197.5 -76.5q194 0 238 191h171q-18 -80 -55 -142.5t-90 -106t-121 -66.5t-149 -23q-101 0 -181 34.5t-136 99.5t-86 157.5t-30 209.5z M244 722h519q0 60 -19 107.5t-52.5 80.5t-80.5 50.5t-103 17.5q-228 0 -264 -256z" />
<glyph unicode="f" horiz-adv-x="471" d="M0 957v125h153v137q0 232 211 232q16 0 41.5 -3t73.5 -10v-140q-25 4 -42 6t-27 2q-27 0 -46 -6.5t-30.5 -23t-17 -45t-5.5 -71.5v-78h168v-125h-168v-807h-158v807h-153z" />
<glyph unicode="g" horiz-adv-x="990" d="M66 609q0 120 25.5 216t74 162.5t118 102.5t156.5 36q173 0 273 -151v127h162v-806q0 -122 -9 -192q-22 -173 -124 -257.5t-277 -84.5q-169 0 -257.5 70t-105.5 221h163q10 -39 25 -66t38.5 -44.5t55.5 -25t77 -7.5q73 0 120.5 22t74.5 66t37.5 110.5t10.5 155.5 q-30 -36 -60.5 -62t-62.5 -42.5t-68 -24.5t-78 -8q-87 0 -155.5 33t-116 95.5t-72.5 151.5t-25 202zM240 628q0 -80 16.5 -145t47.5 -111.5t75 -72t99 -25.5q54 0 97 25t73.5 71.5t46.5 111.5t16 146q0 79 -16.5 144t-47 110.5t-73.5 70.5t-96 25q-55 0 -99 -25t-75 -70.5 t-47.5 -110.5t-16.5 -144z" />
<glyph unicode="h" horiz-adv-x="992" d="M116 152v1297h164v-449q65 66 132 96t154 30q75 0 133 -18t97 -59.5t59 -108.5t20 -164v-624h-164v586q0 65 -10 111t-31.5 74.5t-55.5 41.5t-83 13q-42 0 -81 -13t-71.5 -37t-55.5 -59t-33 -78q-10 -44 -10 -135v-504h-164z" />
<glyph unicode="i" horiz-adv-x="395" d="M116 152v950h164v-950h-164zM116 1264v185h164v-185h-164z" />
<glyph unicode="j" horiz-adv-x="395" d="M-36 -78q45 -12 66 -12q26 0 42.5 6.5t26.5 24t13.5 47.5t3.5 78v1036h164v-1061q0 -148 -54.5 -213.5t-164.5 -65.5h-56q-14 2 -24 4t-17 3v153zM116 1264v185h164v-185h-164z" />
<glyph unicode="k" d="M117 152v1297h165v-734l388 387h217l-365 -352l371 -598h-198l-283 484l-130 -122v-362h-165z" />
<glyph unicode="l" horiz-adv-x="395" d="M116 152v1306h164v-1306h-164z" />
<glyph unicode="m" horiz-adv-x="1529" d="M119 150v955h153v-135q54 81 126.5 120.5t172.5 39.5q90 0 152.5 -36t108.5 -114q62 77 136 113.5t171 36.5q121 0 199 -55.5t97 -162.5q9 -51 9 -161v-601h-161v588q0 73 -9 121.5t-30 77.5t-54.5 40.5t-81.5 11.5q-117 0 -181 -71.5t-64 -202.5v-565h-163v588 q0 73 -9.5 121.5t-30.5 77t-54 40.5t-81 12q-57 0 -102.5 -19t-77 -54t-48.5 -86t-17 -115v-565h-161z" />
<glyph unicode="n" horiz-adv-x="990" d="M116 152v950h164v-124q73 84 138 116q64 32 155 32q62 0 116.5 -18.5t95.5 -53.5t64.5 -86.5t23.5 -117.5l2 -93v-605h-164v574q0 132 -32 179q-48 73 -155 73q-145 0 -211 -121q-30 -46 -31 -117l-2 -90v-498h-164z" />
<glyph unicode="o" horiz-adv-x="990" d="M66 628q0 118 29.5 210.5t85 156.5t135.5 97.5t181 33.5q100 0 180 -33.5t136 -97.5t85.5 -156.5t29.5 -210.5q0 -117 -29 -209.5t-84.5 -157.5t-135.5 -99.5t-182 -34.5q-101 0 -180.5 34.5t-135.5 99t-85.5 157.5t-29.5 210zM240 628q0 -82 17 -147.5t50 -111.5 t80.5 -70.5t109.5 -24.5q124 0 190 93t66 266q0 81 -17 145.5t-50 108.5t-80.5 67.5t-108.5 23.5q-124 0 -190.5 -91t-66.5 -259z" />
<glyph unicode="p" horiz-adv-x="1059" d="M71 -222v1304h152v-126q55 81 128.5 118.5t173.5 37.5q93 0 169 -35t129 -99.5t82 -155.5t29 -203q0 -113 -29 -205t-82 -157t-129 -100.5t-169 -35.5q-103 0 -180 38.5t-122 113.5v-495h-152zM217 617q0 -173 70 -265.5t199 -92.5q138 0 212 95.5t74 274.5 q0 79 -19.5 142.5t-56 107.5t-88.5 68t-116 24q-131 0 -203 -92.5t-72 -261.5z" />
<glyph unicode="q" horiz-adv-x="1059" d="M71 619q0 112 29 203t82 155.5t128.5 99.5t168.5 35q100 0 173 -37.5t130 -118.5v126h152v-1304h-152v495q-45 -75 -121.5 -113.5t-181.5 -38.5q-93 0 -168.5 35.5t-128.5 100.5t-82 157t-29 205zM233 629q0 -179 74 -274.5t212 -95.5q129 0 198.5 92.5t69.5 265.5 q0 169 -71.5 261.5t-202.5 92.5q-64 0 -116 -23.5t-88.5 -67.5t-56 -107.5t-19.5 -143.5z" />
<glyph unicode="r" horiz-adv-x="592" d="M117 152v950h165v-158q50 100 110.5 141t137.5 41q9 0 20 -1t33 -6v-175l-52 5q-91 0 -154 -46.5t-83 -137.5q-10 -47 -10 -141v-472h-167z" />
<glyph unicode="s" d="M65 463h173q0 -28 1.5 -47.5t5 -34t11 -26t19.5 -23.5q57 -58 173 -58q93 0 149 37.5t56 100.5q0 30 -19.5 54t-73.5 48l-299 93q-165 75 -165 243q0 61 26 112t72.5 87.5t111.5 56.5t144 20q78 0 142 -19t110.5 -56.5t72 -94t25.5 -131.5h-167q0 44 -15.5 73.5t-42 47.5 t-61 26t-71.5 8t-69.5 -8.5t-57 -24t-39 -37t-14.5 -46.5q0 -78 82 -109l278 -86q51 -22 89 -44.5t63.5 -50t38.5 -61.5t13 -79q0 -66 -26.5 -122t-75.5 -97t-120 -64.5t-159 -23.5q-186 0 -283.5 85t-97.5 251z" />
<glyph unicode="t" horiz-adv-x="525" d="M26 964v138h125v233h163v-233h158v-138h-158v-576q0 -34 4.5 -56.5t16.5 -36t32 -19t51 -5.5l54 2v-139l-122 -7q-148 0 -183 107q-16 41 -16 166v564h-125z" />
<glyph unicode="u" horiz-adv-x="990" d="M116 488v614h164v-603q0 -68 11 -111.5t33.5 -68.5t57 -35t81.5 -10q40 0 78.5 13t70.5 38t55 61.5t33 83.5q11 53 11 149v483h164v-947h-152v146q-87 -174 -301 -174q-72 0 -129 18.5t-96 61t-60 111.5t-21 170z" />
<glyph unicode="v" horiz-adv-x="857" d="M2 1105h172l267 -765l261 765h172l-349 -955h-170z" />
<glyph unicode="w" horiz-adv-x="1286" d="M14 1102h180l139 -554l39 -186q6 31 10.5 54t8.5 43t8.5 41t10.5 48l144 554h182l141 -547q8 -28 15 -64l24 -120q4 24 5 35.5t4 26.5t10 41.5t22 80.5l146 547h172l-281 -950h-168l-183 731l-185 -731h-167z" />
<glyph unicode="x" horiz-adv-x="869" d="M0 150l333 492l-317 463h188l235 -343l230 343h185l-321 -462l342 -493h-194l-250 369l-243 -369h-188z" />
<glyph unicode="y" d="M14 1102h183l255 -756l250 756h178l-383 -1057q-28 -84 -56.5 -139t-59.5 -88t-65 -46t-73 -13l-66 6q-23 0 -34.5 1.5t-17.5 4t-9.5 4.5t-10.5 3v153l18 -7q20 -8 41 -11t33 -3q31 0 52 8t39 31.5t35.5 67.5t40.5 116z" />
<glyph unicode="z" d="M66 152v130l534 672h-491v148h705v-131l-536 -671h550v-148h-762z" />
<glyph unicode="{" d="M146 548v129q7 0 20 -1t19 -1q57 0 96 12.5t64 40.5t36 72.5t11 108.5v214q0 66 4.5 110t15 74t27 49t40.5 34q39 24 94.5 34.5t147.5 10.5h32v-131h-35q-52 0 -86 -7.5t-54 -29.5t-28 -60.5t-8 -101.5v-210q0 -69 -9 -117.5t-29 -81t-54 -52.5t-83 -33 q49 -12 82.5 -31.5t54 -51.5t29.5 -81t9 -119v-210q0 -62 8 -101t28 -61t54 -29.5t87 -7.5h34v-129h-37q-113 0 -177.5 16t-97 53t-41 96t-8.5 145v214q0 64 -11 109t-35.5 73t-64.5 40.5t-97 12.5q-7 0 -19.5 -0.5t-18.5 -0.5z" />
<glyph unicode="|" d="M381 -270v1782h131v-1782h-131z" />
<glyph unicode="}" d="M139 -81h34q53 0 87.5 8.5t54.5 30.5t28 61t8 101v208q0 71 9 119.5t29.5 80.5t53.5 51t82 32q-49 13 -82.5 32.5t-53.5 52t-29 80.5t-9 119v210q0 61 -8 100t-28.5 61t-55 30t-86.5 8h-34v131h32q112 0 177.5 -16.5t99 -53.5t43 -96.5t9.5 -145.5v-214q0 -64 11 -108.5 t36 -72.5t64 -40.5t96 -12.5q6 0 19 1t20 1v-129q-6 0 -19 0.5t-18 0.5q-58 0 -98 -12.5t-64.5 -40t-35.5 -72.5t-11 -110v-214q0 -65 -4.5 -109t-15 -74.5t-27 -50t-40.5 -34.5q-18 -11 -39.5 -19t-49.5 -13t-64 -7.5t-83 -2.5h-38v129z" />
<glyph unicode="~" horiz-adv-x="1484" d="M155 542v135q183 125 337 125q29 0 59 -3t65 -10.5t76.5 -21t93.5 -33.5q139 -50 208 -50q77 0 156.5 32.5t180.5 103.5v-136q-91 -63 -173.5 -92.5t-164.5 -29.5q-79 0 -223 50q-10 3 -17.5 5.5t-12.5 4.5l-13 5q-152 52 -237 52q-73 0 -152.5 -32t-182.5 -105z" />
<glyph horiz-adv-x="1392" d="M76 262v510h175q60 0 106 -13t77.5 -43t47.5 -78t16 -118q0 -128 -62 -193t-177 -65h-183zM143 322h109q52 0 86 13t54 38.5t28 62.5t8 85q0 103 -41 147t-136 44h-108v-390zM559 262v510h368v-60h-301v-156h282v-60h-282v-174h314v-60h-381zM1004 262v510h68v-450h250 v-60h-318z" />
<glyph unicode="&#xa9;" horiz-adv-x="1484" d="M102 782q0 85 22.5 166t64 152t99.5 130.5t129 102.5t153 67t171 24t171 -23t153.5 -65t130.5 -100.5t100.5 -130t64.5 -153.5t23 -170q0 -92 -25 -175.5t-69 -154.5t-104.5 -128.5t-132 -98t-151 -62.5t-161.5 -22q-85 0 -165.5 23.5t-151.5 65.5t-130 101t-102 130.5 t-66.5 152.5t-23.5 168zM185 782q0 -110 44.5 -210.5t120.5 -177t177.5 -122t215.5 -45.5q70 0 138.5 18.5t130.5 53.5t114.5 84.5t91 111t60 134t21.5 153.5q0 118 -44.5 220t-120.5 177t-177 118t-214 43q-116 0 -218 -45.5t-177.5 -122.5t-119 -178t-43.5 -212zM403 788 q0 86 24.5 157.5t69.5 122.5t108.5 79t140.5 28q61 0 113.5 -17t91.5 -48.5t63.5 -75t29.5 -95.5h-128q-11 67 -57 103t-121 36q-46 0 -82.5 -20t-61.5 -58.5t-38.5 -93.5t-13.5 -124q0 -137 53.5 -212.5t150.5 -75.5q72 0 119.5 40.5t59.5 112.5h126q-4 -56 -28.5 -103 t-65.5 -80.5t-96 -52t-120 -18.5q-80 0 -142.5 27t-106 78t-66.5 124.5t-23 165.5z" />
<glyph unicode="&#xab;" horiz-adv-x="880" d="M66 407q84 97 164.5 189.5t165.5 189.5h65l-219 -378l219 -386h-68q-82 97 -163 192.5t-164 192.5zM363 407q84 97 164.5 189.5t164.5 189.5h64l-217 -378l224 -386h-72q-82 97 -164 192.5t-164 192.5z" />
<glyph unicode="&#xad;" horiz-adv-x="884" d="M119 477l57 197h590l-57 -197h-590z" />
<glyph unicode="&#xae;" horiz-adv-x="1484" d="M102 782q0 83 22 162.5t62.5 151t97.5 131.5t128 104t154 68.5t175 24.5q88 0 170 -23t153.5 -65t130 -100.5t101 -130t65.5 -153.5t23 -170q0 -91 -24.5 -174t-68.5 -154.5t-104.5 -129t-132 -98.5t-151 -63t-162.5 -22q-86 0 -167 23.5t-152 66.5t-129.5 102 t-101 130.5t-66 152t-23.5 166.5zM185 782q0 -74 20.5 -143.5t57 -131t87.5 -113t112.5 -89t131 -58t144.5 -20.5q111 0 212.5 42t179 116t123.5 174.5t46 217.5q0 121 -44.5 224t-120.5 178.5t-177 118t-214 42.5q-82 0 -155 -22t-135 -60.5t-111.5 -91t-84.5 -114.5 t-53.5 -131t-18.5 -139zM485 432v726h274q303 0 303 -199q0 -78 -43.5 -129t-122.5 -67l163 -331h-154l-148 310h-135v-310h-137zM622 829h116q98 0 140.5 27t42.5 88q0 66 -44 96t-143 30h-112v-241z" />
<glyph unicode="&#xb0;" horiz-adv-x="1024" d="M52 637l457 457l456 -457l-456 -456zM128 637l381 -380l380 380l-380 381zM292 637l217 218l217 -218l-217 -217z" />
<glyph unicode="&#xb1;" horiz-adv-x="901" d="M48 752l201 145l201 146l402 -291l-153 -473h-497zM167 533l283 -205l142 102l141 103l-108 333h-350zM294 671l156 113l78 -57l79 -56l-60 -184h-193z" />
<glyph unicode="&#xb6;" d="M61 1138q0 67 24.5 122.5t69 95t106.5 61t137 21.5h432v-59h-106v-1229h-80v1229h-173v-1229h-82v690q-78 3 -139 25.5t-103 61.5t-64 92.5t-22 118.5z" />
<glyph unicode="&#xb7;" horiz-adv-x="1082" d="M74 581l212 198l198 -198l-198 -198zM351 317l198 199l201 -199l-201 -219zM351 841l198 215l196 -215l-196 -198zM613 581l198 198l214 -198l-214 -205z" />
<glyph unicode="&#xba;" horiz-adv-x="983" d="M26 654l113 196l114 197h454l227 -393l-227 -394h-454zM116 654l182 -315h364l181 315l-181 314h-364zM243 654l59 103l59 102h238l118 -205l-118 -206h-238z" />
<glyph unicode="&#xbb;" horiz-adv-x="880" d="M110 22l225 386q-54 94 -108 189t-109 189h65q81 -95 163.5 -189.5t165.5 -189.5q-84 -99 -165 -193t-163 -192h-74zM413 22l219 386q-54 94 -109.5 189t-109.5 189h65q83 -95 165.5 -189.5t164.5 -189.5q-83 -99 -163 -193t-164 -192h-68z" />
<glyph unicode="&#xbf;" horiz-adv-x="774" d="M77 304v675h675v-675h-675z" />
<glyph unicode="&#xd7;" horiz-adv-x="1484" d="M255 273l408 408l-408 408l85 86l408 -408l408 408l85 -86l-408 -408l408 -408l-85 -84l-408 406l-408 -406z" />
<glyph unicode="&#xe0;" horiz-adv-x="990" d="M80 410q0 179 158 253q108 50 371 80l95 13v46q0 52 -13.5 86t-39.5 54.5t-64 29t-88 8.5q-101 0 -155.5 -43t-54.5 -131h-170q0 79 26.5 139t76 100.5t119.5 60.5t158 20q90 0 158 -15.5t113.5 -51t68.5 -92.5t23 -140v-453q0 -98 58 -98l47 4v-125q-18 -6 -32 -9.5 t-25.5 -6t-21.5 -3t-22 -0.5q-133 0 -152 144q-138 -153 -326 -153q-69 0 -126 19.5t-97.5 56.5t-62.5 89t-22 118zM255 419q0 -69 44.5 -107t125.5 -38q57 0 107.5 18t88 48t59.5 70t22 85v133q-33 -5 -60.5 -9t-55.5 -8.5t-59.5 -10.5t-72.5 -15q-54 -13 -92 -27.5 t-62 -33.5t-34.5 -44.5t-10.5 -60.5zM259 1513h154l170 -289h-86q-60 73 -119 145t-119 144z" />
<glyph unicode="&#xe1;" horiz-adv-x="990" d="M80 410q0 179 158 253q108 50 371 80l95 13v46q0 52 -13.5 86t-39.5 54.5t-64 29t-88 8.5q-101 0 -155.5 -43t-54.5 -131h-170q0 79 26.5 139t76 100.5t119.5 60.5t158 20q90 0 158 -15.5t113.5 -51t68.5 -92.5t23 -140v-453q0 -98 58 -98l47 4v-125q-18 -6 -32 -9.5 t-25.5 -6t-21.5 -3t-22 -0.5q-133 0 -152 144q-138 -153 -326 -153q-69 0 -126 19.5t-97.5 56.5t-62.5 89t-22 118zM255 419q0 -69 44.5 -107t125.5 -38q57 0 107.5 18t88 48t59.5 70t22 85v133q-33 -5 -60.5 -9t-55.5 -8.5t-59.5 -10.5t-72.5 -15q-54 -13 -92 -27.5 t-62 -33.5t-34.5 -44.5t-10.5 -60.5zM386 1224l170 289h154q-60 -72 -119 -144t-119 -145h-86z" />
<glyph unicode="&#xe7;" horiz-adv-x="935" d="M70 613q0 115 30 207.5t85.5 157t135 99.5t178.5 35q87 0 158 -24t122 -68.5t79.5 -107t30.5 -140.5h-151q-7 97 -69 148t-170 51q-129 0 -197.5 -90.5t-68.5 -261.5q0 -172 65.5 -263.5t189.5 -91.5q109 0 174.5 56t82.5 165h149q-4 -78 -32.5 -143t-78 -112.5 t-118.5 -76t-153 -32.5v-68h22q90 0 137.5 -35t47.5 -101q0 -153 -207 -153q-45 0 -99.5 8t-114.5 25v81q69 -16 124 -24.5t88 -8.5q45 0 68.5 17t23.5 48q0 69 -105 69q-15 0 -27 -0.5t-23 -0.5v143q-89 8 -158.5 46.5t-118.5 102.5t-74.5 151t-25.5 192z" />
<glyph unicode="&#xe8;" horiz-adv-x="990" d="M66 628q0 116 33 208t92 156t141 98t180 34q92 0 168.5 -29t131.5 -87.5t85.5 -148t30.5 -210.5l-1 -75h-689q0 -147 69.5 -223.5t197.5 -76.5q194 0 238 191h171q-18 -80 -55 -142.5t-90 -106t-121 -66.5t-149 -23q-101 0 -181 34.5t-136 99.5t-86 157.5t-30 209.5z M244 722h519q0 60 -19 107.5t-52.5 80.5t-80.5 50.5t-103 17.5q-228 0 -264 -256zM254 1513h154l170 -289h-86q-60 73 -119 145t-119 144z" />
<glyph unicode="&#xe9;" horiz-adv-x="990" d="M66 628q0 116 33 208t92 156t141 98t180 34q92 0 168.5 -29t131.5 -87.5t85.5 -148t30.5 -210.5l-1 -75h-689q0 -147 69.5 -223.5t197.5 -76.5q194 0 238 191h171q-18 -80 -55 -142.5t-90 -106t-121 -66.5t-149 -23q-101 0 -181 34.5t-136 99.5t-86 157.5t-30 209.5z M244 722h519q0 60 -19 107.5t-52.5 80.5t-80.5 50.5t-103 17.5q-228 0 -264 -256zM386 1224l170 289h154q-60 -72 -119 -144t-119 -145h-86z" />
<glyph unicode="&#xea;" horiz-adv-x="990" d="M66 628q0 116 33 208t92 156t141 98t180 34q92 0 168.5 -29t131.5 -87.5t85.5 -148t30.5 -210.5l-1 -75h-689q0 -147 69.5 -223.5t197.5 -76.5q194 0 238 191h171q-18 -80 -55 -142.5t-90 -106t-121 -66.5t-149 -23q-101 0 -181 34.5t-136 99.5t-86 157.5t-30 209.5z M244 722h519q0 60 -19 107.5t-52.5 80.5t-80.5 50.5t-103 17.5q-228 0 -264 -256zM244 1224q43 75 82.5 144.5t82.5 144.5h161q42 -74 82.5 -144.5t82.5 -144.5h-89l-157 206q-38 -50 -79 -103.5t-79 -102.5h-87z" />
<glyph unicode="&#xf4;" horiz-adv-x="990" d="M66 628q0 118 29.5 210.5t85 156.5t135.5 97.5t181 33.5q100 0 180 -33.5t136 -97.5t85.5 -156.5t29.5 -210.5q0 -117 -29 -209.5t-84.5 -157.5t-135.5 -99.5t-182 -34.5q-101 0 -180.5 34.5t-135.5 99t-85.5 157.5t-29.5 210zM240 628q0 -82 17 -147.5t50 -111.5 t80.5 -70.5t109.5 -24.5q124 0 190 93t66 266q0 81 -17 145.5t-50 108.5t-80.5 67.5t-108.5 23.5q-124 0 -190.5 -91t-66.5 -259zM244 1224q43 75 82.5 144.5t82.5 144.5h161q42 -74 82.5 -144.5t82.5 -144.5h-89l-157 206q-38 -50 -79 -103.5t-79 -102.5h-87z" />
<glyph unicode="&#xf7;" horiz-adv-x="1484" d="M221 621v121h1042v-121h-1042zM634 361q0 22 9 41.5t24 34.5t34.5 23.5t41.5 8.5t41.5 -9t34.5 -24t24 -34.5t9 -40.5q0 -23 -8.5 -43t-23.5 -34.5t-35 -23t-42 -8.5q-23 0 -43 8t-34.5 22.5t-23 34.5t-8.5 44zM634 1002q0 23 9 43t24.5 35t35 23.5t40.5 8.5 q22 0 41.5 -9t34.5 -24t24 -35t9 -42q0 -23 -8.5 -42.5t-23.5 -34.5t-35 -23.5t-42 -8.5q-23 0 -42.5 8.5t-34.5 23t-23.5 34.5t-8.5 43z" />
<glyph unicode="&#x153;" horiz-adv-x="1656" d="M71 602q0 122 29 217t84.5 160t136 99t184.5 34q229 0 336 -176q129 176 337 176q98 0 175.5 -32.5t131.5 -93t82.5 -148t28.5 -196.5q0 -20 -3 -65v-5h-675q1 -72 20 -129.5t53.5 -97.5t84 -61.5t111.5 -21.5q94 0 156 49t80 140h156q-13 -77 -48 -138t-88 -104 t-121.5 -66t-147.5 -23q-121 0 -209 47.5t-137 140.5q-52 -94 -134 -141t-199 -47q-100 0 -178.5 33t-133 95t-83.5 151.5t-29 202.5zM237 617q0 -171 68 -264t194 -93q61 0 110 26.5t83 76t52.5 119.5t18.5 156q0 76 -18 138t-51.5 105.5t-81 67.5t-106.5 24 q-129 0 -199 -92.5t-70 -263.5zM920 701h509v5q0 62 -17.5 111.5t-49.5 84t-79 53t-105 18.5q-56 0 -101.5 -19.5t-79 -55t-53.5 -85.5t-24 -112z" />
<glyph unicode="&#x60c;" horiz-adv-x="471" d="M110 351q0 40 13.5 86.5t37.5 91.5t57 86t72 70q-37 -66 -50 -113.5t-13 -93.5q0 -65 30.5 -110.5t94.5 -70.5l-49 -139q-5 -1 -9 -1h-7q-32 0 -64 11.5t-57 35.5t-40.5 60.5t-15.5 86.5z" />
<glyph unicode="&#x61b;" horiz-adv-x="565" d="M158 703q0 36 12 72.5t32 79.5v-1q17 32 37 58.5t43 48.5q-20 -45 -30 -82t-10 -69q0 -60 25 -99t82 -60l-40 -112q-5 -1 -10 -1h-10q-26 0 -49.5 13t-41.5 35.5t-29 52.5t-11 64zM168 259q0 24 9 45.5t25 37t37 25t44 9.5q24 0 45 -9.5t36.5 -25t25 -37t9.5 -45.5 t-9.5 -45t-25 -37t-36.5 -25.5t-45 -9.5q-23 0 -44 9.5t-37 25.5t-25 37t-9 45z" />
<glyph unicode="&#x61f;" horiz-adv-x="961" d="M142 1016q23 171 113 257t249 86q45 0 96.5 -7t109.5 -21q66 -17 94 -45.5t28 -57.5q0 -17 -6.5 -33.5t-17 -29.5t-23.5 -20.5t-27 -7.5q-7 0 -13.5 1.5t-11.5 3.5q-42 12 -93 25t-99 13q-36 0 -67.5 -8t-57.5 -27t-44.5 -50.5t-28.5 -78.5q5 -42 19 -76.5t34 -64 t43.5 -55.5t47.5 -50q20 -21 39 -41.5t33.5 -41.5t23.5 -42.5t9 -43.5q0 -18 -7 -33t-19 -25.5t-27 -16t-31 -5.5q-17 0 -36.5 9t-38.5 28q-41 35 -87 81t-88 103.5t-73.5 125.5t-42.5 148zM387 259q0 24 9 45.5t25 37t37 25t44 9.5q24 0 45.5 -9.5t37 -25t25 -37t9.5 -45.5 t-9.5 -45t-25 -37t-37 -25.5t-45.5 -9.5q-23 0 -44 9.5t-37 25.5t-25 37t-9 45z" />
<glyph unicode="&#x621;" horiz-adv-x="820" d="M76 171v143q0 16 16 16h153v433q0 127 55 183t156 56h267q7 0 12 -4.5t5 -12.5v-143q0 -6 -5 -10.5t-12 -4.5h-300v-497h300q7 0 12 -4.5t5 -11.5v-143q0 -7 -5 -11.5t-12 -4.5h-631q-16 0 -16 16z" />
<glyph unicode="&#x622;" horiz-adv-x="387" d="M43 1485h6v-6q-2 3 -6 6zM46 1556q1 0 3 5v-5h-3zM49 1485v71h308v-71h8q-2 -2 -4.5 -3t-3.5 -3v6h-308zM107 164v1157q0 7 5 11.5t12 4.5h143q6 0 11 -4.5t5 -11.5v-1157q0 -6 -5 -11t-11 -5h-143q-7 0 -12 5t-5 11zM357 1556v3q0 -3 4 -3h-4z" />
<glyph unicode="&#x623;" horiz-adv-x="387" d="M71 -266q0 7 5.5 13t13.5 6h44v103q0 54 23.5 78t66.5 24h99q7 0 11.5 -5.5t4.5 -12.5v-55q0 -7 -4.5 -12.5t-11.5 -5.5h-100v-114h100q7 0 11.5 -6t4.5 -13v-52q0 -19 -16 -19h-233q-8 0 -13.5 5.5t-5.5 13.5v52zM109 164v1157q0 16 17 16h143q6 0 11 -4.5t5 -11.5 v-1157q0 -6 -5 -11t-11 -5h-143q-8 0 -12.5 5t-4.5 11z" />
<glyph unicode="&#x624;" horiz-adv-x="846" d="M82 394v369q0 127 54.5 183t157.5 56h255q103 0 157.5 -56t54.5 -183q0 -76 -1 -152t-1 -152v-303q0 -123 -37 -218.5t-105 -160.5t-164.5 -98.5t-216.5 -33.5l-104 5q-9 2 -15.5 6t-6.5 11v142q0 7 4.5 12.5t12.5 5.5q22 0 55 -2t65 -2q57 0 113 11t104 46t84.5 100.5 t55.5 174.5h-310q-103 0 -157.5 56t-54.5 183zM257 330h328v497h-328v-497zM290 1238v52q0 7 5.5 13t13.5 6h44v103q0 54 23.5 78t66.5 24h99q7 0 11.5 -5.5t4.5 -12.5v-55q0 -7 -4.5 -12.5t-11.5 -5.5h-100v-114h100q7 0 11.5 -6t4.5 -13v-52q0 -19 -16 -19h-233 q-8 0 -13.5 5.5t-5.5 13.5z" />
<glyph unicode="&#x625;" horiz-adv-x="387" d="M50 1533v52q0 7 5.5 13t13.5 6h44v103q0 54 23.5 78t66.5 24h99q7 0 11.5 -5.5t4.5 -12.5v-55q0 -7 -4.5 -12.5t-11.5 -5.5h-100v-114h100q7 0 11.5 -6t4.5 -13v-52q0 -19 -16 -19h-233q-8 0 -13.5 5.5t-5.5 13.5zM108 164v1157q0 16 17 16h143q6 0 10.5 -4.5t4.5 -11.5 v-1157q0 -6 -4.5 -11t-10.5 -5h-143q-8 0 -12.5 5t-4.5 11z" />
<glyph unicode="&#x626;" horiz-adv-x="1163" d="M19 669v52q0 7 5.5 13t13.5 6h44v103q0 54 23.5 78t66.5 24h99q7 0 11.5 -5.5t4.5 -12.5v-55q0 -7 -4.5 -12.5t-11.5 -5.5h-100v-114h100q7 0 11.5 -6t4.5 -13v-52q0 -19 -16 -19h-233q-8 0 -13.5 5.5t-5.5 13.5zM81 266q0 11 0.5 24.5t0.5 36.5v59v92q0 17 17 17h144 q6 0 11.5 -4.5t5.5 -12.5v-233q0 -72 11.5 -144.5t48 -133t104.5 -101t180 -47.5h11q54 0 107.5 23t99 66t79.5 105.5t48 141.5q-85 0 -145.5 16.5t-99.5 47.5t-57.5 75t-18.5 100v369q0 127 54 183t157 56h239q6 0 10 -5t4 -13v-142q0 -6 -4 -11t-10 -5l-276 1v-497h234 q68 -1 68 -152q0 -22 -3 -47t-3 -56q-15 -96 -62 -175t-116 -136t-156 -89.5t-182 -33.5q-87 5 -158 31t-126.5 68.5t-96 100t-67 125.5t-39.5 144t-14 156z" />
<glyph unicode="&#x627;" horiz-adv-x="387" d="M108 164v1157q0 16 17 16h143q6 0 10.5 -4.5t4.5 -11.5v-1157q0 -6 -4.5 -11t-10.5 -5h-143q-8 0 -12.5 5t-4.5 11z" />
<glyph unicode="&#x628;" horiz-adv-x="1294" d="M55 394v84q0 7 5 11.5t11 4.5h143q6 0 11 -4.5t5 -11.5v-148h825v653q0 6 5 11.5t13 5.5h143q7 0 12 -5.5t5 -11.5l-1 -589q0 -127 -55 -183t-157 -56h-753q-102 0 -157 56t-55 183zM564 -175q0 21 8 39.5t21.5 32.5t32 22t38.5 8q21 0 39.5 -8t32.5 -22t22 -32.5 t8 -39.5t-8 -39.5t-22 -32.5t-32.5 -22t-39.5 -8q-20 0 -38.5 8t-32 22t-21.5 32.5t-8 39.5z" />
<glyph unicode="&#x629;" horiz-adv-x="840" d="M75 394v369q0 127 55 183t157 56h255q103 0 158 -56t55 -183v-369q0 -127 -55 -183t-157 -56h-256q-102 0 -157 56t-55 183zM171 1342q0 21 8 39.5t21.5 32.5t32 22t38.5 8q21 0 39.5 -8t32.5 -22t22 -32.5t8 -39.5t-8 -39.5t-22 -32.5t-32.5 -22t-39.5 -8q-20 0 -38.5 8 t-32 22t-21.5 32.5t-8 39.5zM251 330h328v497h-328v-497zM447 1342q0 21 8 39.5t21.5 32.5t32 22t38.5 8q21 0 39.5 -8t32.5 -22t22 -32.5t8 -39.5t-8 -39.5t-22 -32.5t-32.5 -22t-39.5 -8q-20 0 -38.5 8t-32 22t-21.5 32.5t-8 39.5z" />
<glyph unicode="&#x62a;" horiz-adv-x="1294" d="M55 394v84q0 7 5 11.5t11 4.5h143q6 0 11 -4.5t5 -11.5v-148h825v653q0 6 5 11.5t13 5.5h143q7 0 12 -5.5t5 -11.5l-1 -589q0 -127 -55 -183t-157 -56h-753q-102 0 -157 56t-55 183zM346 1043q0 21 8 39.5t21.5 32.5t32 22t38.5 8q21 0 39.5 -8t32.5 -22t22 -32.5 t8 -39.5t-8 -39.5t-22 -32.5t-32.5 -22t-39.5 -8q-20 0 -38.5 8t-32 22t-21.5 32.5t-8 39.5zM622 1043q0 21 8 39.5t21.5 32.5t32 22t38.5 8q21 0 39.5 -8t32.5 -22t22 -32.5t8 -39.5t-8 -39.5t-22 -32.5t-32.5 -22t-39.5 -8q-20 0 -38.5 8t-32 22t-21.5 32.5t-8 39.5z" />
<glyph unicode="&#x62b;" horiz-adv-x="1294" d="M55 394v84q0 7 5 11.5t11 4.5h143q6 0 11 -4.5t5 -11.5v-148h825v653q0 6 5 11.5t13 5.5h143q7 0 12 -5.5t5 -11.5l-1 -589q0 -127 -55 -183t-157 -56h-753q-102 0 -157 56t-55 183zM354 1081q0 21 8 39.5t21.5 32.5t32 22t38.5 8q21 0 39.5 -8t32.5 -22t22 -32.5 t8 -39.5t-8 -39.5t-22 -32.5t-32.5 -22t-39.5 -8q-20 0 -38.5 8t-32 22t-21.5 32.5t-8 39.5zM495 1318q0 21 8 39.5t21.5 32.5t32 22t38.5 8q21 0 39.5 -8t32.5 -22t22 -32.5t8 -39.5t-8 -39.5t-22 -32.5t-32.5 -22t-39.5 -8q-20 0 -38.5 8t-32 22t-21.5 32.5t-8 39.5z M630 1081q0 21 8 39.5t21.5 32.5t32 22t38.5 8q21 0 39.5 -8t32.5 -22t22 -32.5t8 -39.5t-8 -39.5t-22 -32.5t-32.5 -22t-39.5 -8q-20 0 -38.5 8t-32 22t-21.5 32.5t-8 39.5z" />
<glyph unicode="&#x62c;" horiz-adv-x="931" d="M55 -13q0 85 30 166t90 145t149.5 103t209.5 40h160v146q-14 78 -47.5 124.5t-79.5 71.5t-101.5 32.5t-112.5 7.5q-30 0 -61 -1t-61 -1q-14 0 -14 16v144q0 9 15 13t35 6t41 2h33q109 0 199 -28.5t156.5 -83.5t107.5 -136t53 -186l3 -293q0 -10 -16 -10h-170 q-68 0 -109.5 -0.5t-67 -1t-39.5 -2t-26 -4.5h1q-40 -8 -75.5 -23t-64 -41t-49 -64.5t-29.5 -92.5v-70q13 -77 46.5 -124t80 -72t101.5 -33t112 -8q32 0 64 1t58 1q6 0 11 -5t5 -11v-144q0 -8 -15.5 -12.5t-36 -6.5t-41 -2.5t-31.5 -0.5q-102 0 -186.5 24t-150.5 67h1 q-44 31 -77.5 70.5t-56 84.5t-33.5 93.5t-11 98.5zM397 0q0 21 8 39.5t21.5 32.5t32 22t38.5 8q21 0 39.5 -8t32.5 -22t22 -32.5t8 -39.5t-8 -39.5t-22 -32.5t-32.5 -22t-39.5 -8q-20 0 -38.5 8t-32 22t-21.5 32.5t-8 39.5z" />
<glyph unicode="&#x62d;" horiz-adv-x="931" d="M55 -13q0 102 28.5 182.5t87.5 138t149 91.5t214 42h160v146q-14 78 -47.5 124.5t-79.5 71.5t-101.5 32.5t-112.5 7.5q-30 0 -61 -1t-61 -1q-14 0 -14 16v144q0 9 15 13t35 6t41 2h33q109 0 199 -28.5t156.5 -83.5t107.5 -136t53 -186l3 -293q0 -10 -16 -10h-170 q-68 0 -109.5 -0.5t-67 -1t-39.5 -2t-26 -4.5h1q-40 -8 -75.5 -23t-64 -41t-49 -64.5t-29.5 -92.5v-70q13 -77 46.5 -124t80 -72t101.5 -33t112 -8q32 0 64 1t58 1q6 0 11 -5t5 -11v-144q0 -8 -15.5 -12.5t-36 -6.5t-41 -2.5t-31.5 -0.5q-102 0 -186.5 24t-150.5 67h1 q-44 31 -77.5 70.5t-56 84.5t-33.5 93.5t-11 98.5z" />
<glyph unicode="&#x62e;" horiz-adv-x="931" d="M63 3q0 82 28 161t86 145l264 148q38 4 61 4.5t45 0.5h141v131q-12 70 -43.5 112t-74.5 64t-95 29t-105 7q-29 0 -58 -1t-61 -1q-12 0 -21 9t-9 22v141q0 15 16 22.5t37.5 10.5t44.5 3h39q111 0 201.5 -28.5t158 -83.5t108.5 -136.5t53 -187.5l3 -288v-3q0 -11 -9.5 -18 t-21.5 -7h-167q-65 0 -105 -0.5t-64.5 -1t-38 -2t-24.5 -4.5v1q-37 -8 -69.5 -22t-59 -38t-45 -59.5t-27.5 -85.5v-68q12 -70 43 -112t74 -64.5t94.5 -30t105.5 -7.5q30 0 62 1.5t57 1.5q13 0 22 -9t9 -22v-141q0 -15 -16 -22.5t-37.5 -10.5t-45 -3.5t-38.5 -0.5 q-102 0 -186.5 24t-150.5 68v-1q-45 31 -79 71.5t-56.5 86t-34 95t-11.5 100.5zM368 1323q0 21 8 39.5t21.5 32.5t32 22t38.5 8q21 0 39.5 -8t32.5 -22t22 -32.5t8 -39.5t-8 -39.5t-22 -32.5t-32.5 -22t-39.5 -8q-20 0 -38.5 8t-32 22t-21.5 32.5t-8 39.5zM879 577v7h41v-7 h-41z" />
<glyph unicode="&#x62f;" horiz-adv-x="831" d="M68 171v143q0 7 5 11.5t12 4.5h497v497h-411q-7 0 -12 4.5t-5 10.5v143q0 8 5 12.5t12 4.5h374q103 0 158 -56t55 -183v-369q0 -127 -55 -183t-158 -56h-460q-7 0 -12 4.5t-5 11.5z" />
<glyph unicode="&#x630;" horiz-adv-x="831" d="M68 171v143q0 7 5 11.5t12 4.5h497v497h-411q-7 0 -12 4.5t-5 10.5v143q0 8 5 12.5t12 4.5h374q103 0 158 -56t55 -183v-369q0 -127 -55 -183t-158 -56h-460q-7 0 -12 4.5t-5 11.5zM270 1326q0 21 8 39.5t21.5 32.5t32 22t38.5 8q21 0 39.5 -8t32.5 -22t22 -32.5t8 -39.5 t-8 -39.5t-22 -32.5t-32.5 -22t-39.5 -8q-20 0 -38.5 8t-32 22t-21.5 32.5t-8 39.5z" />
<glyph unicode="&#x631;" horiz-adv-x="624" d="M36 -191q0 7 4.5 12.5t11.5 5.5h40q49 3 94 15.5t82 38.5t63.5 70t38.5 110v931q0 10 12 10h163q3 0 3 -10l-4 -836q0 -107 -28.5 -193t-80.5 -149.5t-126 -104t-165 -56.5h-2q-16 -2 -30.5 -3.5t-26.5 -1.5q-5 0 -13.5 0.5t-16.5 2t-13.5 5.5t-5.5 11v142z" />
<glyph unicode="&#x632;" horiz-adv-x="624" d="M35 -191q0 7 5 12.5t12 5.5h40q49 3 94 15.5t82 38.5t63.5 70t38.5 110v931q0 10 12 10h163q2 0 2 -10l-3 -836q0 -107 -28.5 -193t-80.5 -149.5t-126 -104t-165 -56.5h-2q-16 -2 -30.5 -3.5t-26.5 -1.5q-5 0 -13.5 0.5t-16.5 2t-14 5.5t-6 11v142zM366 1334q0 21 8 39.5 t21.5 32.5t32 22t38.5 8q21 0 39.5 -8t32.5 -22t22 -32.5t8 -39.5t-8 -39.5t-22 -32.5t-32.5 -22t-39.5 -8q-20 0 -38.5 8t-32 22t-21.5 32.5t-8 39.5z" />
<glyph unicode="&#x633;" horiz-adv-x="2120" d="M29 269v70q0 22 0.5 55.5t0.5 83.5q0 17 16 17h143q7 0 12 -4.5t5 -12.5v-207q0 -49 3.5 -102t16 -103t35.5 -95t62 -78.5t96.5 -53.5t138.5 -20q108 1 174 36t101.5 89.5t47.5 120t12 128.5l-1 790q0 6 4.5 11.5t11.5 5.5h145q7 0 11 -5.5t4 -11.5v-653h330v653 q0 6 4.5 11.5t12.5 5.5h143q7 0 11.5 -5.5t4.5 -11.5v-653h328v653q0 6 5.5 11.5t11.5 5.5h143q8 0 13 -5.5t5 -11.5v-589q0 -127 -55.5 -183t-158.5 -56h-798q-5 -107 -51 -200t-119.5 -162t-168.5 -109t-199 -43q-134 7 -229 60.5t-155.5 139t-88.5 196t-28 232.5z" />
<glyph unicode="&#x634;" horiz-adv-x="2120" d="M29 269v70q0 22 0.5 55.5t0.5 83.5q0 17 16 17h143q7 0 12 -4.5t5 -12.5v-207q0 -49 3.5 -102t16 -103t35.5 -95t62 -78.5t96.5 -53.5t138.5 -20q108 1 174 36t101.5 89.5t47.5 120t12 128.5l-1 790q0 6 4.5 11.5t11.5 5.5h145q7 0 11 -5.5t4 -11.5v-653h330v653 q0 6 4.5 11.5t12.5 5.5h143q7 0 11.5 -5.5t4.5 -11.5v-653h328v653q0 6 5.5 11.5t11.5 5.5h143q8 0 13 -5.5t5 -11.5v-589q0 -127 -55.5 -183t-158.5 -56h-798q-3 -126 -48.5 -221.5t-119.5 -159.5t-170 -97t-200 -36q-134 7 -229 60.5t-155.5 139t-88.5 196t-28 232.5z M1238 1334q0 21 8 39.5t21.5 32.5t32 22t38.5 8q21 0 39.5 -8t32.5 -22t22 -32.5t8 -39.5t-8 -39.5t-22 -32.5t-32.5 -22t-39.5 -8q-20 0 -38.5 8t-32 22t-21.5 32.5t-8 39.5zM1379 1571q0 21 8 39.5t21.5 32.5t32 22t38.5 8q21 0 39.5 -8t32.5 -22t22 -32.5t8 -39.5 t-8 -39.5t-22 -32.5t-32.5 -22t-39.5 -8q-20 0 -38.5 8t-32 22t-21.5 32.5t-8 39.5zM1514 1334q0 21 8 39.5t21.5 32.5t32 22t38.5 8q21 0 39.5 -8t32.5 -22t22 -32.5t8 -39.5t-8 -39.5t-22 -32.5t-32.5 -22t-39.5 -8q-20 0 -38.5 8t-32 22t-21.5 32.5t-8 39.5z" />
<glyph unicode="&#x635;" horiz-adv-x="2099" d="M27 266q0 11 0.5 24.5t0.5 36.5v59v92q0 17 16 17h144q7 0 12 -4.5t5 -12.5v-206q0 -49 3.5 -102t16 -103t35.5 -95t62 -79t96.5 -54t137.5 -20q72 1 125.5 17.5t91 44t61 64t36.5 78t18 85t5 85.5v42t-0.5 72t-1 87t-1 87t-0.5 72v42q1 125 56.5 182t157.5 57h758 q101 0 156 -56t55 -183v-201q0 -127 -55 -183t-156 -56h-793q-10 -113 -57 -207.5t-120 -162.5t-166.5 -106t-195.5 -38q-130 7 -225 61t-156.5 139t-91.5 195t-30 230zM1067 330h831v329h-831v-329z" />
<glyph unicode="&#x636;" horiz-adv-x="2099" d="M27 266q0 11 0.5 24.5t0.5 36.5v59v92q0 17 16 17h144q7 0 12 -4.5t5 -12.5v-206q0 -49 3.5 -102t16 -103t35.5 -95t62 -79t96.5 -54t137.5 -20q72 1 125.5 17.5t91 44t61 64t36.5 78t18 85t5 85.5v42t-0.5 72t-1 87t-1 87t-0.5 72v42q1 125 56.5 182t157.5 57h758 q101 0 156 -56t55 -183v-201q0 -127 -55 -183t-156 -56h-793q-10 -113 -57 -207.5t-120 -162.5t-166.5 -106t-195.5 -38q-130 7 -225 61t-156.5 139t-91.5 195t-30 230zM1067 330h831v329h-831v-329zM1357 1152q0 21 8 39.5t21.5 32.5t32 22t38.5 8q21 0 39.5 -8t32.5 -22 t22 -32.5t8 -39.5t-8 -39.5t-22 -32.5t-32.5 -22t-39.5 -8q-20 0 -38.5 8t-32 22t-21.5 32.5t-8 39.5z" />
<glyph unicode="&#x637;" horiz-adv-x="1355" d="M0 155v175h108v991q0 7 5 11.5t13 4.5h140q19 0 19 -16v-487h792q103 0 158 -56t55 -183v-201q0 -127 -54 -183t-157 -56h-1079zM283 330h831v329h-831v-329z" />
<glyph unicode="&#x638;" horiz-adv-x="1490" d="M48 171v143q0 7 5 11.5t11 4.5h189v991q0 16 15 16h143q7 0 12 -4.5t5 -11.5v-487h793q103 0 158 -56t55 -183v-201q0 -127 -54.5 -183t-158.5 -56h-1157q-6 0 -11 4.5t-5 11.5zM428 330h830v329h-830v-329zM743 1152q0 21 8 39.5t21.5 32.5t32 22t38.5 8q21 0 39.5 -8 t32.5 -22t22 -32.5t8 -39.5t-8 -39.5t-22 -32.5t-32.5 -22t-39.5 -8q-20 0 -38.5 8t-32 22t-21.5 32.5t-8 39.5z" />
<glyph unicode="&#x639;" horiz-adv-x="977" d="M62 -33q-1 28 3 66.5t16 81t33.5 86.5t56 84.5t83.5 73.5t116 54l-156 301q-29 56 -30.5 108t24.5 92t79 64t131 24h462q6 0 11 -4.5t5 -12.5v-143q0 -6 -5 -10.5t-11 -4.5h-515l190 -387q2 0 4.5 0.5t5.5 0.5h314q7 0 11.5 -5t4.5 -11v-143q0 -16 -16 -16l-312 -1 q-24 0 -50 -1t-53 -7h1q-39 -9 -73.5 -24.5t-63 -42t-49 -66t-30.5 -95.5v-63q13 -77 46 -124t79 -72t101 -33t112 -8q32 0 65 1t58 1q7 0 12 -5t5 -11v-144q0 -8 -20 -13.5t-48 -9.5t-57.5 -6t-47.5 -2q-107 0 -197 34t-155 92t-102 136t-38 165z" />
<glyph unicode="&#x63a;" horiz-adv-x="977" d="M62 -33q-1 28 3 66.5t16 81t33.5 86.5t56 84.5t83.5 73.5t116 54l-156 301q-29 56 -30.5 108t24.5 92t79 64t131 24h462q6 0 11 -4.5t5 -12.5v-143q0 -6 -5 -10.5t-11 -4.5h-515l190 -387q2 0 4.5 0.5t5.5 0.5h314q7 0 11.5 -5t4.5 -11v-143q0 -16 -16 -16l-312 -1 q-24 0 -50 -1t-53 -7h1q-39 -9 -73.5 -24.5t-63 -42t-49 -66t-30.5 -95.5v-63q13 -77 46 -124t79 -72t101 -33t112 -8q32 0 65 1t58 1q7 0 12 -5t5 -11v-144q0 -8 -20 -13.5t-48 -9.5t-57.5 -6t-47.5 -2q-107 0 -197 34t-155 92t-102 136t-38 165zM470 1334q0 21 8 39.5 t21.5 32.5t32 22t38.5 8q21 0 39.5 -8t32.5 -22t22 -32.5t8 -39.5t-8 -39.5t-22 -32.5t-32.5 -22t-39.5 -8q-20 0 -38.5 8t-32 22t-21.5 32.5t-8 39.5z" />
<glyph unicode="&#x640;" horiz-adv-x="433" d="M19 155v175h392v-175h-392z" />
<glyph unicode="&#x641;" horiz-adv-x="1284" d="M50 394v84q0 7 5 11.5t11 4.5h143q8 0 13 -4.5t5 -11.5v-148h321v433q0 127 54 183t157 56h254q103 0 158 -56t55 -183v-369q0 -127 -54.5 -183t-157.5 -56h-751q-103 0 -158 56t-55 183zM722 330h328v497h-328v-497zM768 1334q0 21 8 39.5t21.5 32.5t32 22t38.5 8 q21 0 39.5 -8t32.5 -22t22 -32.5t8 -39.5t-8 -39.5t-22 -32.5t-32.5 -22t-39.5 -8q-20 0 -38.5 8t-32 22t-21.5 32.5t-8 39.5z" />
<glyph unicode="&#x642;" horiz-adv-x="1311" d="M83 269v209q0 17 16 17h144q5 0 9 -5t6 -13v-206q0 -49 8.5 -102t28 -103t51 -95t77 -78.5t106.5 -53.5t140 -20q89 1 159.5 27.5t121 71.5t80 106t36.5 131h-293q-101 0 -156 56t-55 183v369q0 127 55 183t156 56h256q103 0 157.5 -56t54.5 -183v-599q-4 -88 -30 -160.5 t-69 -130t-99.5 -100.5t-122 -71.5t-136.5 -43.5t-143 -17q-135 7 -239 60.5t-175 139t-107.5 196t-36.5 232.5zM650 1334q0 21 8 39.5t21.5 32.5t32 22t38.5 8q21 0 39.5 -8t32.5 -22t22 -32.5t8 -39.5t-8 -39.5t-22 -32.5t-32.5 -22t-39.5 -8q-20 0 -38.5 8t-32 22 t-21.5 32.5t-8 39.5zM738 330h326v497h-326v-497zM926 1334q0 21 8 39.5t21.5 32.5t32 22t38.5 8q21 0 39.5 -8t32.5 -22t22 -32.5t8 -39.5t-8 -39.5t-22 -32.5t-32.5 -22t-39.5 -8q-20 0 -38.5 8t-32 22t-21.5 32.5t-8 39.5z" />
<glyph unicode="&#x643;" horiz-adv-x="1294" d="M55 394v84q0 7 5 11.5t11 4.5h143q6 0 11 -4.5t5 -11.5v-148h825v1005q0 6 5 11.5t13 5.5h143q7 0 12 -5.5t5 -11.5l-1 -941q0 -127 -55 -183t-157 -56h-753q-102 0 -157 56t-55 183zM382 708v67q0 9 7.5 17t17.5 8h57v156q0 71 31 102t87 31h181q9 0 15 -7.5t6 -16.5 v-71q0 -9 -6 -16t-15 -7h-182v-171h182q9 0 15 -8t6 -17v-67q0 -11 -6 -18t-15 -7h-356q-10 0 -17.5 7t-7.5 18z" />
<glyph unicode="&#x644;" horiz-adv-x="1182" d="M64 250v228q0 8 4.5 12.5t10.5 4.5h142q8 0 13 -5t5 -13v-205q0 -49 4 -102t16.5 -103t36 -95t62.5 -79t96 -54t137 -20q108 1 174 36t102 89.5t48 120t12 128.5v25q0 15 -1 25v1078q0 16 17 16h143q16 0 16 -16v-1172q0 -124 -42.5 -218.5t-114.5 -159t-166.5 -97.5 t-198.5 -33q-143 0 -241.5 48.5t-159.5 132t-88 194t-27 234.5z" />
<glyph unicode="&#x645;" horiz-adv-x="1158" d="M58 -97q0 60 18.5 122.5t60.5 119.5t109.5 105t165.5 78v435q0 127 55 183t157 56h255q101 0 156.5 -56t55.5 -183v-369q0 -127 -54.5 -183t-157.5 -56h-268q-8 1 -22 1h-22q-335 0 -335 -334v-21t1 -22v-139q0 -6 -4.5 -10t-10.5 -4h-143q-16 0 -16 14v217q-1 5 -1 9v9 v28zM588 330h328v497h-328v-497z" />
<glyph unicode="&#x646;" horiz-adv-x="1178" d="M66 269v209q0 17 15 17h144q6 0 10 -5t6 -13v-206q0 -49 4 -102t16.5 -103t35.5 -95t62.5 -78.5t96.5 -53.5t137 -20q108 1 174 36t102 89.5t48 120t12 128.5v25q0 15 -1 25v740q0 6 5 11.5t12 5.5h143q8 0 12 -5.5t4 -11.5l-2 -820q-7 -145 -52.5 -244t-118 -159.5 t-167 -88t-199.5 -30.5q-134 7 -228.5 60.5t-154.5 139t-88 196t-28 232.5zM434 1074q0 21 8 39.5t21.5 32.5t32 22t38.5 8q21 0 39.5 -8t32.5 -22t22 -32.5t8 -39.5t-8 -39.5t-22 -32.5t-32.5 -22t-39.5 -8q-20 0 -38.5 8t-32 22t-21.5 32.5t-8 39.5z" />
<glyph unicode="&#x647;" horiz-adv-x="840" d="M75 394v369q0 127 55 183t157 56h255q103 0 158 -56t55 -183v-369q0 -127 -55 -183t-157 -56h-256q-102 0 -157 56t-55 183zM251 330h328v497h-328v-497z" />
<glyph unicode="&#x648;" horiz-adv-x="846" d="M82 394v369q0 127 54.5 183t157.5 56h255q103 0 157.5 -56t54.5 -183q0 -76 -1 -152t-1 -152v-303q0 -123 -37 -218.5t-105 -160.5t-164.5 -98.5t-216.5 -33.5l-104 5q-9 2 -15.5 6t-6.5 11v142q0 7 4.5 12.5t12.5 5.5q22 0 55 -2t65 -2q57 0 113 11t104 46t84.5 100.5 t55.5 174.5h-310q-103 0 -157.5 56t-54.5 183zM257 330h328v497h-328v-497z" />
<glyph unicode="&#x649;" horiz-adv-x="1158" d="M60 267v211q0 8 5 12.5t13 4.5h143q7 0 12.5 -4.5t5.5 -12.5v-206q0 -8 -0.5 -16t-0.5 -16q0 -71 12 -143t49 -131.5t105 -99.5t180 -47h11q53 0 106.5 23t99.5 66t80 105.5t49 141.5h-103t-82 5t-62 18t-43 39.5t-25 69.5t-8 107v369q0 127 53.5 183t157.5 56h239 q6 0 10 -5t4 -13v-142q0 -6 -4 -11t-10 -5l-276 1v-497l163 -2q78 0 108.5 -37.5t30.5 -112.5q0 -22 -3 -47t-3 -56q-15 -96 -62 -175t-116 -136t-155.5 -89.5t-181.5 -33.5q-133 7 -228 60t-156 138t-89.5 195.5t-28.5 232.5z" />
<glyph unicode="&#x64a;" horiz-adv-x="1148" d="M60 267v211q0 8 5 12.5t13 4.5h143q7 0 12.5 -4.5t5.5 -12.5v-206q0 -8 -0.5 -16t-0.5 -16q0 -71 12 -143t49 -131.5t105 -99.5t180 -47h11q53 0 106.5 23t99.5 66t80 105.5t49 141.5h-103t-82 5t-62 18t-43 39.5t-25 69.5t-8 107v369q0 127 53.5 183t157.5 56h239 q6 0 10 -5t4 -13v-142q0 -6 -4 -11t-10 -5l-276 1v-497l163 -2q78 0 108.5 -37.5t30.5 -112.5q0 -22 -3 -47t-3 -56q-15 -96 -62 -175t-116 -136t-155.5 -89.5t-181.5 -33.5q-133 7 -228 60t-156 138t-89.5 195.5t-28.5 232.5zM328 -634q0 21 8 39.5t21.5 32.5t32 22t38.5 8 q21 0 39.5 -8t32.5 -22t22 -32.5t8 -39.5t-8 -39.5t-22 -32.5t-32.5 -22t-39.5 -8q-20 0 -38.5 8t-32 22t-21.5 32.5t-8 39.5zM604 -634q0 21 8 39.5t21.5 32.5t32 22t38.5 8q21 0 39.5 -8t32.5 -22t22 -32.5t8 -39.5t-8 -39.5t-22 -32.5t-32.5 -22t-39.5 -8q-20 0 -38.5 8 t-32 22t-21.5 32.5t-8 39.5z" />
<glyph unicode="&#x64b;" horiz-adv-x="408" d="M49 1482l17 91l340 193l-17 -91zM63 1649l17 91l340 193l-17 -91z" />
<glyph unicode="&#x64c;" horiz-adv-x="469" d="M45 1619q23 34 55.5 51t61.5 17t49 -16.5t20 -51.5q0 -34 -23 -80q46 20 85.5 44t71.5 62q-45 11 -64 35.5t-19 53.5q0 26 12 51t30.5 45t42 32.5t47.5 12.5q20 -2 27 -23t7 -47q0 -29 -5 -58t-9 -40l38 -12l-17 -76l-46 13q-8 -18 -28 -45.5t-47 -53t-58 -43.5t-62 -18 t-46 16t-15 36q0 23 8 47t8 41q0 12 -6.5 19.5t-26.5 7.5q-14 0 -36.5 -4.5t-54.5 -15.5zM334 1768q0 -20 19 -30t43 -21q0 5 1 10q0 5 0.5 10.5t0.5 12.5q0 14 -2 27.5t-8 17.5v-2q-6 6 -12.5 8t-12.5 2q-15 0 -22 -11t-7 -24z" />
<glyph unicode="&#x64d;" horiz-adv-x="408" d="M38 -509l17 91l340 193l-17 -91zM65 -341l17 91l340 193l-17 -91z" />
<glyph unicode="&#x64e;" horiz-adv-x="408" d="M49 1482l17 91l340 193l-17 -91z" />
<glyph unicode="&#x64f;" horiz-adv-x="414" d="M12 1506q0 1 1 1q61 25 105.5 43t79 36t62.5 39.5t56 54.5q-52 12 -73.5 38t-21.5 58q0 27 12.5 54t33 48.5t46.5 35.5t52 14t35.5 -22t9.5 -54t-6 -63t-11 -44l44 -13l-19 -80l-52 12q-11 -23 -36.5 -51.5t-60.5 -53.5t-76 -42.5t-83 -17.5q-56 0 -77 4t-21 3zM279 1814 q0 -23 21 -34t50 -22q0 5 1 11q0 5 0.5 12t0.5 15q0 15 -2 28.5t-9 18.5v-2q-6 7 -14.5 8.5t-13.5 1.5q-17 0 -25.5 -11.5t-8.5 -25.5z" />
<glyph unicode="&#x650;" horiz-adv-x="408" d="M55 -341l17 91l340 193l-17 -91z" />
<glyph unicode="&#x651;" horiz-adv-x="425" d="M59 1619q0 37 9 70t18 47q0 -1 1 -1t5.5 3.5t9.5 7t9.5 7t6.5 3.5q1 0 1 -1q-8 -17 -12.5 -39.5t-4.5 -43.5q0 -29 11.5 -48.5t40.5 -19.5t44.5 16t23.5 37.5t12.5 44.5t12.5 38q0 -2 2 -2q4 0 12.5 9.5t12.5 9.5q2 0 2 -1q-4 -15 -4 -32q0 -34 17 -57t44 -23q6 0 14 1.5 t15.5 5t13 10.5t5.5 19q0 19 -9.5 40.5t-20.5 36.5q13 18 24.5 34t22.5 32q17 -26 25 -57.5t8 -61.5q0 -28 -6.5 -54.5t-19 -47t-31 -33t-43.5 -12.5t-37.5 9t-27.5 23q-6 -11 -16 -25t-24.5 -26.5t-34.5 -21t-45 -8.5t-42 9.5t-27 25t-14 35.5t-4 41z" />
<glyph unicode="&#x652;" horiz-adv-x="328" d="M57 1582q0 37 12 78t32.5 75t48.5 56.5t60 22.5q25 0 48.5 -12t42.5 -29.5t31 -38t15 -38.5q1 -4 1 -8v-8q0 -31 -14.5 -65t-37.5 -78v1q0 1 1 2l-3 -5q-13 -8 -30 -15.5t-36.5 -13.5t-40.5 -9.5t-40 -3.5q-40 0 -65 19.5t-25 69.5zM122 1651q0 -28 20.5 -40t48.5 -12 q23 0 47.5 7.5t43.5 20.5l1 1q-3 13 -12.5 28.5t-23 28.5t-29.5 21.5t-32 8.5q-32 0 -48 -21t-16 -43z" />
<glyph unicode="&#x660;" horiz-adv-x="1149" d="M426 619v254q0 8 6.5 14.5t15.5 6.5h254q9 0 15 -6.5t6 -14.5v-254q0 -8 -6 -14t-15 -6h-254q-9 0 -15.5 6t-6.5 14z" />
<glyph unicode="&#x661;" horiz-adv-x="652" d="M238 167v1150q0 8 7 14t15 6h142q8 0 14 -6t6 -14v-1150q0 -8 -6 -14t-14 -6h-142q-8 0 -15 6t-7 14z" />
<glyph unicode="&#x662;" horiz-adv-x="1149" d="M231 950q0 104 34.5 177t91.5 119t130.5 67.5t151.5 23.5h16q13 0 31 0.5t38.5 1.5t40.5 2q38 1 69.5 2t38.5 1q8 0 17.5 -1.5t17.5 -4.5t13.5 -7.5t5.5 -10.5v-141q0 -9 -6.5 -15.5t-14.5 -6.5h-39l-232 1q-49 -6 -89 -17t-68.5 -31t-44 -51t-15.5 -76q0 -14 1.5 -28 t3.5 -28q43 -192 88.5 -386.5t89.5 -386.5q-4 -11 -17 -11h-162q-3 0 -4.5 4.5t-2.5 10.5q-44 170 -87.5 340.5t-87.5 340.5l1 -2q-5 31 -7.5 59t-2.5 54z" />
<glyph unicode="&#x663;" horiz-adv-x="1149" d="M126 167v1150q0 8 6.5 14t14.5 6h142q9 0 15 -6t6 -14v-339h182v338q0 9 5.5 15t13.5 6h143q8 0 14 -6t6 -15l-1 -312l1 -26h182v338q0 9 5.5 15t14.5 6h143q8 0 14 -6t6 -15v-278q0 -130 -55.5 -186.5t-159.5 -56.5h-514v-628q0 -8 -6 -14t-15 -6h-142q-8 0 -14.5 6 t-6.5 14z" />
<glyph unicode="&#x664;" horiz-adv-x="1149" d="M196 464q0 81 45.5 167t151.5 166q-24 31 -49 61t-47 62.5t-38.5 68t-24.5 76.5q1 64 22 115.5t56.5 87.5t81.5 55.5t98 19.5h405q9 0 15.5 -6.5t6.5 -15.5v-142q0 -8 -6.5 -13.5t-15.5 -5.5h-421q-29 -18 -42.5 -38.5t-13.5 -42.5q0 -23 11 -48t30 -52.5t44.5 -57 t53.5 -60.5h239q10 0 16 -6t6 -15v-141q0 -9 -6 -15t-16 -6l-247 -1q-39 -10 -71 -30.5t-54 -47.5t-34 -58.5t-12 -62.5q0 -48 27 -88.5t87 -62.5h403q9 0 15.5 -6t6.5 -14v-142q0 -9 -6.5 -15t-15.5 -6h-405q-60 0 -114 26t-94.5 69.5t-64 101.5t-23.5 123z" />
<glyph unicode="&#x665;" horiz-adv-x="1149" d="M113 504q0 83 18 172t50.5 175t76.5 163.5t95.5 137t108.5 96t115 40.5q58 -4 115 -40.5t108.5 -96t95.5 -137t76.5 -163.5t50.5 -175t18 -172q0 -72 -16.5 -136t-51.5 -112t-89.5 -77.5t-129.5 -33.5h-354q-78 2 -132.5 31t-89 77.5t-50 113t-15.5 137.5zM292 534 q0 -44 9 -82t29 -65.5t52 -43t77 -15.5h236q45 0 77 15.5t52 43t29 65.5t9 82q0 55 -13.5 118t-35.5 124.5t-51.5 117.5t-61 99t-63.5 68.5t-60 25.5t-60 -25.5t-63.5 -68.5t-61 -99t-51.5 -117.5t-35.5 -124.5t-13.5 -118z" />
<glyph unicode="&#x666;" horiz-adv-x="1149" d="M176 1179v141q0 6 5.5 10.5t13.5 7.5t17.5 4.5t17.5 1.5t27 -0.5t43.5 -1.5t51 -2t51 -1.5t43 -1t25.5 -0.5q89 -17 162.5 -58t126 -104.5t81.5 -149t29 -191.5q1 -170 2 -338.5t2 -337.5q-1 -6 -2.5 -10.5t-4.5 -4.5h-162q-7 0 -12 4t-5 10v775q-14 56 -39 94.5 t-56.5 63.5t-68.5 38t-75 19.5t-76 7.5t-72 1h-35q-16 0 -30 1h-39q-8 0 -14.5 6.5t-6.5 15.5z" />
<glyph unicode="&#x667;" horiz-adv-x="1149" d="M133 1321q0 7 5.5 11.5t13.5 4.5h142q10 0 16 -7.5t7 -17.5l186 -828q16 -71 36 -112t43 -40t41.5 42t32.5 113l185 825q1 10 7 17.5t16 7.5h142q8 0 13.5 -4.5t5.5 -11.5q-51 -231 -101.5 -460t-101.5 -459q-28 -112 -84 -173t-159 -75q-91 10 -153 71.5t-89 175.5 q-26 115 -51 230t-51 230q-26 114 -51 229.5t-51 230.5z" />
<glyph unicode="&#x668;" horiz-adv-x="1149" d="M133 171q26 115 51 230t51 230t51 229.5t51 230.5q27 114 89 175t153 71q103 -13 159 -74t84 -173q50 -227 101 -459t102 -460q0 -8 -5.5 -12.5t-13.5 -4.5h-142q-10 0 -16 7.5t-7 18.5q-46 202 -93 412.5t-92 412.5q-14 72 -32.5 116.5t-41.5 45.5q-11 0 -22 -11.5 t-21 -32.5t-19 -50.5t-17 -64.5l-186 -828q-1 -11 -7 -18.5t-16 -7.5h-142q-8 0 -13.5 4.5t-5.5 12.5z" />
<glyph unicode="&#x669;" horiz-adv-x="1149" d="M224 729v367q0 129 55 185t160 56h253q105 0 160 -56t55 -185v-28v-38t-0.5 -61t-0.5 -95v-141v-196l-2 -370q0 -8 -6 -14t-15 -6h-141q-9 0 -15.5 6t-6.5 14v320h-281q-105 0 -160 56.5t-55 185.5zM407 670h313l3 485h-316v-485z" />
<glyph unicode="&#x66a;" horiz-adv-x="829" d="M23 1149q0 23 9 43t24 34.5t35 23t42 8.5t42 -8.5t35 -23t23.5 -34.5t8.5 -43t-8.5 -43t-23.5 -35t-35 -23.5t-42 -8.5t-42 8.5t-35 23.5t-24 35t-9 43zM100 -49q54 181 105 350.5t101.5 337t101.5 336.5t105 350l166 88q-54 -182 -105 -351t-101 -336t-101 -336 t-106 -350q-43 -23 -83.5 -45t-82.5 -44zM545 193q0 22 8.5 42t23.5 35t34.5 23.5t42.5 8.5q22 0 42 -8.5t35 -23.5t24 -35t9 -42q0 -23 -9 -42.5t-24 -34.5t-35 -23.5t-42 -8.5q-23 0 -42.5 8.5t-34.5 23.5t-23.5 34.5t-8.5 42.5z" />
<glyph unicode="&#x66d;" horiz-adv-x="815" d="M71 1074v68l214 18l-139 162l47 49l164 -139l17 213h68l17 -213l163 139l49 -49l-140 -162l214 -18v-68l-214 -17l140 -163l-49 -48l-163 139l-17 -214h-68l-17 214l-164 -139l-47 48l139 163z" />
<glyph unicode="&#x6f9;" horiz-adv-x="1033" d="M93 175v934h934v-934h-934zM223 304h675v675h-675v-675z" />
<glyph unicode="&#x2000;" horiz-adv-x="1067" />
<glyph unicode="&#x2001;" horiz-adv-x="2134" />
<glyph unicode="&#x2002;" horiz-adv-x="1067" />
<glyph unicode="&#x2003;" horiz-adv-x="2134" />
<glyph unicode="&#x2004;" horiz-adv-x="711" />
<glyph unicode="&#x2005;" horiz-adv-x="533" />
<glyph unicode="&#x2006;" horiz-adv-x="355" />
<glyph unicode="&#x2007;" horiz-adv-x="355" />
<glyph unicode="&#x2008;" horiz-adv-x="266" />
<glyph unicode="&#x2009;" horiz-adv-x="426" />
<glyph unicode="&#x200a;" horiz-adv-x="118" />
<glyph unicode="&#x200c;" horiz-adv-x="45" d="M10 -80v1631h25v-1631h-25z" />
<glyph unicode="&#x200d;" horiz-adv-x="45" d="M-102 1427l109 109l-109 108l16 16l109 -108l109 108l16 -16l-109 -108l109 -109l-16 -16l-97 96v-1587h-25v1586l-96 -95z" />
<glyph unicode="&#x200e;" horiz-adv-x="45" d="M8 -80v1631h234l-93 93l17 17l125 -124q-32 -33 -62.5 -63.5l-62.5 -62.5l-17 17l97 97h-213v-1605h-25z" />
<glyph unicode="&#x200f;" horiz-adv-x="45" d="M-246 1537l125 124l17 -17l-93 -93h234v-1631h-25v1605h-213l97 -97l-17 -17q-32 32 -62.5 63t-62.5 63z" />
<glyph unicode="&#x2010;" horiz-adv-x="884" d="M119 477l57 197h590l-57 -197h-590z" />
<glyph unicode="&#x2011;" horiz-adv-x="884" d="M119 477l57 197h590l-57 -197h-590z" />
<glyph unicode="&#x2012;" horiz-adv-x="884" d="M119 477l57 197h590l-57 -197h-590z" />
<glyph unicode="&#x2013;" d="M0 574v95h891v-95h-891z" />
<glyph unicode="&#x2014;" horiz-adv-x="1782" d="M0 574v95h1782v-95h-1782z" />
<glyph unicode="&#x2018;" horiz-adv-x="385" d="M107 1465q1 31 24 53t55 22h59q2 -60 3.5 -114t3 -106.5t3 -106t3.5 -113.5q0 -20 -21.5 -32t-48.5 -17q-11 56 -21 106.5t-19.5 100t-19.5 100.5t-21 107z" />
<glyph unicode="&#x2019;" horiz-adv-x="385" d="M127 1100q2 60 3.5 113.5t3 106t3 106.5t3.5 114h59q33 0 56 -22t23 -53q-11 -56 -21 -107t-19.5 -100.5t-19.5 -100t-21 -106.5q-27 5 -48 17t-22 32z" />
<glyph unicode="&#x201a;" horiz-adv-x="447" d="M137 -25q40 5 63.5 41.5t23.5 96.5v37h-87v177h173v-206q0 -94 -44 -152t-129 -76v82z" />
<glyph unicode="&#x201c;" horiz-adv-x="622" d="M107 1465q1 31 24 53t55 22h59q2 -60 3.5 -114t3 -106.5t3 -106t3.5 -113.5q0 -20 -21.5 -32t-48.5 -17q-11 56 -21 106.5t-19.5 100t-19.5 100.5t-21 107zM358 1465q0 31 23 53t56 22h59q1 -60 3 -114t3.5 -106.5t3 -106t3.5 -113.5q-2 -20 -23 -32t-48 -17 q-11 56 -20.5 106.5t-19.5 100t-19.5 100.5t-20.5 107z" />
<glyph unicode="&#x201d;" horiz-adv-x="622" d="M130 1100q2 60 3.5 113.5t3.5 106t3.5 106.5t3.5 114h59q32 0 55 -22t24 -53q-11 -56 -21 -107t-19.5 -100.5t-19 -100t-20.5 -106.5q-28 5 -49 17t-23 32zM381 1100q2 60 3.5 113.5t3 106t3 106.5t3.5 114h59q33 0 56 -22t23 -53q-11 -56 -21 -107t-19.5 -100.5 t-19 -100t-20.5 -106.5q-28 5 -49 17t-22 32z" />
<glyph unicode="&#x2022;" horiz-adv-x="613" d="M-1 515q0 64 23.5 119.5t65 97t97 65t118.5 23.5t118.5 -24t96.5 -65t64.5 -96.5t23.5 -119.5q0 -63 -23.5 -118t-64.5 -96t-96.5 -64.5t-118.5 -23.5q-64 0 -119.5 23.5t-96.5 64.5t-64.5 96t-23.5 118z" />
<glyph unicode="&#x202f;" horiz-adv-x="426" />
<glyph unicode="&#x205f;" horiz-adv-x="533" />
<glyph unicode="&#x2122;" horiz-adv-x="1484" d="M211 1349v69h393v-69h-150v-399h-94v399h-149zM707 950v468h131l131 -334l123 334h130v-468h-85v387l-144 -387h-49l-151 387v-387h-86z" />
<glyph unicode="&#xe000;" horiz-adv-x="1105" d="M0 0v1105h1105v-1105h-1105z" />
<glyph unicode="&#xe820;" horiz-adv-x="408" d="M61 1032l17 91l340 193l-17 -91z" />
<glyph unicode="&#xe821;" horiz-adv-x="414" d="M-8 1046q0 1 1 1q61 25 105.5 43t79 36t62.5 39.5t56 54.5q-52 12 -73.5 38t-21.5 58q0 27 12.5 54t33 48.5t46.5 35.5t52 14t35.5 -22t9.5 -54t-6 -63t-11 -44l44 -13l-19 -80l-52 12q-11 -23 -36.5 -51.5t-60.5 -53.5t-76 -42.5t-83 -17.5q-56 0 -77 4t-21 3zM259 1354 q0 -23 21 -34t50 -22q0 5 1 11q0 5 0.5 12t0.5 15q0 15 -2 28.5t-9 18.5v-2q-6 7 -14.5 8.5t-13.5 1.5q-17 0 -25.5 -11.5t-8.5 -25.5z" />
<glyph unicode="&#xe822;" horiz-adv-x="328" d="M54 1135q0 37 12 78t32.5 75t48.5 56.5t60 22.5q25 0 48.5 -12t42.5 -29.5t31 -38t15 -38.5q1 -4 1 -8v-8q0 -31 -14.5 -65t-37.5 -78v1q0 1 1 2l-3 -5q-13 -8 -30 -15.5t-36.5 -13.5t-40.5 -9.5t-40 -3.5q-40 0 -65 19.5t-25 69.5zM119 1204q0 -28 20.5 -40t48.5 -12 q23 0 47.5 7.5t43.5 20.5l1 1q-3 13 -12.5 28.5t-23 28.5t-29.5 21.5t-32 8.5q-32 0 -48 -21t-16 -43z" />
<glyph unicode="&#xe823;" horiz-adv-x="408" d="M51 1029l17 91l340 193l-17 -91zM65 1196l17 91l340 193l-17 -91z" />
<glyph unicode="&#xe824;" horiz-adv-x="469" d="M44 1194q23 34 55.5 51t61.5 17t49 -16.5t20 -51.5q0 -34 -23 -80q46 20 85.5 44t71.5 62q-45 11 -64 35.5t-19 53.5q0 26 12 51t30.5 45t42 32.5t47.5 12.5q20 -2 27 -23t7 -47q0 -29 -5 -58t-9 -40l38 -12l-17 -76l-46 13q-8 -18 -28 -45.5t-47 -53t-58 -43.5t-62 -18 t-46 16t-15 36q0 23 8 47t8 41q0 12 -6.5 19.5t-26.5 7.5q-14 0 -36.5 -4.5t-54.5 -15.5zM333 1343q0 -20 19 -30t43 -21q0 5 1 10q0 5 0.5 10.5t0.5 12.5q0 14 -2 27.5t-8 17.5v-2q-6 6 -12.5 8t-12.5 2q-15 0 -22 -11t-7 -24z" />
<glyph unicode="&#xe825;" horiz-adv-x="425" d="M57 1160q0 37 9 70t18 47q0 -1 1 -1t5.5 3.5t9.5 7t9.5 7t6.5 3.5q1 0 1 -1q-8 -17 -12.5 -39.5t-4.5 -43.5q0 -29 11.5 -48.5t40.5 -19.5t44.5 16t23.5 37.5t12.5 44.5t12.5 38q0 -2 2 -2q4 0 12.5 9.5t12.5 9.5q2 0 2 -1q-4 -15 -4 -32q0 -34 17 -57t44 -23q6 0 14 1.5 t15.5 5t13 10.5t5.5 19q0 19 -9.5 40.5t-20.5 36.5q13 18 24.5 34t22.5 32q17 -26 25 -57.5t8 -61.5q0 -28 -6.5 -54.5t-19 -47t-31 -33t-43.5 -12.5t-37.5 9t-27.5 23q-6 -11 -16 -25t-24.5 -26.5t-34.5 -21t-45 -8.5t-42 9.5t-27 25t-14 35.5t-4 41z" />
<glyph unicode="&#xe826;" horiz-adv-x="408" d="M55 -341l17 91l340 193l-17 -91z" />
<glyph unicode="&#xe827;" horiz-adv-x="408" d="M38 -509l17 91l340 193l-17 -91zM65 -341l17 91l340 193l-17 -91z" />
<glyph unicode="&#xe828;" horiz-adv-x="425" d="M60 1259l17 91l340 193l-17 -91zM65 1137q0 22 4.5 41.5t9.5 30.5q0 -1 1 -1t4.5 4t8 9t8.5 9t6 4q1 0 1 -1q-3 -14 -5.5 -27.5t-2.5 -24.5q0 -19 8 -31t29 -12q25 0 40.5 8t24.5 21t13 29.5t5.5 33.5t2.5 32.5t5 27.5l1 -1q2 0 5 3.5t6 8t6.5 8t5.5 3.5q1 0 2 -1 q-1 -5 -1 -13q0 -38 19.5 -64t47.5 -26q5 0 13.5 2t16.5 6.5t14 11.5t6 17q0 20 -14 42t-29 37q5 10 14.5 15.5t20 10t20 9.5t15.5 13q6 -11 6 -16q0 -4 -1 -6.5t-1 -7.5q0 -2 0.5 -5t2.5 -8q15 -41 15 -83q0 -24 -5.5 -46.5t-17 -40t-29 -27.5t-41.5 -10q-17 0 -29 6 t-26 16q-5 -14 -14 -31t-24 -33t-38 -26.5t-54 -10.5q-22 0 -36.5 8t-23.5 21.5t-12.5 30.5t-3.5 34z" />
<glyph unicode="&#xe829;" horiz-adv-x="425" d="M10 1346q0 1 1 1q60 20 103 34t77 28t61.5 31t54.5 43q-51 9 -72 30t-21 46q0 22 13 43.5t34 38t47 27t52 10.5q23 -2 31 -19.5t8 -40.5q0 -25 -6 -49.5t-11 -34.5l43 -10l-19 -63l-50 10q-11 -18 -36 -40.5t-59 -42.5t-74.5 -33.5t-81.5 -13.5q-53 0 -73.5 3.5 t-21.5 1.5zM72 1191q0 26 4 47t9 32q0 -1 1 -1t5 4l8.5 8.5l8.5 8.5t6 4q1 0 1 -1q-3 -12 -5 -26.5t-2 -29.5q0 -17 2.5 -33t9 -28.5t16.5 -20t25 -7.5q33 0 48 17.5t21 42t7.5 49.5t6.5 40l1 -1q2 0 5 3.5t6.5 8t6.5 8t5 3.5t2 -1q-1 -5 -1 -14q0 -38 19.5 -64t47.5 -26 q5 0 13.5 2t16.5 6t14 10.5t6 16.5q0 20 -14 43t-28 38q11 20 19.5 37.5t17.5 34.5q26 -31 39.5 -69.5t13.5 -78.5q0 -25 -5.5 -48t-17.5 -40t-30 -27.5t-42 -10.5q-17 0 -28.5 6.5t-25.5 16.5q-5 -12 -13.5 -29t-23 -32.5t-36 -26.5t-50.5 -11q-26 0 -43.5 12.5t-28 33 t-14.5 45t-4 48.5zM271 1589q0 -18 20.5 -27t48.5 -17q0 4 1 9q0 4 0.5 9.5t0.5 11.5q0 11 -2 22t-9 14v-1q-6 5 -13 6.5t-12 1.5q-17 0 -26 -9t-9 -20z" />
<glyph unicode="&#xe82a;" horiz-adv-x="425" d="M70 1154q0 31 22 101l23 4q0 -111 39 -111q14 0 29 13t28 35.5t22 52t11 61.5l19 6q24 -98 61 -98q12 0 23.5 12t20.5 32t14.5 46.5t5.5 56.5l22 11q15 -51 15 -99q0 -76 -29.5 -121t-75.5 -45q-21 0 -64 21q-38 -87 -108 -87q-78 0 -78 109zM74 1283q0 22 1.5 36.5 t8.5 25.5t20 21t36 24l272 160q0 -23 -1 -38t-6 -25.5t-14.5 -19t-27.5 -18.5zM74 1433q0 23 2.5 38t9.5 27t20 22t34 22l272 159q0 -24 -1 -39t-6 -26t-15 -19t-27 -18z" />
<glyph unicode="&#xe82b;" horiz-adv-x="468" d="M40 1475q25 29 58.5 43.5t64.5 14.5q30 0 51 -14.5t21 -43.5q0 -14 -5.5 -31t-18.5 -37q48 17 89.5 38t75.5 53q-48 10 -67.5 30.5t-19.5 45.5q0 22 12 43t31.5 37.5t44.5 27t50 10.5q21 -2 28.5 -19t7.5 -40q0 -26 -5.5 -50t-9.5 -33l40 -10l-18 -65l-48 11 q-9 -15 -30 -38t-49 -44.5t-60.5 -37t-64.5 -15.5q-33 0 -49 13.5t-16 30.5q0 19 9 39.5t9 35.5q0 10 -7 16t-27 6q-15 0 -38.5 -4t-58.5 -13zM84 1193q0 26 4 47t9 32q0 -1 1 -1t5 4l8.5 8.5l8.5 8.5t6 4q1 0 1 -1q-3 -12 -5 -26.5t-2 -29.5q0 -17 2.5 -33t9 -28.5 t16.5 -20t25 -7.5q33 0 48 17.5t21 42t7.5 49.5t6.5 40l1 -1q2 0 5 3.5t6.5 8t6.5 8t5 3.5t2 -1q-1 -5 -1 -14q0 -38 19.5 -64t47.5 -26q5 0 13.5 2t16.5 6t14 10.5t6 16.5q0 20 -14 43t-28 38q11 20 19.5 37.5t17.5 34.5q26 -31 39.5 -69.5t13.5 -78.5q0 -25 -5.5 -48 t-17.5 -40t-30 -27.5t-42 -10.5q-17 0 -28.5 6.5t-25.5 16.5q-5 -12 -13.5 -29t-23 -32.5t-36 -26.5t-50.5 -11q-26 0 -43.5 12.5t-28 33t-14.5 45t-4 48.5zM343 1602q0 -17 20 -25l45 -18q0 5 1 9q0 4 0.5 9t0.5 11q0 12 -2 22.5t-8 14.5v-2q-6 6 -13.5 7t-12.5 1 q-17 0 -24 -9t-7 -20z" />
<glyph unicode="&#xe82c;" horiz-adv-x="425" d="M61 1396q0 28 4.5 51.5t10.5 34.5q0 -1 1 -1t5 4l8.5 8.5l8.5 8.5t6 4q1 0 1 -1q-8 -29 -8 -62t11.5 -59t40.5 -26q32 0 47.5 17t22 41t8 49t7.5 40l1 -1q2 0 5 3.5t7 7.5t7 7.5t5 3.5t2 -1q-1 -5 -1 -9v-9q0 -37 18.5 -62t46.5 -25q5 0 13 2t16 6t14 11t6 17 q0 19 -12.5 41t-26.5 38q11 20 20 37t19 34q24 -30 36.5 -67.5t12.5 -75.5q0 -26 -6 -49.5t-18 -41.5t-30 -28.5t-42 -10.5q-18 0 -29.5 7t-26.5 18q-5 -12 -13.5 -28.5t-23.5 -31.5t-36 -25.5t-49 -10.5q-26 0 -43 12t-27.5 31.5t-14.5 43t-4 47.5zM72 1031l17 91l340 193 l-17 -91z" />
<glyph unicode="&#xe82d;" horiz-adv-x="425" d="M35 1007l33 75l350 141l-33 -75zM45 1112l33 75l350 141l-33 -75zM60 1409q0 28 4.5 51.5t10.5 34.5q0 -1 1 -1t5 4l8.5 8.5l8.5 8.5t6 4q1 0 1 -1q-8 -29 -8 -62t11.5 -59t40.5 -26q32 0 47.5 17t22 41t8 49t7.5 40l1 -1q2 0 5 3.5t7 7.5t7 7.5t5 3.5t2 -1q-1 -5 -1 -9 v-9q0 -37 18.5 -62t46.5 -25q5 0 13 2t16 6t14 11t6 17q0 19 -12.5 41t-26.5 38q11 20 20 37t19 34q24 -30 36.5 -67.5t12.5 -75.5q0 -26 -6 -49.5t-18 -41.5t-30 -28.5t-42 -10.5q-18 0 -29.5 7t-26.5 18q-5 -12 -13.5 -28.5t-23.5 -31.5t-36 -25.5t-49 -10.5q-26 0 -43 12 t-27.5 31.5t-14.5 43t-4 47.5z" />
<glyph unicode="&#xe832;" horiz-adv-x="408" d="M10 1222q5 23 8 38.5t7 38.5q99 52 191.5 101.5t191.5 102.5l-14 -77q-97 -51 -192 -101.5t-192 -102.5z" />
<glyph unicode="&#xe833;" horiz-adv-x="408" d="M5 967q5 23 8 38.5t7 38.5q99 52 191.5 101.5t191.5 102.5l-14 -77q-97 -51 -192 -101.5t-192 -102.5z" />
<glyph unicode="&#xe834;" horiz-adv-x="566" d="M-34 1464q0 39 12.5 82.5t34 80.5t50.5 61t63 24q26 0 50 -12t43.5 -30.5t32.5 -40.5t16 -41q1 -4 1 -8v-8q0 -31 -16 -68t-40 -83q-14 -8 -32.5 -16t-39.5 -15t-43 -11t-42 -4q-41 0 -65.5 19.5t-24.5 69.5zM19 1543q0 -37 26 -53t61 -16l112 38q-4 16 -15.5 35.5 t-28 36t-36 28t-39.5 11.5t-34.5 -7.5t-25 -19.5t-15.5 -26t-5 -27z" />
<glyph unicode="&#xe835;" horiz-adv-x="420" d="M26 1084q0 37 9 70t18 47q0 -1 1 -1t5.5 3.5t9.5 7t9.5 7t6.5 3.5q1 0 1 -1q-8 -17 -12.5 -39.5t-4.5 -43.5q0 -29 11.5 -48.5t40.5 -19.5t44.5 16t23.5 37.5t12.5 44.5t12.5 38q0 -2 2 -2q4 0 12.5 9.5t12.5 9.5q2 0 2 -1q-4 -15 -4 -32q0 -34 17 -57t44 -23q6 0 14 1.5 t15.5 5t13 10.5t5.5 19q0 19 -9.5 40.5t-20.5 36.5q13 18 24.5 34t22.5 32q17 -26 25 -57.5t8 -61.5q0 -28 -6.5 -54.5t-19 -47t-31 -33t-43.5 -12.5t-37.5 9t-27.5 23q-6 -11 -16 -25t-24.5 -26.5t-34.5 -21t-45 -8.5t-42 9.5t-27 25t-14 35.5t-4 41z" />
<glyph unicode="&#xe836;" horiz-adv-x="381" d="M-42 1511q0 37 9 70t18 47q0 -1 1 -1t5.5 3.5t9.5 7t9.5 7t6.5 3.5q1 0 1 -1q-8 -17 -12.5 -39.5t-4.5 -43.5q0 -29 11.5 -48.5t40.5 -19.5t44.5 16t23.5 37.5t12.5 44.5t12.5 38q0 -2 2 -2q4 0 12.5 9.5t12.5 9.5q2 0 2 -1q-4 -15 -4 -32q0 -34 17 -57t44 -23 q6 0 14 1.5t15.5 5t13 10.5t5.5 19q0 19 -9.5 40.5t-20.5 36.5q13 18 24.5 34t22.5 32q17 -26 25 -57.5t8 -61.5q0 -28 -6.5 -54.5t-19 -47t-31 -33t-43.5 -12.5t-37.5 9t-27.5 23q-6 -11 -16 -25t-24.5 -26.5t-34.5 -21t-45 -8.5t-42 9.5t-27 25t-14 35.5t-4 41z" />
<glyph unicode="&#xfd3e;" horiz-adv-x="652" d="M174 -24v1696h304v-130h-174v-1436h174v-130h-304z" />
<glyph unicode="&#xfd3f;" horiz-adv-x="652" d="M169 -24v130h174v1436h-174v130h304v-1696h-304z" />
<glyph unicode="&#xfeff;" horiz-adv-x="744" />
</font>
</defs>
</svg>
