<?xml version="1.0" standalone="no"?>
<!DOCTYPE svg PUBLIC "-//W3C//DTD SVG 1.1//EN" "http://www.w3.org/Graphics/SVG/1.1/DTD/svg11.dtd" >
<svg xmlns="http://www.w3.org/2000/svg">
<metadata></metadata>
<defs>
<font id="ge_ss_twolight" horiz-adv-x="0" >
<font-face units-per-em="2048" ascent="1638" descent="-410" />
<missing-glyph horiz-adv-x="364" />
<glyph unicode="&#x627;&#x653;" horiz-adv-x="440" d="M49 1466l35 -47q51 60 84 60q32 0 100 -35t103 -35q61 0 127 78l-35 47q-49 -55 -90 -55q-29 0 -94 32q-72 35 -107 35q-70 0 -123 -80zM186 0h144v1325h-144v-1325z" />
<glyph unicode="&#x627;&#x654;" horiz-adv-x="440" d="M63 1417h392v82h-219q-21 30 -21 74q0 110 84 110q64 0 76 -71l84 8q-27 131 -160 131q-83 0 -125.5 -49t-42.5 -131q0 -40 14 -72h-82v-82zM186 0h144v1325h-144v-1325z" />
<glyph unicode="&#x648;&#x654;" horiz-adv-x="991" d="M127 485q0 -199 111 -326.5t280 -127.5q175 0 242 116q-6 -346 -289 -346v-137q225 12 328.5 135t103.5 375v305q0 199 -109 328t-276 129q-174 0 -282.5 -126.5t-108.5 -324.5zM268 487q0 137 66 229.5t176 92.5q112 0 183 -95t71 -235q0 -137 -66.5 -228t-177.5 -91 t-181.5 93t-70.5 234zM281 1049h483v100h-270q-25 39 -25 90q0 137 100 137q81 0 99 -88l98 10q-34 162 -197 162q-94 0 -149 -58.5t-55 -162.5q0 -47 16 -90h-100v-100z" />
<glyph unicode="&#x627;&#x655;" horiz-adv-x="460" d="M49 -336v-82h393v82h-221q-20 26 -20 72q0 110 84 110q62 0 77 -71l80 10q-27 129 -159 129q-82 0 -129 -53q-37 -46 -37 -125q0 -42 12 -72h-80zM207 0h143v1325h-143v-1325z" />
<glyph unicode="&#x64a;&#x654;" horiz-adv-x="1492" d="M66 360q0 -195 87 -355.5t239 -252.5t337 -92h12q140 0 263.5 54.5t211 148t138.5 223t51 274.5v191h-502q88 352 424 352v125q-274 0 -428 -156t-174 -466h539q0 -279 -142.5 -443t-386.5 -164q-226 0 -364.5 142.5t-157.5 394.5q-2 20 -2 221h-145v-197zM68 758h485 v100h-272q-25 39 -25 88q0 139 100 139q81 0 99 -90l98 13q-35 159 -197 159q-96 0 -150 -59t-54 -162q0 -45 16 -88h-100v-100z" />
<glyph unicode="&#x64c;&#x651;" arabic-form="isolated" d="M-49 1876q15 6 33 6q61 0 61 -78q0 -58 -41 -102q9 -22 12 -35q142 0 229 72.5t87 142.5q0 39 -31 69.5t-74 30.5q-40 0 -63 -26.5t-23 -63.5q0 -68 64 -123q-62 -59 -166 -65q43 55 43 106q0 38 -22.5 64.5t-53.5 26.5q-27 0 -55 -25zM25 1599l32 -155q15 -74 76 -74 q48 0 69 34t21 101q41 -92 96 -92q40 0 63.5 19.5t23.5 48.5q0 11 -7 43l-30 155l-43 -8l26 -139q2 -6 2 -21q0 -45 -37 -45q-62 0 -77 76l-21 105l-45 -13l21 -104q4 -20 4 -31q0 -28 -17 -51t-45 -23q-32 0 -41 48l-28 139zM170 1890q0 26 19 47t44 21t45.5 -21t20.5 -47 q0 -57 -72 -104q-57 34 -57 104z" />
<glyph unicode="&#x64d;&#x651;" arabic-form="isolated" d="M16 1849l33 -157q15 -74 76 -74q48 0 69 34.5t21 102.5q43 -94 96 -94q39 0 62.5 21t23.5 49q0 14 -6 38l-31 160l-43 -12l27 -137q2 -8 2 -23q0 -45 -41 -45q-56 0 -72 78l-22 104l-45 -12l20 -102q4 -24 4 -33q0 -29 -16 -51.5t-43 -22.5q-34 0 -43 47l-27 138z M70 1366q44 13 107.5 28.5t98.5 25t72.5 23t57 30t26.5 38.5l-297 -84q-47 -18 -65 -61zM86 1489q44 12 109 28.5t99 25.5t72.5 23t58 30.5t26.5 37.5l-299 -84q-45 -17 -66 -61z" />
<glyph unicode="&#x64e;&#x651;" arabic-form="isolated" d="M-12 1657q41 11 105.5 26.5t98 24.5t72 22.5t58 30t26.5 37.5l-297 -82q-44 -17 -63 -59zM4 1593l33 -155q15 -74 74 -74q92 0 92 135q40 -94 96 -94q38 0 61 21t23 49q0 6 -4 38l-31 160l-43 -12l27 -137q2 -6 2 -19q0 -47 -43 -47q-57 0 -72 78l-20 102l-45 -10 l20 -104q2 -10 2 -27q0 -32 -15.5 -56t-43.5 -24q-31 0 -43 47l-27 140z" />
<glyph unicode="&#x64f;&#x651;" arabic-form="isolated" d="M-25 1702q11 -23 14.5 -27t16.5 -4q130 0 212.5 71t82.5 140q0 42 -29.5 72.5t-72.5 30.5q-38 0 -62 -27.5t-24 -65.5q0 -68 61 -120q-70 -70 -172 -70h-27zM4 1610l33 -156q15 -76 74 -76q92 0 92 138q41 -95 96 -95q39 0 61.5 20t22.5 48q0 9 -4 41l-31 158l-43 -11 l27 -137q2 -6 2 -18q0 -47 -43 -47q-57 0 -72 75l-20 103l-45 -8l20 -105q2 -10 2 -27q0 -31 -17 -56t-42 -25q-14 0 -26.5 12.5t-16.5 36.5l-27 139zM141 1890q0 29 18.5 48.5t47.5 19.5q25 0 44 -19.5t19 -48.5q0 -57 -71 -104q-58 37 -58 104z" />
<glyph unicode="&#x650;&#x651;" arabic-form="isolated" d="M-8 1710l31 -156q15 -73 75 -73h21q71 17 71 135q40 -94 95 -94q41 0 63.5 20t22.5 49q0 7 -4 39l-33 160l-43 -12l28 -138q3 -12 3 -22q0 -43 -43 -43q-54 0 -72 78l-23 100l-43 -8l21 -105q4 -20 4 -30q0 -29 -17 -52.5t-45 -23.5q-34 0 -43 47l-26 139zM57 1368 q34 9 80 20t74.5 18t63 16t55.5 17.5t41.5 19t32 23t16.5 27.5l-299 -79q-42 -21 -64 -62z" />
<glyph unicode="&#xfe8e;&#x64b;" horiz-adv-x="618" arabic-form="final" d="M84 1384q40 11 107 27t99 24.5t71.5 22.5t58.5 30.5t26 37.5l-296 -80q-44 -20 -66 -62zM102 1507q40 11 106.5 27t99 25t72 23t59 30t26.5 37l-299 -80q-46 -21 -64 -62zM201 326q0 -148 77.5 -237t196.5 -89h203v143q-58 0 -95.5 1t-74.5 6t-58.5 12.5t-41.5 22t-30 33 t-17.5 48t-10 63.5t-2.5 83v913h-147v-999z" />
<glyph unicode="&#x627;&#x64b;" horiz-adv-x="440" arabic-form="isolated" d="M84 1384q40 11 107 27t99 24.5t71.5 22.5t58.5 30.5t26 37.5l-296 -80q-44 -20 -66 -62zM102 1507q40 11 106.5 27t99 25t72 23t59 30t26.5 37l-299 -80q-46 -21 -64 -62zM186 0h144v1325h-144v-1325z" />
<glyph unicode="&#xfedf;&#xfee0;&#xfeea;" horiz-adv-x="2430" arabic-form="isolated" d="M66 629q0 -135 47 -246.5t130.5 -176.5t186.5 -65q220 0 313 158q89 -299 392 -299h907q301 0 301 360v965h-145v-901q0 -112 -21.5 -173t-63.5 -84.5t-118 -23.5h-389q41 84 41 217v965h-144v-901q0 -162 -45.5 -222.5t-159.5 -60.5h-147q-123 0 -192.5 85.5 t-69.5 240.5v657h-434q-174 0 -281.5 -138t-107.5 -357zM209 637q0 163 76 272t196 109h260v-363q0 -401 -264 -401q-118 0 -193 111.5t-75 271.5zM1341 1698l31 -158q15 -74 76 -74q92 0 92 138q41 -95 94 -95q41 0 64.5 20.5t23.5 49.5q0 15 -6 39l-33 160l-43 -13 l29 -137q2 -8 2 -22q0 -45 -41 -45q-59 0 -74 77l-20 105l-45 -12l20 -103q5 -25 5 -31q0 -28 -17 -51.5t-45 -23.5q-34 0 -43 47l-25 137z" />
<glyph unicode="&#xfedf;&#xfe82;" horiz-adv-x="1120" arabic-form="isolated" d="M49 1350l35 -47q50 59 84 59q18 0 101 -35t102 -35q61 0 127 78l-35 47q-49 -55 -90 -55q-10 0 -95.5 34t-105.5 34q-70 0 -123 -80zM139 0h592q301 0 301 360v965h-143v-901q0 -163 -46.5 -223t-158.5 -60h-61l-258 1026h-156l264 -1026h-334v-141z" />
<glyph unicode="&#xfee0;&#xfe82;" horiz-adv-x="1300" arabic-form="final" d="M49 1350l35 -47q50 59 84 59l203 -70q61 0 127 78l-35 47q-49 -55 -90 -55q-10 0 -95.5 34t-105.5 34q-70 0 -123 -80zM135 0h1204v143h-354q43 82 43 217v965h-145v-901q0 -163 -45 -223t-160 -60h-60l-260 1026h-153l264 -1026h-334v-141z" />
<glyph unicode="&#xfedf;&#xfe84;" horiz-adv-x="1120" arabic-form="isolated" d="M63 1317h392v82h-219q-21 30 -21 74q0 110 84 110q64 0 76 -72l84 9q-27 131 -160 131q-83 0 -125.5 -49.5t-42.5 -131.5q0 -39 14 -71h-82v-82zM139 0h592q301 0 301 360v965h-143v-901q0 -163 -46.5 -223t-158.5 -60h-61l-258 1026h-156l264 -1026h-334v-141z" />
<glyph unicode="&#xfee0;&#xfe84;" horiz-adv-x="1300" arabic-form="final" d="M63 1317h392v82h-219q-21 30 -21 74q0 110 84 110q64 0 76 -72l84 9q-27 131 -160 131q-83 0 -125.5 -49.5t-42.5 -131.5q0 -39 14 -71h-82v-82zM135 0h1204v143h-354q43 82 43 217v965h-145v-901q0 -163 -45 -223t-160 -60h-60l-260 1026h-153l264 -1026h-334v-141z" />
<glyph unicode="&#xfedf;&#xfe88;" horiz-adv-x="1120" arabic-form="isolated" d="M29 -336v-82h393v82h-221q-21 27 -21 72q0 110 84 110q63 0 78 -71l80 10q-27 129 -160 129q-82 0 -129 -53q-37 -46 -37 -125q0 -40 13 -72h-80zM139 0h592q301 0 301 360v965h-143v-901q0 -140 -31 -197q-47 -86 -174 -86h-61l-258 1026h-156l264 -1026h-334v-141z" />
<glyph unicode="&#xfee0;&#xfe88;" horiz-adv-x="1300" arabic-form="final" d="M29 -336v-82h393v82h-221q-21 27 -21 72q0 110 84 110q63 0 78 -71l80 10q-27 129 -160 129q-77 0 -121.5 -46.5t-44.5 -131.5q0 -40 13 -72h-80zM135 0h1204v143h-354q43 82 43 217v965h-145v-901q0 -163 -45 -223t-160 -60h-60l-260 1026h-153l264 -1026h-334v-141z " />
<glyph unicode="&#xfedf;&#xfe8e;" horiz-adv-x="1120" arabic-form="isolated" d="M139 0h592q301 0 301 360v965h-143v-901q0 -140 -31 -197q-47 -86 -174 -86h-61l-258 1026h-156l264 -1026h-334v-141z" />
<glyph unicode="&#xfee0;&#xfe8e;" horiz-adv-x="1304" arabic-form="final" d="M139 0h1204v143h-354q43 82 43 217v965h-145v-901q0 -163 -45 -223t-160 -60h-59l-261 1026h-153l264 -1026h-334v-141z" />
<glyph unicode="&#x671;" horiz-adv-x="440" arabic-form="isolated" d="M2 1425h461q0 261 -150 261q-127 0 -227 -222l6 142l-33 -2v-140h-57v-39zM115 1466q98 170 196 170q103 0 103 -151v-19h-299zM186 0h144v1325h-144v-1325z" />
<glyph unicode="&#x671;" horiz-adv-x="618" arabic-form="final" d="M18 1425h461q0 133 -36.5 197t-112.5 64q-128 0 -228 -222l7 142l-33 -2v-140h-58v-39zM131 1466q98 170 197 170q102 0 102 -151v-19h-299zM201 326q0 -163 88 -248q78 -78 186 -78h203v143q-158 0 -172 2q-83 12 -117 64q-41 62 -41 203v913h-147v-999z" />
<glyph unicode="&#x67e;" horiz-adv-x="1900" arabic-form="final" d="M66 596q0 -596 589 -596h1268v143h-379q39 79 39 217v570h-143v-506q0 -136 -29 -199q-46 -82 -174 -82h-600q-428 0 -428 453v336h-143v-336zM676 -139v-174h147v174h-147zM811 -367v-174h145v174h-145zM944 -139v-174h148v174h-148z" />
<glyph unicode="&#x67e;" horiz-adv-x="583" arabic-form="initial" d="M-20 0h194q301 0 301 360v570h-143v-506q0 -140 -31 -197q-44 -86 -174 -86h-147v-141zM61 -139v-174h148v174h-148zM197 -367v-174h145v174h-145zM332 -139v-174h145v174h-145z" />
<glyph unicode="&#x67e;" horiz-adv-x="671" arabic-form="medial" d="M-16 0h706v143h-266q39 79 39 217v570h-144v-506q0 -140 -30 -199q-44 -84 -174 -84h-131v-141zM51 -139v-174h146v174h-146zM184 -367v-174h148v174h-148zM319 -139v-174h146v174h-146z" />
<glyph unicode="&#x6a4;" horiz-adv-x="2123" arabic-form="final" d="M66 596q0 -596 589 -596h336q146 0 222 9.5t123 29t139 72.5q74 -42 105 -57.5t87 -31.5t116.5 -19t170.5 -3h203v143h-324q-114 0 -209 50q134 63 212.5 183t78.5 265q0 187 -122.5 306.5t-319.5 119.5q-196 0 -319.5 -119.5t-123.5 -306.5q0 -141 79 -263t212 -185 q-95 -50 -209 -50h-469q-434 0 -434 453v295h-143v-295zM1188 664q0 120 77.5 199t207.5 79q128 0 206 -77.5t78 -202.5q0 -122 -76 -225t-206 -158q-131 56 -209 160t-78 225zM1260 1255h145v175h-145v-175zM1391 1483h145v174h-145v-174zM1536 1255h137v175h-137v-175z " />
<glyph unicode="&#x6a4;" horiz-adv-x="1212" arabic-form="initial" d="M-29 0h727q191 0 308.5 131.5t117.5 333.5q0 210 -115 336.5t-309 126.5q-196 0 -314 -131t-118 -334q0 -196 103 -320h-400v-143zM430 455q0 166 71.5 260t205.5 94q125 0 192.5 -87.5t67.5 -242.5q0 -360 -269 -360q-125 0 -196.5 90.5t-71.5 245.5zM483 1077h146v174 h-146v-174zM618 1305h146v174h-146v-174zM752 1251l12 -174h133v174h-145z" />
<glyph unicode="&#x6a4;" horiz-adv-x="1286" arabic-form="medial" d="M-49 0h203q172 0 237 12q110 20 246 99q137 -79 244 -99q65 -12 235 -12h203v143h-324q-114 0 -209 50q143 67 218 190q73 119 73 258q0 176 -110 295q-122 131 -332 131q-208 0 -330 -131q-112 -118 -112 -295q0 -139 73 -258q75 -124 217 -190q-95 -50 -209 -50h-323 v-143zM350 664q0 120 77.5 199t207.5 79q135 0 213 -84q74 -77 74 -196q0 -112 -72 -216q-75 -108 -213 -167q-144 61 -217 170q-70 101 -70 215zM436 1239h146v174h-146v-174zM571 1466h146v174h-146v-174zM705 1239h145v174h-145v-174z" />
<glyph unicode="&#x686;" horiz-adv-x="1323" arabic-form="final" d="M66 152q0 -222 139.5 -356t361.5 -134h213v152h-213q-162 0 -254 88.5t-92 238.5q0 162 93.5 257.5t252.5 95.5h264q16 -133 77 -245.5t160 -180.5t214 -68h55v143h-82q-115 0 -200.5 130.5t-91.5 322.5q-18 553 -461 553q-109 0 -156 -21v-124q55 28 119 28 q160 0 249.5 -98t104.5 -291h-78q-225 0 -299 -12q-169 -27 -272.5 -161.5t-103.5 -317.5zM383 143h145v160h-145v-160zM508 -68h147v158h-147v-158zM637 143h145v160h-145v-160z" />
<glyph unicode="&#x686;" horiz-adv-x="1476" arabic-form="initial" d="M-31 0h1420v207q0 318 -184.5 507t-491.5 189q-333 0 -508 -217q112 -112 125 -127q123 203 385 203q241 0 372.5 -142.5t131.5 -402.5l-5 -74h-1245v-143zM518 -139v-174h146v174h-146zM651 -367v-174h148v174h-148zM786 -139v-174h146v174h-146z" />
<glyph unicode="&#x686;" horiz-adv-x="1585" arabic-form="medial" d="M-31 0h1645v143h-225v64q0 318 -184.5 507t-491.5 189q-333 0 -508 -217q112 -112 125 -127q123 203 385 203q241 0 372.5 -142.5t131.5 -402.5l-5 -74h-1245v-143zM518 -139v-174h146v174h-146zM651 -367l13 -174h135v174h-148zM786 -139v-174h146v174h-146z" />
<glyph unicode="&#x698;" horiz-adv-x="804" arabic-form="final" d="M66 -199v-137q357 21 415 336h353v143h-338v787h-144v-783q0 -179 -71 -262.5t-215 -83.5zM88 1075h145v174h-145v-174zM223 1303h146v174h-146v-174zM356 1249l13 -174h133v174h-146z" />
<glyph unicode="&#x6cc;" horiz-adv-x="563" arabic-form="initial" d="M-6 0h180q301 0 301 360v570h-143v-506q0 -140 -31 -197q-44 -86 -174 -86h-133v-141zM59 -139v-174h146v174h-146zM328 -139v-174h145v174h-145z" />
<glyph unicode="&#x6cc;" horiz-adv-x="671" arabic-form="medial" d="M-16 0h706v143h-266q39 79 39 217v570h-144v-506q0 -140 -30 -199q-44 -84 -174 -84h-131v-141zM51 -139v-174h146v174h-146zM319 -139v-174h146v174h-146z" />
<glyph unicode="&#x622;" horiz-adv-x="618" arabic-form="final" d="M49 1466l35 -47q51 60 84 60q32 0 100 -35t103 -35q61 0 127 78l-35 47q-49 -55 -90 -55q-29 0 -94 32q-72 35 -107 35q-70 0 -123 -80zM201 326q0 -163 88 -248q78 -78 186 -78h203v143q-158 0 -172 2q-83 12 -117 64q-41 62 -41 203v913h-147v-999z" />
<glyph unicode="&#x623;" horiz-adv-x="618" arabic-form="final" d="M63 1417h392v82h-219q-21 30 -21 74q0 110 84 110q64 0 76 -71l84 8q-27 131 -160 131q-83 0 -125.5 -49t-42.5 -131q0 -40 14 -72h-82v-82zM201 326q0 -163 88 -248q78 -78 186 -78h203v143q-158 0 -172 2q-83 12 -117 64q-41 62 -41 203v913h-147v-999z" />
<glyph unicode="&#x624;" horiz-adv-x="1148" arabic-form="final" d="M127 463q0 -198 111 -330.5t282 -132.5h223q-27 -104 -93 -151.5t-175 -47.5v-137q355 21 416 336h283v141h-267v381q0 199 -97.5 304.5t-270.5 105.5q-174 0 -293 -135t-119 -334zM274 477q0 127 74.5 224.5t181.5 97.5q104 0 167 -63.5t63 -160.5v-432l-238 -2 q-106 0 -177 98t-71 238zM281 1049h483v100h-270q-25 39 -25 90q0 137 100 137q81 0 99 -88l98 10q-34 162 -197 162q-94 0 -149 -58.5t-55 -162.5q0 -47 16 -90h-100v-100z" />
<glyph unicode="&#x625;" horiz-adv-x="618" arabic-form="final" d="M29 -336v-82h393v82h-221q-21 27 -21 72q0 110 84 110q63 0 78 -71l80 10q-27 129 -160 129q-82 0 -129 -53q-37 -46 -37 -125q0 -40 13 -72h-80zM201 326q0 -163 88 -248q78 -78 186 -78h203v143q-158 0 -172 2q-83 12 -117 64q-41 62 -41 203v913h-147v-999z" />
<glyph unicode="&#x626;" horiz-adv-x="1916" arabic-form="final" d="M72 430q0 -166 55.5 -312.5t150.5 -251.5t228.5 -165.5t284.5 -60.5q186 0 347.5 88t259 242.5t97.5 336.5q39 -142 148 -224.5t266 -82.5h33v156h-48q-55 1 -101 22.5t-79 57.5t-63 82t-59 97.5t-61.5 102.5t-75.5 97.5t-95.5 82t-128 57t-166.5 21.5v-164 q139 0 215 -76.5t76 -224.5q0 -98 -45.5 -192.5t-121 -165.5t-179.5 -114.5t-213 -43.5q-264 0 -416 182t-152 482v192h-157v-221zM74 821h524v109h-295q-27 40 -27 96q0 150 111 150q87 0 105 -97l108 13q-37 174 -215 174q-105 0 -163 -65t-58 -175q0 -50 18 -96h-108 v-109z" />
<glyph unicode="&#x626;" horiz-adv-x="567" arabic-form="initial" d="M-6 932h485v100h-272q-25 36 -25 88q0 140 101 140q79 0 98 -91l98 13q-35 157 -196 157q-102 0 -158 -65q-47 -59 -47 -154q0 -45 16 -88h-100v-100zM-4 0h182q301 0 301 360v463h-147v-399q0 -142 -27 -197q-47 -86 -174 -86h-135v-141z" />
<glyph unicode="&#x626;" horiz-adv-x="671" arabic-form="medial" d="M-18 932h481v100h-270q-25 36 -25 88q0 140 102 140q82 0 97 -91l100 13q-35 157 -199 157q-101 0 -157 -65q-48 -60 -48 -154q0 -45 19 -88h-100v-100zM-16 0h706v143h-266q39 79 39 217v465h-144v-401q0 -140 -30 -199q-44 -84 -174 -84h-131v-141z" />
<glyph unicode="&#x627;" horiz-adv-x="618" arabic-form="final" d="M201 326q0 -163 88 -248q78 -78 186 -78h162v143q-117 0 -131 2q-83 12 -117 64q-41 62 -41 203v913h-147v-999z" />
<glyph unicode="&#x628;" horiz-adv-x="1900" arabic-form="final" d="M66 596q0 -596 589 -596h1268v143h-379q39 79 39 217v570h-143v-506q0 -136 -29 -199q-46 -82 -174 -82h-600q-428 0 -428 453v336h-143v-336zM793 -137v-174h145v174h-145z" />
<glyph unicode="&#x628;" horiz-adv-x="483" arabic-form="initial" d="M-6 0h180q301 0 301 360v570h-143v-506q0 -140 -31 -197q-44 -86 -174 -86h-133v-141zM330 -137v-174h145v174h-145z" />
<glyph unicode="&#x628;" horiz-adv-x="671" arabic-form="medial" d="M-16 0h706v143h-266q39 79 39 217v570h-144v-506q0 -140 -30 -199q-44 -84 -174 -84h-131v-141zM317 -137v-174h146v174h-146z" />
<glyph unicode="&#x629;" horiz-adv-x="1208" arabic-form="final" d="M66 629q0 -135 47 -246.5t130.5 -176.5t186.5 -65q220 0 313 158q89 -299 392 -299h94v141h-78q-124 0 -193 86t-69 240v657h-434q-174 0 -281.5 -138t-107.5 -357zM209 637q0 163 76 272t196 109h260v-363q-6 -401 -264 -401q-118 0 -193 111.5t-75 271.5zM381 1274h145 v174h-145v-174zM649 1274h146v174h-146v-174z" />
<glyph unicode="&#x62a;" horiz-adv-x="1900" arabic-form="final" d="M66 596q0 -596 589 -596h1268v143h-379q39 79 39 217v570h-143v-506q0 -136 -29 -199q-46 -82 -174 -82h-600q-428 0 -428 453v336h-143v-336zM625 932h145v174h-145v-174zM893 932h145v174h-145v-174z" />
<glyph unicode="&#x62a;" horiz-adv-x="563" arabic-form="initial" d="M-6 0h180q301 0 301 360v570h-143v-506q0 -140 -31 -197q-44 -86 -174 -86h-133v-141zM61 1077h146v174h-146v-174zM330 1077h145v174h-145v-174z" />
<glyph unicode="&#x62a;" horiz-adv-x="671" arabic-form="medial" d="M-16 0h706v143h-266q39 79 39 217v570h-144v-506q0 -140 -30 -199q-44 -84 -174 -84h-131v-141zM47 1077h146v174h-146v-174zM315 1077h146v174h-146v-174z" />
<glyph unicode="&#x62b;" horiz-adv-x="1900" arabic-form="final" d="M66 596q0 -596 589 -596h1268v143h-379q39 79 39 217v570h-143v-506q0 -136 -29 -199q-46 -82 -174 -82h-600q-428 0 -428 453v336h-143v-336zM627 932h147v174h-147v-174zM762 1157h145v174h-145v-174zM897 932h145v174h-145v-174z" />
<glyph unicode="&#x62b;" horiz-adv-x="563" arabic-form="initial" d="M-6 0h180q301 0 301 360v570h-143v-506q0 -140 -31 -197q-44 -86 -174 -86h-133v-141zM61 1077h146v174h-146v-174zM195 1305h145v174h-145v-174zM330 1077h145v174h-145v-174z" />
<glyph unicode="&#x62b;" horiz-adv-x="671" arabic-form="medial" d="M-16 0h706v143h-266q39 79 39 217v570h-144v-506q0 -140 -30 -199q-44 -84 -174 -84h-131v-141zM45 1077h145v174h-145v-174zM180 1305h146v174h-146v-174zM313 1077h146v174h-146v-174z" />
<glyph unicode="&#x62c;" horiz-adv-x="1323" arabic-form="final" d="M66 152q0 -222 139.5 -356t361.5 -134h213v152h-213q-162 0 -254 88.5t-92 238.5q0 162 93.5 257.5t252.5 95.5h264q16 -133 77 -245.5t160 -180.5t214 -68h55v143h-82q-115 0 -200.5 130.5t-91.5 322.5q-18 553 -461 553q-109 0 -156 -21v-124q55 28 119 28 q160 0 249.5 -98t104.5 -291h-78q-225 0 -299 -12q-169 -27 -272.5 -161.5t-103.5 -317.5zM500 51h145v174h-145v-174z" />
<glyph unicode="&#x62c;" horiz-adv-x="1476" arabic-form="initial" d="M-31 0h1420v207q0 318 -184.5 507t-491.5 189q-333 0 -508 -217q112 -112 125 -127q123 203 385 203q241 0 372.5 -142.5t131.5 -402.5q0 -7 -5 -74h-1245v-143zM676 -137v-174h147v174h-147z" />
<glyph unicode="&#x62c;" horiz-adv-x="1585" arabic-form="medial" d="M-31 0h1645v143h-225v64q0 318 -184.5 507t-491.5 189q-333 0 -508 -217q112 -112 125 -127q123 203 385 203q241 0 372.5 -142.5t131.5 -402.5q0 -7 -5 -74h-1245v-143zM680 -137v-174h145v174h-145z" />
<glyph unicode="&#x62d;" horiz-adv-x="1323" arabic-form="final" d="M66 152q0 -222 139.5 -356t361.5 -134h213v152h-213q-162 0 -254 88.5t-92 238.5q0 162 93.5 257.5t252.5 95.5h264q16 -133 77 -245.5t160 -180.5t214 -68h55v143h-82q-115 0 -200.5 130.5t-91.5 322.5q-18 553 -461 553q-109 0 -156 -21v-124q55 28 119 28 q160 0 249.5 -98t104.5 -291h-127q-184 0 -250 -12q-169 -28 -272.5 -161.5t-103.5 -317.5z" />
<glyph unicode="&#x62d;" horiz-adv-x="1476" arabic-form="initial" d="M-31 0h1420v207q0 318 -184.5 507t-491.5 189q-333 0 -508 -217q112 -112 125 -127q123 203 385 203q241 0 372.5 -142.5t131.5 -402.5q0 -7 -5 -74h-1245v-143z" />
<glyph unicode="&#x62d;" horiz-adv-x="1585" arabic-form="medial" d="M-31 0h1645v143h-225v64q0 318 -184.5 507t-491.5 189q-333 0 -508 -217q112 -112 125 -127q123 203 385 203q241 0 372.5 -142.5t131.5 -402.5q0 -7 -5 -74h-1245v-143z" />
<glyph unicode="&#x62e;" horiz-adv-x="1323" arabic-form="final" d="M66 152q0 -222 139.5 -356t361.5 -134h213v152h-213q-162 0 -254 88.5t-92 238.5q0 162 93.5 257.5t252.5 95.5h264q16 -133 77 -245.5t160 -180.5t214 -68h55v143h-82q-115 0 -200.5 130.5t-91.5 322.5q-18 553 -461 553q-109 0 -156 -21v-124q55 28 119 28 q160 0 249.5 -98t104.5 -291h-78q-225 0 -299 -12q-169 -27 -272.5 -161.5t-103.5 -317.5zM500 1311h145v174h-145v-174z" />
<glyph unicode="&#x62e;" horiz-adv-x="1476" arabic-form="initial" d="M-31 0h1420v207q0 318 -184.5 507t-491.5 189q-333 0 -508 -217q112 -112 125 -127q123 203 385 203q241 0 372.5 -142.5t131.5 -402.5q0 -7 -5 -74h-1245v-143zM635 1077h145v174h-145v-174z" />
<glyph unicode="&#x62e;" horiz-adv-x="1585" arabic-form="medial" d="M-31 0h1645v143h-225v64q0 318 -184.5 507t-491.5 189q-333 0 -508 -217q112 -112 125 -127q123 203 385 203q241 0 372.5 -142.5t131.5 -402.5q0 -7 -5 -74h-1245v-143zM635 1077h145v174h-145v-174z" />
<glyph unicode="&#x62f;" horiz-adv-x="1269" arabic-form="final" d="M66 0h1230v143h-325q-35 789 -682 789v-135h55q257 -15 379 -213q100 -163 100 -441h-757v-143z" />
<glyph unicode="&#x630;" horiz-adv-x="1269" arabic-form="final" d="M66 0h1230v143h-325q-35 789 -682 789v-135h55q257 -15 379 -213q100 -163 100 -441h-757v-143zM342 1077h145v174h-145v-174z" />
<glyph unicode="&#x631;" horiz-adv-x="804" arabic-form="final" d="M66 -199v-137q357 21 415 336h353v143h-338v787h-144v-783q0 -179 -71 -262.5t-215 -83.5z" />
<glyph unicode="&#x632;" horiz-adv-x="804" arabic-form="final" d="M66 -199v-137q178 10 284.5 93.5t147.5 242.5h336v143h-338v787h-144v-783q0 -179 -71 -262.5t-215 -83.5zM352 1077h146v174h-146v-174z" />
<glyph unicode="&#x633;" horiz-adv-x="2594" arabic-form="final" d="M66 365q0 -152 45 -284t122 -224t184 -144.5t228 -52.5q173 0 314 103.5t208 285.5q9 -27 9 -49h1439v143h-329q41 84 41 217v570h-144v-506q0 -160 -44.5 -220.5t-160.5 -60.5h-245q39 79 39 217v570h-144v-506q0 -162 -37.5 -221.5t-136.5 -59.5h-256q25 106 25 222 v565h-148v-619q-20 -240 -133 -376t-297 -136q-200 0 -318 162t-118 432v537h-143v-565z" />
<glyph unicode="&#x633;" horiz-adv-x="1718" arabic-form="initial" d="M-29 0h1356q303 0 303 360v570h-145v-506q0 -162 -44.5 -221.5t-160.5 -59.5h-246q39 79 39 217v570h-143v-506q0 -162 -37.5 -221.5t-136.5 -59.5h-269v9q35 84 35 208v570h-143v-524q-21 -263 -217 -263h-191v-143z" />
<glyph unicode="&#x633;" horiz-adv-x="1894" arabic-form="medial" d="M-29 0h1946v143h-330q41 84 41 217v570h-143v-506q0 -162 -44.5 -221.5t-160.5 -59.5h-246q39 79 39 217v570h-143v-506q0 -162 -37.5 -221.5t-136.5 -59.5h-269v9q35 84 35 208v570h-145v-524q0 -128 -57.5 -195.5t-157.5 -67.5h-191v-143z" />
<glyph unicode="&#x634;" horiz-adv-x="2594" arabic-form="final" d="M66 365q0 -152 45 -284t122 -224t184 -144.5t228 -52.5q173 0 314 103.5t208 285.5q9 -27 9 -49h1439v143h-329q41 84 41 217v570h-144v-506q0 -162 -44.5 -221.5t-160.5 -59.5h-245q39 79 39 217v570h-144v-506q0 -162 -37.5 -221.5t-136.5 -59.5h-256q25 106 25 222 v565h-148v-619q-20 -240 -133 -376t-297 -136q-200 0 -318 162t-118 432v537h-143v-565zM1497 1077h145v174h-145v-174zM1628 1305h146v174h-146v-174zM1765 1077h146v174h-146v-174z" />
<glyph unicode="&#x634;" horiz-adv-x="1718" arabic-form="initial" d="M-29 0h1356q303 0 303 360v570h-145v-506q0 -162 -44.5 -221.5t-160.5 -59.5h-246q39 79 39 217v570h-143v-506q0 -162 -37.5 -221.5t-136.5 -59.5h-269v9q35 84 35 208v570h-143v-524q-21 -263 -217 -263h-191v-143zM799 1077h145v174h-145v-174zM930 1305h145v174h-145 v-174zM1067 1077h145v174h-145v-174z" />
<glyph unicode="&#x634;" horiz-adv-x="1894" arabic-form="medial" d="M-29 0h1946v143h-330q41 84 41 217v570h-143v-506q0 -162 -44.5 -221.5t-160.5 -59.5h-246q39 79 39 217v570h-143v-506q0 -162 -37.5 -221.5t-136.5 -59.5h-269v9q35 84 35 208v570h-145v-524q0 -128 -57.5 -195.5t-157.5 -67.5h-191v-143zM799 1077h145v174h-145v-174z M930 1305h145v174h-145v-174zM1067 1077h145v174h-145v-174z" />
<glyph unicode="&#x635;" horiz-adv-x="2584" arabic-form="final" d="M66 365q0 -152 45 -284t122 -224t184 -144.5t228 -52.5q324 0 502 340h1460v143h-260v95q0 694 -492 694q-175 0 -348 -125t-284 -338v461h-144v-537q0 -272 -115.5 -433t-318.5 -161q-200 0 -318 162t-118 432v537h-143v-565zM1196 141q12 45 18 101q97 236 279 397.5 t352 161.5q167 0 262 -145t95 -386q0 -50 -7 -129h-999z" />
<glyph unicode="&#x635;" horiz-adv-x="1724" arabic-form="initial" d="M-29 0h1661q10 143 10 238q0 694 -491 694q-173 0 -344 -122t-285 -335v356h-143v-368q0 -320 -217 -320h-191v-143zM487 141v35q54 165 160.5 309t239 230t254.5 86q167 0 261.5 -145t94.5 -386q0 -62 -6 -129h-1004z" />
<glyph unicode="&#x635;" horiz-adv-x="1904" arabic-form="medial" d="M-29 0h1952v143h-270v95q0 694 -492 694q-177 0 -353 -128t-288 -349q2 14 2 41v335h-143v-368q0 -320 -217 -320h-191v-143zM487 141q35 127 108 248t162.5 211.5t194 145.5t199.5 55q167 0 261.5 -145t94.5 -386q0 -62 -6 -129h-1014z" />
<glyph unicode="&#x636;" horiz-adv-x="2584" arabic-form="final" d="M66 365q0 -152 45 -284t122 -224t184 -144.5t228 -52.5q324 0 502 340h1460v143h-260v95q0 694 -492 694q-175 0 -348 -125t-284 -338v461h-144v-537q0 -272 -115.5 -433t-318.5 -161q-200 0 -318 162t-118 432v537h-143v-565zM1196 141q12 45 18 101q97 236 279 397.5 t352 161.5q167 0 262 -145t95 -386q0 -50 -7 -129h-999zM1735 1077h145v174h-145v-174z" />
<glyph unicode="&#x636;" horiz-adv-x="1724" arabic-form="initial" d="M-29 0h1661q10 143 10 238q0 694 -491 694q-173 0 -344 -122t-285 -335v356h-143v-368q0 -320 -217 -320h-191v-143zM487 141v35q54 165 160.5 309t239 230t254.5 86q167 0 261.5 -145t94.5 -386q0 -62 -6 -129h-1004zM1040 1077h146v174h-146v-174z" />
<glyph unicode="&#x636;" horiz-adv-x="1904" arabic-form="medial" d="M-29 0h1952v143h-270v95q0 694 -492 694q-177 0 -353 -128t-288 -349q2 14 2 41v335h-143v-368q0 -320 -217 -320h-191v-143zM487 141q35 127 108 248t162.5 211.5t194 145.5t199.5 55q167 0 261.5 -145t94.5 -386q0 -62 -6 -129h-1014zM1051 1077h145v174h-145v-174z " />
<glyph unicode="&#x637;" horiz-adv-x="1849" arabic-form="final" d="M131 0h1729v143h-279q2 33 2 95q0 694 -493 694q-197 0 -385 -154t-291 -407l32 952h-151v-1182h-164v-141zM416 141q47 170 154.5 322t244.5 245t264 93q167 0 262 -145t95 -386q0 -62 -6 -129h-1014z" />
<glyph unicode="&#x637;" horiz-adv-x="1675" arabic-form="initial" d="M-78 0h1653q12 129 12 238q0 694 -491 694q-200 0 -387 -154t-291 -407l33 952h-150v-1182h-379v-141zM420 141q47 170 154.5 322t244.5 245t264 93q165 0 261 -143.5t96 -387.5q0 -62 -6 -129h-1014z" />
<glyph unicode="&#x637;" horiz-adv-x="1849" arabic-form="medial" d="M-82 0h1942v143h-279q2 33 2 95q0 694 -493 694q-197 0 -385 -154t-291 -407l32 952h-151v-1182h-377v-141zM416 141q47 170 154.5 322t244.5 245t264 93q167 0 262 -145t95 -386q0 -62 -6 -129h-1014z" />
<glyph unicode="&#x638;" horiz-adv-x="1849" arabic-form="final" d="M131 0h1729v143h-279q2 33 2 95q0 694 -493 694q-197 0 -385 -154t-291 -407l32 952h-151v-1182h-164v-141zM416 141q47 170 154.5 322t244.5 245t264 93q167 0 262 -145t95 -386q0 -62 -6 -129h-1014zM979 1077h145v174h-145v-174z" />
<glyph unicode="&#x638;" horiz-adv-x="1675" arabic-form="initial" d="M-78 0h1653q12 129 12 238q0 694 -491 694q-200 0 -387 -154t-291 -407l33 952h-150v-1182h-379v-141zM420 141q47 170 154.5 322t244.5 245t264 93q165 0 261 -143.5t96 -387.5q0 -62 -6 -129h-1014zM987 1077h146v174h-146v-174z" />
<glyph unicode="&#x638;" horiz-adv-x="1849" arabic-form="medial" d="M-82 0h1942v143h-279q2 33 2 95q0 694 -493 694q-197 0 -385 -154t-291 -407l32 952h-151v-1182h-377v-141zM416 141q47 170 154.5 322t244.5 245t264 93q167 0 262 -145t95 -386q0 -62 -6 -129h-1014zM979 1077h145v174h-145v-174z" />
<glyph unicode="&#x639;" horiz-adv-x="1525" arabic-form="final" d="M66 152q0 -222 139.5 -356t361.5 -134h258v152h-258q-162 0 -254 88.5t-92 238.5q0 160 92.5 257.5t245.5 97.5h457q9 -210 157.5 -353t356.5 -143h55v143q-205 0 -325.5 118t-120.5 298v82h-551q-84 110 -84 238q0 165 64.5 255.5t183.5 90.5q195 0 229 -193l156 17 q-26 127 -130 202.5t-257 75.5q-184 0 -293 -125t-109 -325q0 -150 62 -250q-154 -38 -249 -170t-95 -305z" />
<glyph unicode="&#x639;" horiz-adv-x="1150" arabic-form="initial" d="M-63 0h1126v143h-619q-94 98 -94 287q0 161 56 264q73 125 223 125q219 0 256 -217l174 19q-27 151 -158 235q-116 78 -274 78q-218 0 -338 -150q-113 -137 -113 -354q0 -166 74 -287h-313v-143z" />
<glyph unicode="&#x639;" horiz-adv-x="1439" arabic-form="medial" d="M-25 0h322q272 0 461 160q118 -160 305 -160h397v143h-276q-124 0 -166 11q-75 18 -146 104q158 121 271 279q49 68 131 225q-242 196 -539 196q-261 0 -512 -163l2 -162q268 -104 439 -361q-108 -75 -183 -102q-77 -27 -188 -27h-318v-143zM352 713q210 116 391 116 q110 0 209 -38q37 -16 156 -74q-114 -202 -334 -352q-107 145 -186 210q-106 89 -236 138z" />
<glyph unicode="&#x63a;" horiz-adv-x="1525" arabic-form="final" d="M66 152q0 -222 139.5 -356t361.5 -134h258v152h-258q-162 0 -254 88.5t-92 238.5q0 160 92.5 257.5t245.5 97.5h457q9 -210 157.5 -353t356.5 -143h55v143q-205 0 -325.5 118t-120.5 298v82h-551q-84 110 -84 238q0 165 64.5 255.5t183.5 90.5q195 0 229 -193l156 17 q-26 127 -130 202.5t-257 75.5q-184 0 -293 -125t-109 -325q0 -150 62 -250q-154 -38 -249 -170t-95 -305zM680 1477h145v174h-145v-174z" />
<glyph unicode="&#x63a;" horiz-adv-x="1150" arabic-form="initial" d="M-63 0h1126v143h-619q-94 98 -94 287q0 161 56 264q73 125 223 125q219 0 256 -217l174 19q-27 151 -158 235q-116 78 -274 78q-218 0 -338 -150q-113 -137 -113 -354q0 -166 74 -287h-313v-143zM547 1077h145v174h-145v-174z" />
<glyph unicode="&#x63a;" horiz-adv-x="1439" arabic-form="medial" d="M-25 0h322q272 0 461 160q118 -160 305 -160h397v143h-276q-82 0 -124.5 3t-78 18t-54.5 33t-55 61q158 121 271 279q49 68 131 225q-242 196 -539 196q-262 0 -510 -163v-162q268 -104 439 -361q-108 -77 -182 -103t-189 -26h-318v-143zM352 713q210 116 391 116 q99 0 148 -14.5t217 -97.5q-114 -202 -334 -352q-110 150 -199 223.5t-223 124.5zM688 1077h146v174h-146v-174z" />
<glyph unicode="&#x641;" horiz-adv-x="2123" arabic-form="final" d="M66 596q0 -596 589 -596h336q146 0 222 9.5t123 29t139 72.5q74 -42 105 -57.5t87 -31.5t116.5 -19t170.5 -3h203v143h-324q-114 0 -209 50q134 63 212.5 183t78.5 265q0 187 -122.5 306.5t-319.5 119.5q-196 0 -319.5 -119.5t-123.5 -306.5q0 -141 79 -263t212 -185 q-95 -50 -209 -50h-469q-434 0 -434 453v295h-143v-295zM1188 664q0 120 77.5 199t207.5 79q128 0 206 -77.5t78 -202.5q0 -122 -76 -225t-206 -158q-131 56 -209 160t-78 225zM1382 1257h146v175h-146v-175z" />
<glyph unicode="&#x641;" horiz-adv-x="1212" arabic-form="initial" d="M-29 0h727q191 0 308.5 131.5t117.5 333.5q0 210 -115 336.5t-309 126.5q-196 0 -314 -131t-118 -334q0 -196 103 -320h-400v-143zM430 455q0 166 71.5 260t205.5 94q125 0 192.5 -87.5t67.5 -242.5q0 -360 -269 -360q-125 0 -196.5 90.5t-71.5 245.5zM627 1077h147v174 h-147v-174z" />
<glyph unicode="&#x641;" horiz-adv-x="1286" arabic-form="medial" d="M-49 0h203q172 0 237 12q110 20 246 99q137 -79 244 -99q65 -12 235 -12h203v143h-324q-114 0 -209 50q143 67 218 190q73 119 73 258q0 176 -110 295q-122 131 -332 131q-208 0 -330 -131q-112 -118 -112 -295q0 -139 73 -258q75 -124 217 -190q-95 -50 -209 -50h-323 v-143zM350 664q0 120 77.5 199t207.5 79q135 0 213 -84q74 -77 74 -196q0 -112 -72 -216q-75 -108 -213 -167q-144 61 -217 170q-70 101 -70 215zM565 1241h146v174h-146v-174z" />
<glyph unicode="&#x642;" horiz-adv-x="1587" arabic-form="final" d="M66 332q0 -145 51 -271t139 -213.5t208.5 -137.5t256.5 -50q432 0 582 340h309v143h-269v379q0 200 -96.5 305t-271.5 105q-173 0 -291.5 -135.5t-118.5 -333.5q0 -199 110.5 -331t280.5 -132h187q-127 -201 -428 -201q-219 0 -360.5 157t-141.5 402v338h-147v-364z M713 477q0 129 73.5 225.5t182.5 96.5q101 0 165 -63t64 -161v-432l-237 -2q-106 0 -177 100t-71 236zM750 1077h147v174h-147v-174zM1018 1077h147v174h-147v-174z" />
<glyph unicode="&#x642;" horiz-adv-x="1212" arabic-form="initial" d="M-29 0h727q192 0 309 131t117 334q0 210 -115 336.5t-309 126.5q-196 0 -314 -131t-118 -334q0 -196 103 -320h-400v-143zM430 455q0 166 71.5 260t205.5 94q125 0 192.5 -87.5t67.5 -242.5q0 -360 -269 -360q-125 0 -196.5 90.5t-71.5 245.5zM492 1077h145v174h-145 v-174zM760 1077h145v174h-145v-174z" />
<glyph unicode="&#x642;" horiz-adv-x="1286" arabic-form="medial" d="M-49 0h203q172 0 237 12q110 20 246 99q137 -79 244 -99q65 -12 235 -12h203v143h-324q-114 0 -209 50q143 67 218 190q73 119 73 258q0 176 -110 295q-122 131 -332 131q-208 0 -330 -131q-112 -118 -112 -295q0 -139 73 -258q75 -124 217 -190q-95 -50 -209 -50h-323 v-143zM350 664q0 120 77.5 199t207.5 79q135 0 213 -84q74 -77 74 -196q0 -112 -72 -216q-75 -108 -213 -167q-144 61 -217 170q-70 101 -70 215zM436 1239h146v174h-146v-174zM705 1239h145v174h-145v-174z" />
<glyph unicode="&#x643;" horiz-adv-x="1900" arabic-form="final" d="M66 596q0 -596 589 -596h1270v143h-381q39 79 39 217v965h-143v-901q0 -163 -44.5 -222t-158.5 -59h-594q-434 0 -434 453v336h-143v-336zM584 696h483v101h-270q-25 36 -25 90q0 135 102 135q80 0 95 -86l102 8q-34 162 -199 162q-97 0 -150.5 -60t-53.5 -161 q0 -45 16 -88h-100v-101z" />
<glyph unicode="&#x643;" horiz-adv-x="1433" arabic-form="initial" d="M-74 0h1420v207q0 314 -181 504q-183 192 -495 192h-183l244 420h-170q-51 -91 -119.5 -214t-114.5 -205.5t-79 -141.5h422q261 0 393 -166q113 -140 113 -379q0 -12 -5 -74h-1245v-143z" />
<glyph unicode="&#x643;" horiz-adv-x="1552" arabic-form="medial" d="M-98 0h1700v143h-281v64q0 315 -180 504q-183 192 -496 192h-182l244 420h-170q-71 -127 -175 -312.5t-139 -248.5h422q261 0 393 -166q113 -140 113 -379q0 -24 -4 -74h-1245v-143z" />
<glyph unicode="&#x644;" horiz-adv-x="1503" arabic-form="final" d="M66 365q0 -150 43.5 -281t119.5 -224t184 -146.5t232 -53.5q160 0 293.5 90.5t208.5 249.5h397v143h-348q27 105 27 222v960h-144v-932q0 -272 -117 -433t-317 -161q-198 0 -317 164t-119 430v168h-143v-196z" />
<glyph unicode="&#x644;" horiz-adv-x="550" arabic-form="initial" d="M-16 0h178q301 0 301 360v965h-144v-901q0 -142 -30 -197q-44 -86 -174 -86h-131v-141z" />
<glyph unicode="&#x644;" horiz-adv-x="671" arabic-form="medial" d="M-16 0h706v143h-266q39 79 39 217v965h-144v-901q0 -140 -30 -199q-44 -84 -174 -84h-131v-141z" />
<glyph unicode="&#x645;" horiz-adv-x="1957" arabic-form="final" d="M66 -332h143v686q0 210 78 330.5t217 120.5h280q-120 -129 -120 -336q0 -208 114 -335.5t316 -127.5q268 0 379 236q99 -242 440 -242h67q-2 18 -2 63q0 51 2 80h-84q-154 0 -254.5 89t-115.5 241q-22 217 -132 337t-290 120h-600q-438 0 -438 -568v-694zM840 459 q0 160 68.5 250t193.5 90q117 0 181.5 -84.5t64.5 -233.5q0 -342 -254 -342q-119 0 -186.5 87t-67.5 233z" />
<glyph unicode="&#x645;" horiz-adv-x="1228" arabic-form="initial" d="M-33 0h395q117 -178 355 -178q197 0 313 137q111 129 111 328q0 204 -107 329q-116 134 -315 134q-201 0 -318 -132q-116 -131 -116 -333q0 -77 18 -142h-336v-143zM455 276q0 149 59 238q71 109 211 109q130 0 197 -101q53 -83 53 -221q0 -350 -258 -350 q-134 0 -203 100q-59 86 -59 225z" />
<glyph unicode="&#x645;" horiz-adv-x="1265" arabic-form="medial" d="M-20 0h303q114 -178 352 -178q227 0 344 178h313v143h-250q19 71 19 144q0 202 -109 329q-116 134 -315 134q-201 0 -318 -132q-114 -132 -114 -333q0 -73 16 -142h-241v-143zM375 276q0 152 57 238q71 109 211 109q131 0 195 -101q55 -82 55 -221q0 -350 -258 -350 q-134 0 -203 100q-57 83 -57 225z" />
<glyph unicode="&#x646;" horiz-adv-x="1503" arabic-form="final" d="M66 365q0 -150 43.5 -281t119.5 -224t184 -146.5t232 -53.5q160 0 293.5 90.5t208.5 249.5h403v143h-354q27 105 27 222v565h-144v-537q0 -272 -117 -433t-317 -161t-318 163.5t-118 430.5v537h-143v-565zM569 1077h146v174h-146v-174z" />
<glyph unicode="&#x646;" horiz-adv-x="550" arabic-form="initial" d="M-16 0h178q301 0 301 360v570h-144v-506q0 -142 -30 -197q-44 -86 -174 -86h-131v-141zM317 1077h146v174h-146v-174z" />
<glyph unicode="&#x646;" horiz-adv-x="671" arabic-form="medial" d="M-16 0h706v143h-266q39 79 39 217v570h-144v-506q0 -140 -30 -199q-44 -84 -174 -84h-131v-141zM319 1077h146v174h-146v-174z" />
<glyph unicode="&#x647;" horiz-adv-x="1208" arabic-form="final" d="M66 629q0 -135 47 -246.5t130.5 -176.5t186.5 -65q220 0 313 158q89 -299 392 -299h94v141h-78q-124 0 -193 86t-69 240v657h-434q-174 0 -281.5 -138t-107.5 -357zM209 637q0 163 76 272t196 109h260v-363q-6 -401 -264 -401q-118 0 -193 111.5t-75 271.5z" />
<glyph unicode="&#x647;" horiz-adv-x="1425" arabic-form="initial" d="M-16 0h1323q30 144 30 281q0 305 -145 518q-81 120 -217 213.5t-258 115.5v-147q99 -29 186 -89.5t153 -146t104 -198.5t38 -238q0 -87 -18 -166h-301q96 113 96 283q0 180 -99.5 288.5t-263.5 108.5q-166 0 -268 -113t-102 -286q0 -171 92 -283h-350v-141zM391 416 q0 137 58.5 213t168.5 76q100 0 154.5 -70t54.5 -201q0 -291 -217 -291q-102 0 -160.5 75.5t-58.5 197.5z" />
<glyph unicode="&#x647;" horiz-adv-x="1499" arabic-form="medial" d="M-16 0h1581v143h-234q6 67 6 138q0 305 -145 518q-81 120 -217 213.5t-258 115.5v-147q99 -29 186 -89.5t153 -146t104 -198.5t38 -238q0 -87 -18 -166h-301q96 113 96 283q0 180 -99.5 288.5t-263.5 108.5q-166 0 -268 -113t-102 -286q0 -171 92 -283h-350v-141z M391 416q0 137 58.5 213t168.5 76q100 0 154.5 -70t54.5 -201q0 -291 -217 -291q-102 0 -160.5 75.5t-58.5 197.5z" />
<glyph unicode="&#x648;" horiz-adv-x="1148" arabic-form="final" d="M127 463q0 -200 111 -332q110 -131 282 -131h223q-53 -199 -249 -199h-19v-137q355 21 416 336h283v141h-267v381q0 199 -97.5 304.5t-270.5 105.5q-175 0 -295 -135q-117 -135 -117 -334zM274 477q0 116 66 213q74 109 190 109q112 0 175 -72q55 -61 55 -152v-432 l-238 -2q-120 0 -190 117q-58 94 -58 219z" />
<glyph unicode="&#x649;" horiz-adv-x="1769" arabic-form="final" d="M66 397q0 -202 86.5 -369.5t239 -263.5t337.5 -96q129 0 248.5 48.5t208 130.5t141.5 196.5t53 239.5q35 -132 137.5 -207.5t243.5 -75.5h31v143h-43q-114 0 -176.5 56.5t-120.5 206.5q-46 120 -155 206t-205 86q-111 0 -111 -4h2v-129q128 0 197 -71t69 -207 q0 -91 -42 -178t-111.5 -152t-165 -105t-195.5 -40q-243 0 -383.5 166.5t-140.5 445.5v178h-145v-205z" />
<glyph unicode="&#x64a;" horiz-adv-x="1769" arabic-form="final" d="M66 397q0 -202 86.5 -369.5t239 -263.5t337.5 -96q129 0 248.5 48.5t208 130.5t141.5 196.5t53 239.5q35 -132 137.5 -207.5t243.5 -75.5h31v143h-43q-114 0 -176.5 56.5t-120.5 206.5q-46 120 -155 206t-205 86q-111 0 -111 -4h2v-129q128 0 197 -71t69 -207 q0 -91 -42 -178t-111.5 -152t-165 -105t-195.5 -40q-243 0 -383.5 166.5t-140.5 445.5v178h-145v-205zM539 -487v-175h145v175h-145zM807 -487v-175h145v175h-145z" />
<glyph unicode="&#x64a;" horiz-adv-x="616" arabic-form="initial" d="M-6 0h180q301 0 301 360v570h-143v-506q0 -140 -31 -197q-44 -86 -174 -86h-133v-141zM59 -139v-174h146v174h-146zM328 -139v-174h145v174h-145z" />
<glyph unicode="&#x64a;" horiz-adv-x="671" arabic-form="medial" d="M-16 0h706v143h-266q39 79 39 217v570h-144v-506q0 -140 -30 -199q-44 -84 -174 -84h-131v-141zM51 -139v-174h146v174h-146zM319 -139v-174h146v174h-146z" />
<glyph unicode=" "  horiz-adv-x="364" />
<glyph unicode="&#x09;" horiz-adv-x="364" />
<glyph unicode="&#xa0;" horiz-adv-x="364" />
<glyph unicode="!" horiz-adv-x="378" d="M66 0h149v158h-149v-158zM66 805q0 -12 16 -193l29 -342h59l31 342q14 158 14 193v522h-149v-522z" />
<glyph unicode="&#x22;" horiz-adv-x="514" d="M43 1405l55 -557h62l51 557h-168zM299 1405l55 -557h62l51 557h-168z" />
<glyph unicode="$" horiz-adv-x="1105" d="M66 438q34 -152 149 -239q103 -79 250 -97v-176h104v176q139 0 248 80q119 88 119 230q0 220 -367 325v353q71 -14 126.5 -64t72.5 -117l139 11q-73 235 -338 284v164h-104v-164q-133 -12 -227 -84q-105 -80 -105 -209q0 -220 332 -309v-379q-95 13 -160.5 74.5 t-87.5 155.5zM283 926q0 73 57 121q53 41 125 47v-328q-88 28 -121 49q-61 46 -61 111zM569 219v354q211 -59 211 -186q0 -150 -211 -168z" />
<glyph unicode="'" horiz-adv-x="258" d="M43 1405l55 -557h62l51 557h-168z" />
<glyph unicode="(" horiz-adv-x="659" d="M72 606q0 -541 467 -913l61 86q-164 129 -258 354q-94 227 -94 488q0 259 82 451t266 362l-64 75q-460 -334 -460 -903z" />
<glyph unicode=")" horiz-adv-x="659" d="M66 1427q164 -126 258 -354q94 -224 94 -485q0 -497 -350 -817l63 -74q463 337 463 903q0 540 -465 913z" />
<glyph unicode="*" horiz-adv-x="673" d="M61 283l236 18l-133 -215l76 -49l96 242l106 -232l78 39l-139 215l231 -16v86l-237 -23l135 209l-70 47l-104 -242l-98 242l-78 -49l137 -211l-236 27v-88z" />
<glyph unicode="+" horiz-adv-x="1261" d="M123 504h438v-438h139v438h439v139h-439v438h-139v-438h-438v-139z" />
<glyph unicode="-" horiz-adv-x="1314" d="M123 399h1069v142h-1069v-142z" />
<glyph unicode="." horiz-adv-x="360" d="M51 0h187v213h-187v-213z" />
<glyph unicode="/" horiz-adv-x="714" d="M66 0h145l438 1327h-143z" />
<glyph unicode="0" horiz-adv-x="561" d="M180 369l201 -125v284l-201 123v-282z" />
<glyph unicode="1" horiz-adv-x="413" d="M135 0h144v1321l-144 -111v-1210z" />
<glyph unicode="2" horiz-adv-x="976" d="M135 0h144v664q0 219 83 358q104 174 318 174h162v129q-82 -2 -174 -2q-296 0 -432 -238q-101 -174 -101 -444v-641z" />
<glyph unicode="3" horiz-adv-x="1101" d="M135 0h144v786h311q174 0 275.5 95t101.5 260v182h-127v-125q0 -145 -63 -216t-232 -71q98 17 98 230v182h-123v-125q0 -72 -9.5 -117.5t-35.5 -81.5t-74.5 -51.5t-124.5 -15.5v393h-141v-1325z" />
<glyph unicode="4" horiz-adv-x="1003" d="M135 356q0 -155 116.5 -255.5t289.5 -100.5h327v129h-329q-114 0 -186 71.5t-72 180.5q0 108 74 181t184 73h40.5t32.5 -0.5t23 -1t15 -0.5h5v125h-106q-103 0 -172.5 64.5t-69.5 164.5q0 95 66.5 154t175.5 59h272v123h-313q-151 0 -245.5 -83.5t-94.5 -221.5 q0 -233 203 -322q-236 -64 -236 -340z" />
<glyph unicode="5" horiz-adv-x="1161" d="M135 578q0 -221 122 -354.5t321 -133.5q200 0 324 135t124 353q0 191 -184 405q-139 163 -262 225q-123 -60 -263 -225q-182 -215 -182 -405zM291 565q0 126 89.5 280.5t199.5 221.5q112 -64 200 -218t88 -284q0 -164 -76 -259t-212 -95q-132 0 -210.5 96.5t-78.5 257.5z " />
<glyph unicode="6" horiz-adv-x="976" d="M135 1196h160q191 0 297 -142t106 -390v-664h144v641q0 321 -139.5 502.5t-395.5 181.5h-172v-129z" />
<glyph unicode="7" horiz-adv-x="1079" d="M135 1325l293 -1325h227l289 1325h-143l-250 -1223l-277 1223h-139z" />
<glyph unicode="8" horiz-adv-x="1079" d="M135 0h139l277 1223l250 -1223h143l-289 1325h-227z" />
<glyph unicode="9" horiz-adv-x="1044" d="M135 907q0 -187 103 -299t284 -112q144 0 242 79v-575h143v909q0 187 -101.5 300.5t-281.5 113.5q-178 0 -283.5 -116.5t-105.5 -299.5zM281 899q0 151 65 233t186 82q114 0 173 -76.5t59 -215.5q0 -320 -242 -320q-112 0 -176.5 80t-64.5 217z" />
<glyph unicode=":" horiz-adv-x="360" d="M51 0h187v213h-187v-213zM51 406h187v210h-187v-210z" />
<glyph unicode="&#x3c;" horiz-adv-x="1110" d="M254 477l479 -477h182l-479 477l479 479h-182z" />
<glyph unicode="=" horiz-adv-x="1239" d="M123 307h993v142h-993v-142zM123 670h993v139h-993v-139z" />
<glyph unicode="&#x3e;" horiz-adv-x="1110" d="M215 0h162l479 477l-479 479h-162l479 -479z" />
<glyph unicode="[" horiz-adv-x="479" d="M66 -272h348v112h-197v1522h197v111h-348v-1745z" />
<glyph unicode="\" horiz-adv-x="704" d="M57 1327l441 -1327h141l-436 1327h-146z" />
<glyph unicode="]" horiz-adv-x="479" d="M66 -160v-110h348v1743h-348v-111h196v-1522h-196z" />
<glyph unicode="_" horiz-adv-x="782" d="M33 -33v-131h715v131h-715z" />
<glyph unicode="{" horiz-adv-x="768" d="M74 592q172 -112 172 -205v-414q0 -138 88.5 -202t290.5 -64l59 4v68q-82 1 -133 8.5t-90 28.5t-55.5 59t-16.5 98v414q0 111 -147 205q72 56 109.5 109t37.5 94v413q0 121 59.5 162t233.5 41v78q-233 0 -334.5 -65.5t-101.5 -215.5v-413q0 -64 -47 -118t-121 -85h-4z " />
<glyph unicode="|" horiz-adv-x="270" d="M70 -289h129v1774h-129v-1774z" />
<glyph unicode="}" horiz-adv-x="768" d="M74 -221q82 1 133 8.5t90 28.5t55.5 59t16.5 98v414q0 111 147 205q-72 56 -109.5 109t-37.5 94v413q0 121 -59.5 162t-233.5 41v78q233 0 334.5 -65.5t101.5 -215.5v-413q0 -64 47 -118t121 -85h4q-172 -112 -172 -205v-414q0 -138 -88.5 -202t-290.5 -64l-59 4v68z" />
<glyph unicode="&#xab;" horiz-adv-x="501" d="M59 442q0 -211 158 -372l23 22q-61 86 -84 148q-29 85 -29 190q0 215 113 346l-23 27q-158 -149 -158 -361zM246 442q0 -212 160 -372l22 22q-62 83 -86 148q-29 85 -29 190q0 215 113 346l-20 27q-160 -148 -160 -361z" />
<glyph unicode="&#xad;" horiz-adv-x="1314" d="M123 399h1069v142h-1069v-142z" />
<glyph unicode="&#xbb;" horiz-adv-x="501" d="M66 92l22 -22q160 160 160 372q0 213 -160 361l-22 -27q114 -132 114 -346q0 -108 -28 -190q-24 -65 -86 -148zM254 92l20 -22q158 161 158 372q0 214 -156 361l-22 -27q111 -132 111 -346q0 -105 -29 -190q-19 -60 -82 -148z" />
<glyph unicode="&#xd7;" horiz-adv-x="1159" d="M170 881l311 -308l-309 -311l100 -98l308 311l311 -309l98 100l-311 307l309 312l-100 98l-307 -311l-312 309z" />
<glyph unicode="&#xf7;" horiz-adv-x="1265" d="M98 492h1069v153h-1069v-153zM551 156h168v206h-168v-206zM551 774h168v207h-168v-207z" />
<glyph unicode="&#x60c;" horiz-adv-x="360" d="M51 0h187v207h-82q0 115 61 295h-88q-78 -191 -78 -389v-113z" />
<glyph unicode="&#x61b;" horiz-adv-x="360" d="M51 0h187v213h-187v-213zM51 403h187v205h-82q0 118 61 295h-88q-78 -191 -78 -387v-113z" />
<glyph unicode="&#x61f;" horiz-adv-x="991" d="M66 946q0 -138 108.5 -245.5t249.5 -118.5v-299h149v436q-170 0 -260 62.5t-90 185.5q0 104 77 170.5t196 66.5q123 0 193.5 -84.5t70.5 -228.5h164q0 216 -111.5 335.5t-308.5 119.5q-193 0 -315.5 -109t-122.5 -291zM416 0h168v184h-168v-184z" />
<glyph unicode="&#x621;" horiz-adv-x="880" d="M106 0h685v143h-385q-33 47 -33 125q0 195 145 195q112 0 133 -125l142 16q-49 224 -279 224q-143 0 -221 -93q-68 -83 -68 -217q0 -64 25 -125h-144v-143z" />
<glyph unicode="&#x627;" horiz-adv-x="440" d="M186 0h144v1325h-144v-1325z" />
<glyph unicode="&#x628;" horiz-adv-x="1671" d="M66 596q0 -596 589 -596h629q299 0 299 360v570h-143v-506q0 -112 -21.5 -173t-63.5 -84.5t-118 -23.5h-594q-434 0 -434 453v336h-143v-336zM793 -137v-174h145v174h-145z" />
<glyph unicode="&#x629;" horiz-adv-x="1028" d="M66 473q0 -212 114 -338q120 -135 324 -135q200 0 321 139q115 133 115 336q0 207 -111 336q-120 135 -323 135t-322 -137q-118 -130 -118 -336zM231 463q0 157 62 252q73 110 221 110q136 0 207 -102q55 -88 55 -236q0 -366 -272 -366q-139 0 -211 106q-62 89 -62 236z M307 1077h146v174h-146v-174zM575 1077h146v174h-146v-174z" />
<glyph unicode="&#x62a;" horiz-adv-x="1671" d="M66 596q0 -596 589 -596h629q299 0 299 360v570h-143v-506q0 -112 -21.5 -173t-63.5 -84.5t-118 -23.5h-594q-434 0 -434 453v336h-143v-336zM625 932h145v174h-145v-174zM893 932h145v174h-145v-174z" />
<glyph unicode="&#x62b;" horiz-adv-x="1671" d="M66 596q0 -596 589 -596h629q299 0 299 360v570h-143v-506q0 -112 -21.5 -173t-63.5 -84.5t-118 -23.5h-594q-434 0 -434 453v336h-143v-336zM627 932h147v174h-147v-174zM762 1157h145v174h-145v-174zM897 932h145v174h-145v-174z" />
<glyph unicode="&#x62c;" horiz-adv-x="1052" d="M66 152q0 -222 139.5 -356t361.5 -134h213v152h-213q-162 0 -254 88.5t-92 238.5q0 161 94.5 259t251.5 98h396q2 20 2 61q0 290 -118 441t-349 151q-105 0 -152 -21v-124q55 28 119 28q160 0 249.5 -98.5t104.5 -292.5h-295q-112 0 -201.5 -42.5t-144 -113t-83.5 -156.5 t-29 -179zM500 51h145v174h-145v-174z" />
<glyph unicode="&#x62d;" horiz-adv-x="1052" d="M66 152q0 -222 139.5 -356t361.5 -134h213v152h-213q-162 0 -254 88.5t-92 238.5q0 161 94.5 259t251.5 98h396q2 20 2 61q0 290 -118 441t-349 151q-105 0 -152 -21v-124q55 28 119 28q160 0 249.5 -98.5t104.5 -292.5h-295q-112 0 -201.5 -42.5t-144 -113t-83.5 -156.5 t-29 -179z" />
<glyph unicode="&#x62e;" horiz-adv-x="1052" d="M66 152q0 -222 139.5 -356t361.5 -134h213v152h-213q-162 0 -254 88.5t-92 238.5q0 161 94.5 259t251.5 98h396q2 20 2 61q0 290 -118 441t-349 151q-105 0 -152 -21v-124q55 28 119 28q160 0 249.5 -98.5t104.5 -292.5h-295q-112 0 -201.5 -42.5t-144 -113t-83.5 -156.5 t-29 -179zM553 1311h145v174h-145v-174z" />
<glyph unicode="&#x62f;" horiz-adv-x="1103" d="M106 0h910q0 384 -94 588q-156 344 -592 344v-135h55q257 -15 379 -213q100 -163 100 -441h-758v-143z" />
<glyph unicode="&#x630;" horiz-adv-x="1103" d="M106 0h910q0 384 -94 588q-156 344 -592 344v-135h55q257 -15 379 -213q100 -163 100 -441h-758v-143zM422 1077h145v174h-145v-174z" />
<glyph unicode="&#x631;" horiz-adv-x="583" d="M66 -199v-137q225 12 327.5 135t102.5 375v756h-144v-783q0 -179 -71 -262.5t-215 -83.5z" />
<glyph unicode="&#x632;" horiz-adv-x="585" d="M66 -199v-137q225 12 327.5 135t102.5 375v756h-144v-783q0 -179 -71 -262.5t-215 -83.5zM352 1077h146v174h-146v-174z" />
<glyph unicode="&#x633;" horiz-adv-x="2418" d="M66 365q0 -152 45 -284t122 -224t184 -144.5t228 -52.5q173 0 312 103t212 288q9 -30 9 -51h850q303 0 303 360v570h-146v-506q0 -162 -44.5 -221.5t-160.5 -59.5h-245q39 79 39 217v570h-144v-506q0 -162 -37.5 -221.5t-136.5 -59.5h-258q25 118 25 217v570h-146v-596 q-15 -249 -129 -392t-303 -143q-200 0 -318 162t-118 432v537h-143v-565z" />
<glyph unicode="&#x634;" horiz-adv-x="2418" d="M66 365q0 -152 45 -284t122 -224t184 -144.5t228 -52.5q173 0 312 103t212 288q9 -30 9 -51h850q303 0 303 360v570h-146v-506q0 -162 -44.5 -221.5t-160.5 -59.5h-245q39 79 39 217v570h-144v-506q0 -162 -37.5 -221.5t-136.5 -59.5h-258q25 118 25 217v570h-146v-596 q-15 -249 -129 -392t-303 -143q-200 0 -318 162t-118 432v537h-143v-565zM1499 1077h146v174h-146v-174zM1630 1305h146v174h-146v-174zM1767 1077h146v174h-146v-174z" />
<glyph unicode="&#x635;" horiz-adv-x="2430" d="M66 365q0 -152 45 -284t122 -224t184 -144.5t228 -52.5q324 0 502 340h1190q10 143 10 238q0 694 -492 694q-175 0 -348 -125t-284 -338v461h-144v-537q0 -272 -115.5 -433t-318.5 -161q-200 0 -318 162t-118 432v537h-143v-565zM1196 141q12 45 18 101q97 236 279 397.5 t352 161.5q167 0 262 -145t95 -386q0 -50 -7 -129h-999z" />
<glyph unicode="&#x636;" horiz-adv-x="2430" d="M66 365q0 -152 45 -284t122 -224t184 -144.5t228 -52.5q324 0 502 340h1190q10 143 10 238q0 694 -492 694q-175 0 -348 -125t-284 -338v461h-144v-537q0 -272 -115.5 -433t-318.5 -161q-200 0 -318 162t-118 432v537h-143v-565zM1196 141q12 45 18 101q97 236 279 397.5 t352 161.5q167 0 262 -145t95 -386q0 -50 -7 -129h-999zM1745 1077h145v174h-145v-174z" />
<glyph unicode="&#x637;" horiz-adv-x="1611" d="M66 0h1443q15 129 15 238q0 694 -494 694q-199 0 -385.5 -154t-290.5 -407l33 952h-151v-1182h-170v-141zM356 141q48 170 156 322.5t245 245t263 92.5q165 0 260.5 -143.5t95.5 -387.5q0 -62 -6 -129h-1014z" />
<glyph unicode="&#x638;" horiz-adv-x="1611" d="M66 0h1443q15 129 15 238q0 694 -494 694q-199 0 -385.5 -154t-290.5 -407l33 952h-151v-1182h-170v-141zM356 141q48 170 156 322.5t245 245t263 92.5q165 0 260.5 -143.5t95.5 -387.5q0 -62 -6 -129h-1014zM920 1077h145v174h-145v-174z" />
<glyph unicode="&#x639;" horiz-adv-x="1226" d="M66 152q0 -222 139.5 -356t361.5 -134h258v152h-258q-162 0 -254 88.5t-92 238.5q0 161 94.5 259t251.5 98h572v143h-551q-84 110 -84 238q0 165 64.5 255.5t183.5 90.5q195 0 229 -193l156 17q-26 127 -130 202.5t-257 75.5q-184 0 -293 -125t-109 -325q0 -150 62 -250 q-154 -38 -249 -170t-95 -305z" />
<glyph unicode="&#x63a;" horiz-adv-x="1226" d="M66 152q0 -222 139.5 -356t361.5 -134h258v152h-258q-162 0 -254 88.5t-92 238.5q0 161 94.5 259t251.5 98h572v143h-551q-84 110 -84 238q0 165 64.5 255.5t183.5 90.5q195 0 229 -193l156 17q-26 127 -130 202.5t-257 75.5q-184 0 -293 -125t-109 -325q0 -150 62 -250 q-154 -38 -249 -170t-95 -305zM680 1477h145v174h-145v-174z" />
<glyph unicode="&#x640;" horiz-adv-x="405" d="M-12 0h434v139h-434v-139z" />
<glyph unicode="&#x641;" horiz-adv-x="1886" d="M66 596q0 -596 589 -596h715q191 0 309.5 131.5t118.5 333.5q0 208 -115 335.5t-309 127.5q-198 0 -315 -130t-117 -335q0 -199 100 -320h-399q-434 0 -434 453v295h-143v-295zM1102 455q0 165 71.5 259.5t206.5 94.5q122 0 190 -86t68 -244q0 -360 -266 -360 q-125 0 -197.5 91.5t-72.5 244.5zM1305 1075h145v174h-145v-174z" />
<glyph unicode="&#x642;" horiz-adv-x="1449" d="M66 332q0 -296 188 -484q191 -188 467 -188q301 0 469 174q172 175 172 483v226q0 198 -107.5 309t-289.5 111q-180 0 -282.5 -114t-102.5 -312q0 -196 108 -310q111 -114 283 -114q159 0 250 108q-27 -220 -183 -330q-133 -92 -323 -92q-220 0 -361 156t-141 403v338 h-147v-364zM725 541q0 114 49 202q64 111 182 111h21q128 0 192 -113q48 -88 48 -213q0 -121 -56 -204q-67 -101 -190 -101q-126 0 -193 107q-53 86 -53 211zM750 1077h147v174h-147v-174zM1018 1077h147v174h-147v-174z" />
<glyph unicode="&#x643;" horiz-adv-x="1671" d="M66 596q0 -596 589 -596h629q299 0 299 360v965h-143v-901q0 -112 -21.5 -173t-63.5 -84.5t-118 -23.5h-594q-434 0 -434 453v336h-143v-336zM584 696h483v101h-270q-25 36 -25 90q0 135 102 135q80 0 95 -86l102 8q-34 162 -199 162q-97 0 -150.5 -60t-53.5 -161 q0 -45 16 -88h-100v-101z" />
<glyph unicode="&#x644;" horiz-adv-x="1310" d="M66 365q0 -313 165 -508q170 -197 414 -197q243 0 408 195q170 200 170 510v960h-144v-932q0 -239 -96 -401q-114 -193 -338 -193q-221 0 -338 193q-98 165 -98 401v168h-143v-196z" />
<glyph unicode="&#x645;" horiz-adv-x="1607" d="M66 -332h143v686q0 210 78 330.5t217 120.5h280q-120 -129 -120 -336q0 -208 114 -335.5t316 -127.5q190 0 308 128.5t118 334.5q0 210 -115 335.5t-309 125.5h-592q-438 0 -438 -568v-694zM840 459q0 160 68.5 250t193.5 90q117 0 181.5 -84.5t64.5 -233.5 q0 -342 -254 -342q-119 0 -186.5 87t-67.5 233z" />
<glyph unicode="&#x646;" horiz-adv-x="1310" d="M66 365q0 -152 45 -284t122 -224t184 -144.5t228 -52.5q163 0 296 92.5t207.5 254t74.5 358.5v565h-144v-537q0 -272 -115.5 -433t-318.5 -161q-200 0 -318 162t-118 432v537h-143v-565zM569 1077h146v174h-146v-174z" />
<glyph unicode="&#x647;" horiz-adv-x="1028" d="M66 473q0 -212 114 -338q120 -135 324 -135q200 0 321 139q115 133 115 336q0 207 -111 336q-120 135 -323 135t-322 -137q-118 -130 -118 -336zM231 463q0 157 62 252q73 110 221 110q136 0 207 -102q55 -88 55 -236q0 -366 -272 -366q-139 0 -211 106q-62 89 -62 236z " />
<glyph unicode="&#x648;" horiz-adv-x="991" d="M127 485q0 -199 111 -326.5t280 -127.5q175 0 242 116q-6 -346 -289 -346v-137q225 12 328.5 135t103.5 375v305q0 199 -109 328t-276 129q-174 0 -282.5 -126.5t-108.5 -324.5zM268 487q0 137 66 229.5t176 92.5q112 0 183 -95t71 -235q0 -137 -67 -228t-177 -91 q-111 0 -181.5 93t-70.5 234z" />
<glyph unicode="&#x649;" horiz-adv-x="1492" d="M66 360q0 -195 87 -355.5t239 -252.5t337 -92h12q139 0 262.5 54t211.5 147.5t139 223t51 275.5v191h-504q91 352 426 352v125q-274 0 -427.5 -155.5t-176.5 -466.5h541q0 -279 -142.5 -443t-386.5 -164q-226 0 -364.5 142t-157.5 395q-2 20 -2 221h-145v-197z" />
<glyph unicode="&#x64a;" horiz-adv-x="1495" d="M66 360q0 -195 87 -355.5t239 -252.5t337 -92h12q137 0 260.5 54t212 146t141 220.5t52.5 271.5v8l-2 191h-502q88 352 424 352v125q-274 0 -428 -156t-174 -466h539q0 -279 -142.5 -443t-386.5 -164q-226 0 -364.5 142.5t-157.5 394.5q-2 20 -2 221h-145v-197zM528 -487 v-175h146v175h-146zM797 -487v-175h145v175h-145z" />
<glyph unicode="&#x64b;" d="M43 1366q41 11 107.5 26.5t99.5 24.5t72 22.5t58 30t26 37.5l-297 -80q-45 -20 -66 -61zM61 1489q41 11 106.5 27t99 25t72.5 22.5t58.5 29.5t26.5 37l-299 -80q-46 -21 -64 -61z" />
<glyph unicode="&#x64c;" d="M55 1573q20 4 31 4q61 0 61 -76q0 -64 -38 -102q1 -5 3.5 -12.5t4 -13t2.5 -9.5q60 0 127 20q91 29 138.5 83.5t47.5 109.5q0 42 -29 72t-73 30q-36 0 -56 -20q-28 -28 -28 -72q0 -63 61 -121q-62 -59 -166 -65q43 52 43 106q0 38 -21.5 64t-51.5 26q-32 0 -56 -24z M274 1587q0 27 18 47.5t44 20.5t45.5 -20.5t19.5 -49.5q0 -55 -71 -102q-56 38 -56 104z" />
<glyph unicode="&#x64d;" d="M35 -825q34 9 80 20t74 18t62.5 16t55 17.5t41 19t31.5 23t16 27.5l-299 -82q-43 -18 -61 -59zM49 -702q33 8 79 19t74 17.5t63 16t56 17.5t42 19t32.5 24t16.5 28l-299 -82q-43 -18 -64 -59z" />
<glyph unicode="&#x64e;" d="M41 1366q42 11 106.5 26.5t98 24.5t73 22.5t59.5 30t28 37.5l-300 -82q-45 -20 -65 -59z" />
<glyph unicode="&#x64f;" d="M4 1399q3 -5 5 -16t7.5 -14t20.5 -3q127 0 211 72t84 139q0 38 -31 74q-28 28 -74 28q-37 0 -61.5 -28t-24.5 -66q0 -63 64 -121q-70 -67 -174 -67q-19 0 -27 2zM170 1585q0 27 19 48.5t44 21.5q26 0 46 -21t20 -51q0 -53 -72 -100q-57 34 -57 102z" />
<glyph unicode="&#x650;" d="M8 -686q64 17 156 41.5t121 32.5q69 18 84 67l-297 -82q-46 -18 -64 -59z" />
<glyph unicode="&#x651;" d="M4 1597l33 -155q15 -74 74 -74q92 0 92 135q41 -92 96 -92q40 0 62 19.5t22 48.5q0 5 -4 41l-31 157l-43 -10l27 -139q2 -6 2 -19q0 -47 -43 -47q-57 0 -72 78l-20 102l-45 -10l20 -104q2 -10 2 -27q0 -30 -17 -55t-42 -25q-31 0 -43 47l-27 140z" />
<glyph unicode="&#x652;" d="M47 1528q0 -15 4 -43q21 -117 119 -117q11 0 35 4q100 21 100 131q0 11 -4 39q-21 117 -119 117q-13 0 -37 -4q-98 -21 -98 -127zM86 1530q0 81 68 96q6 2 20 2q41 0 68 -47q20 -36 20 -82q0 -100 -84 -100q-45 0 -69 47q-23 41 -23 84z" />
<glyph unicode="&#x653;" d="M8 1350l35 -47q50 59 84 59q32 0 100 -35t103 -35q61 0 127 78l-35 47q-49 -55 -90 -55q-27 0 -94 33q-72 35 -107 35q-70 0 -123 -80z" />
<glyph unicode="&#x654;" d="M23 1317h391v82h-219q-21 30 -21 74q0 110 84 110q64 0 76 -72l84 9q-27 131 -160 131q-83 0 -125.5 -49.5t-42.5 -131.5q0 -39 14 -71h-81v-82z" />
<glyph unicode="&#x655;" d="M-12 -336v-82h393v82h-221q-21 27 -21 72q0 110 84 110q63 0 78 -71l80 10q-27 129 -160 129q-82 0 -129 -53q-37 -46 -37 -125q0 -40 13 -72h-80z" />
<glyph unicode="&#x660;" horiz-adv-x="561" d="M180 369l201 -125v284l-201 123v-282z" />
<glyph unicode="&#x661;" horiz-adv-x="413" d="M135 0h144v1321l-144 -111v-1210z" />
<glyph unicode="&#x662;" horiz-adv-x="976" d="M135 0h144v664q0 219 83 358q104 174 318 174h162v129q-82 -2 -174 -2q-296 0 -432 -238q-101 -174 -101 -444v-641z" />
<glyph unicode="&#x663;" horiz-adv-x="1101" d="M135 0h144v786h311q174 0 275.5 95t101.5 260v182h-127v-125q0 -145 -63 -216t-232 -71q98 17 98 230v182h-123v-125q0 -72 -9.5 -117.5t-35.5 -81.5t-74.5 -51.5t-124.5 -15.5v393h-141v-1325z" />
<glyph unicode="&#x664;" horiz-adv-x="1003" d="M135 356q0 -155 116.5 -255.5t289.5 -100.5h327v129h-329q-114 0 -186 71.5t-72 180.5q0 108 74 181t184 73h40.5t32.5 -0.5t23 -1t15 -0.5h5v125h-106q-103 0 -172.5 64.5t-69.5 164.5q0 95 66.5 154t175.5 59h272v123h-313q-151 0 -245.5 -83.5t-94.5 -221.5 q0 -233 203 -322q-236 -64 -236 -340z" />
<glyph unicode="&#x665;" horiz-adv-x="1161" d="M135 578q0 -221 122 -354.5t321 -133.5q200 0 324 135t124 353q0 191 -184 405q-139 163 -262 225q-123 -60 -263 -225q-182 -215 -182 -405zM291 565q0 126 89.5 280.5t199.5 221.5q112 -64 200 -218t88 -284q0 -164 -76 -259t-212 -95q-132 0 -210.5 96.5t-78.5 257.5z " />
<glyph unicode="&#x666;" horiz-adv-x="976" d="M135 1196h160q191 0 297 -142t106 -390v-664h144v641q0 321 -139.5 502.5t-395.5 181.5h-172v-129z" />
<glyph unicode="&#x667;" horiz-adv-x="1079" d="M135 1325l293 -1325h227l289 1325h-143l-250 -1223l-277 1223h-139z" />
<glyph unicode="&#x668;" horiz-adv-x="1079" d="M135 0h139l277 1223l250 -1223h143l-289 1325h-227z" />
<glyph unicode="&#x669;" horiz-adv-x="1044" d="M135 907q0 -187 103 -299t284 -112q144 0 242 79v-575h143v909q0 187 -101.5 300.5t-281.5 113.5q-178 0 -283.5 -116.5t-105.5 -299.5zM281 899q0 151 65 233t186 82q114 0 173 -76.5t59 -215.5q0 -320 -242 -320q-112 0 -176.5 80t-64.5 217z" />
<glyph unicode="&#x66a;" horiz-adv-x="714" d="M66 0h145l438 1327h-143zM113 1090h186v215h-186v-215zM426 25h186v215h-186v-215z" />
<glyph unicode="&#x66b;" horiz-adv-x="323" d="M49 70h82q0 -115 -61 -295h88q78 191 78 389v112h-187v-206z" />
<glyph unicode="&#x66c;" horiz-adv-x="323" d="M49 70h82q0 -115 -61 -295h88q78 191 78 389v112h-187v-206z" />
<glyph unicode="&#x66d;" horiz-adv-x="1024" d="M115 502l239 -191l-106 -284l35 -27l233 193l232 -193l34 31l-104 282l237 189l-18 41l-283 -41l-77 293h-41l-80 -293l-283 43z" />
<glyph unicode="&#x670;" d="M47 1524h70v356h-70v-356z" />
<glyph unicode="&#x67e;" horiz-adv-x="1671" d="M66 596q0 -596 589 -596h629q299 0 299 360v570h-143v-506q0 -112 -21.5 -173t-63.5 -84.5t-118 -23.5h-594q-434 0 -434 453v336h-143v-336zM676 -139v-174h147v174h-147zM811 -367v-174h145v174h-145zM944 -139v-174h148v174h-148z" />
<glyph unicode="&#x686;" horiz-adv-x="1052" d="M66 152q0 -222 139.5 -356t361.5 -134h213v152h-213q-162 0 -254 88.5t-92 238.5q0 161 94.5 259t251.5 98h396q2 20 2 61q0 290 -118 441t-349 151q-105 0 -152 -21v-124q55 28 119 28q160 0 249.5 -98.5t104.5 -292.5h-78q-225 0 -299 -12q-169 -27 -272.5 -161.5 t-103.5 -317.5zM440 160h146v157h-146v-157zM565 -53h148v159h-148v-159zM694 160h146v157h-146v-157z" />
<glyph unicode="&#x698;" horiz-adv-x="589" d="M66 -199v-137q225 12 327.5 135t102.5 375v756h-144v-783q0 -179 -71 -262.5t-215 -83.5zM88 1075h145v174h-145v-174zM223 1303h146v174h-146v-174zM356 1075h146v174h-146v-174z" />
<glyph unicode="&#x6a4;" horiz-adv-x="1886" d="M66 596q0 -596 589 -596h715q191 0 309.5 131.5t118.5 333.5q0 208 -115 335.5t-309 127.5q-198 0 -315 -130t-117 -335q0 -199 100 -320h-399q-434 0 -434 453v295h-143v-295zM1102 455q0 165 71.5 259.5t206.5 94.5q122 0 190 -86t68 -244q0 -360 -266 -360 q-125 0 -197.5 91.5t-72.5 244.5zM1165 1075h148v174h-148v-174zM1300 1303h146v174h-146v-174zM1446 1075h135v174h-135v-174z" />
<glyph unicode="&#x6f0;" horiz-adv-x="561" d="M180 369l201 -125v284l-201 123v-282z" />
<glyph unicode="&#x6f1;" horiz-adv-x="413" d="M135 0h144v1321l-144 -111v-1210z" />
<glyph unicode="&#x6f2;" horiz-adv-x="976" d="M135 0h144v664q0 219 83 358q104 174 318 174h162v129q-82 -2 -174 -2q-296 0 -432 -238q-101 -174 -101 -444v-641z" />
<glyph unicode="&#x6f3;" horiz-adv-x="1101" d="M135 0h144v786h311q174 0 275.5 95t101.5 260v182h-127v-125q0 -145 -63 -216t-232 -71q98 17 98 230v182h-123v-125q0 -72 -9.5 -117.5t-35.5 -81.5t-74.5 -51.5t-124.5 -15.5v393h-141v-1325z" />
<glyph unicode="&#x6f4;" horiz-adv-x="1003" d="M135 356q0 -155 116.5 -255.5t289.5 -100.5h327v129h-329q-114 0 -186 71.5t-72 180.5q0 108 74 181t184 73h40.5t32.5 -0.5t23 -1t15 -0.5h5v125h-106q-103 0 -172.5 64.5t-69.5 164.5q0 95 66.5 154t175.5 59h272v123h-313q-151 0 -245.5 -83.5t-94.5 -221.5 q0 -233 203 -322q-236 -64 -236 -340z" />
<glyph unicode="&#x6f5;" horiz-adv-x="1161" d="M135 578q0 -221 122 -354.5t321 -133.5q200 0 324 135t124 353q0 191 -184 405q-139 163 -262 225q-123 -60 -263 -225q-182 -215 -182 -405zM291 565q0 126 89.5 280.5t199.5 221.5q112 -64 200 -218t88 -284q0 -164 -76 -259t-212 -95q-132 0 -210.5 96.5t-78.5 257.5z " />
<glyph unicode="&#x6f6;" horiz-adv-x="976" d="M135 1196h160q191 0 297 -142t106 -390v-664h144v641q0 321 -139.5 502.5t-395.5 181.5h-172v-129z" />
<glyph unicode="&#x6f7;" horiz-adv-x="1079" d="M135 1325l293 -1325h227l289 1325h-143l-250 -1223l-277 1223h-139z" />
<glyph unicode="&#x6f8;" horiz-adv-x="1079" d="M135 0h139l277 1223l250 -1223h143l-289 1325h-227z" />
<glyph unicode="&#x6f9;" horiz-adv-x="1044" d="M135 907q0 -187 103 -299t284 -112q144 0 242 79v-575h143v909q0 187 -101.5 300.5t-281.5 113.5q-178 0 -283.5 -116.5t-105.5 -299.5zM281 899q0 151 65 233t186 82q114 0 173 -76.5t59 -215.5q0 -320 -242 -320q-112 0 -176.5 80t-64.5 217z" />
<glyph unicode="&#x2000;" horiz-adv-x="992" />
<glyph unicode="&#x2001;" horiz-adv-x="1985" />
<glyph unicode="&#x2002;" horiz-adv-x="992" />
<glyph unicode="&#x2003;" horiz-adv-x="1985" />
<glyph unicode="&#x2004;" horiz-adv-x="661" />
<glyph unicode="&#x2005;" horiz-adv-x="496" />
<glyph unicode="&#x2006;" horiz-adv-x="330" />
<glyph unicode="&#x2007;" horiz-adv-x="330" />
<glyph unicode="&#x2008;" horiz-adv-x="248" />
<glyph unicode="&#x2009;" horiz-adv-x="397" />
<glyph unicode="&#x200a;" horiz-adv-x="110" />
<glyph unicode="&#x200c;" horiz-adv-x="40" d="M0 0h41v1479h-41v-1479z" />
<glyph unicode="&#x200d;" horiz-adv-x="40" d="M-104 1358l28 -27l76 76v-1407h41v1407l76 -76l28 27l-96 98l96 96l-28 29l-97 -98l-96 98l-28 -29l98 -96z" />
<glyph unicode="&#x200e;" horiz-adv-x="40" d="M0 0h41v1438h160l-78 -78l29 -29l122 125l-122 125l-29 -29l74 -73h-197v-1479z" />
<glyph unicode="&#x200f;" horiz-adv-x="40" d="M-233 1456l122 -125l29 29l-78 78h160v-1438h41v1479h-197l74 73l-29 29z" />
<glyph unicode="&#x2010;" horiz-adv-x="929" d="M49 393h862v80h-862v-80z" />
<glyph unicode="&#x2011;" horiz-adv-x="1314" d="M123 399h1069v142h-1069v-142z" />
<glyph unicode="&#x2012;" horiz-adv-x="1314" d="M123 399h1069v142h-1069v-142z" />
<glyph unicode="&#x2013;" horiz-adv-x="1269" d="M123 399h1024v142h-1024v-142z" />
<glyph unicode="&#x2014;" horiz-adv-x="2293" d="M123 399h2048v142h-2048v-142z" />
<glyph unicode="&#x201c;" horiz-adv-x="546" d="M70 938h163v147q-63 0 -63 52q0 102 96 188h-51q-145 -133 -145 -221v-166zM289 938h164v147q-64 0 -64 52q0 102 96 188h-53q-143 -131 -143 -221v-166z" />
<glyph unicode="&#x201d;" horiz-adv-x="546" d="M70 938h51q145 133 145 219v168h-162v-149q64 0 64 -52q0 -101 -98 -186zM289 938h51q145 133 145 219v168h-161v-149q32 0 46.5 -12t14.5 -40q0 -100 -96 -186z" />
<glyph unicode="&#x202f;" horiz-adv-x="397" />
<glyph unicode="&#x205f;" horiz-adv-x="496" />
<glyph unicode="&#x2421;" horiz-adv-x="1452" d="M78 117h194q42 0 84 10q162 40 162 260q0 217 -162 254q-27 8 -94 8h-184v-532zM150 180v406h112q57 0 90 -11q94 -37 94 -188q0 -114 -53 -170q-40 -37 -129 -37h-114zM582 117h399v63h-326v180h293v64h-293v162h314v63h-387v-532zM1047 117h333v63h-260v469h-73v-532z " />
<glyph unicode="&#xe000;" horiz-adv-x="1024" d="M0 0z" />
<glyph unicode="&#xfd3e;" horiz-adv-x="659" d="M72 606q0 -541 467 -913l61 86q-164 129 -258 354q-94 227 -94 488q0 259 82 451t266 362l-64 75q-460 -334 -460 -903z" />
<glyph unicode="&#xfd3f;" horiz-adv-x="659" d="M66 1427q164 -126 258 -354q94 -224 94 -485q0 -497 -350 -817l63 -74q463 337 463 903q0 540 -465 913z" />
<glyph unicode="&#xfeff;" />
<glyph horiz-adv-x="681" />
<glyph horiz-adv-x="573" />
<glyph horiz-adv-x="559" />
<glyph />
</font>
</defs>
</svg>
